<svg width="343" height="152" viewBox="0 0 343 152" fill="none" xmlns="http://www.w3.org/2000/svg">
<g clip-path="url(#clip0_442_403)">
<g filter="url(#filter0_d_442_403)">
<rect y="47.5095" width="61.6385" height="34.8076" rx="5.80127" fill="white"/>
</g>
<g clip-path="url(#clip1_442_403)">
<path d="M23.033 67.3348C22.9745 67.1934 22.9195 67.0448 22.861 66.9179L22.59 66.3124L22.579 66.3015C21.7735 64.5611 20.9131 62.7917 20.0015 61.0513L19.9648 60.9788C19.8733 60.8084 19.7818 60.6199 19.6866 60.4458C19.5694 60.2392 19.4559 60.018 19.2692 59.8077C19.0872 59.5876 18.8581 59.4104 18.5985 59.2886C18.3389 59.1669 18.0553 59.1038 17.768 59.1038C17.4808 59.1038 17.1972 59.1669 16.9376 59.2886C16.678 59.4104 16.4489 59.5876 16.2669 59.8077C16.0948 60.018 15.9667 60.2392 15.8495 60.4458C15.758 60.6344 15.6664 60.8193 15.5712 60.9897L15.5346 61.0622C14.6376 62.8026 13.7625 64.572 12.957 66.3124L12.9351 66.3341C12.8545 66.5227 12.7593 66.7184 12.6678 66.9287C12.6092 67.0556 12.5506 67.1934 12.492 67.3457C12.3339 67.7445 12.2834 68.1772 12.3455 68.6011C12.4076 69.0251 12.5802 69.4257 12.8463 69.7635C13.1124 70.1013 13.4628 70.3646 13.8629 70.5275C14.2631 70.6904 14.6992 70.7472 15.1282 70.6923C15.5396 70.6387 15.9356 70.503 16.2925 70.2935C16.7685 70.0288 17.2262 69.6445 17.7387 69.0897C18.2513 69.6445 18.72 70.0288 19.185 70.2971C19.6321 70.557 20.1385 70.7005 20.6568 70.7141C21.2571 70.7165 21.8379 70.5039 22.2922 70.1153C22.7464 69.7268 23.0434 69.1887 23.1282 68.6002C23.2263 68.1774 23.1931 67.7351 23.033 67.3312V67.3348ZM17.7754 67.9367C17.1456 67.139 16.7355 66.4066 16.5964 65.7794C16.5388 65.5469 16.5263 65.3057 16.5598 65.0687C16.5854 64.8838 16.655 64.7206 16.7502 64.5829C16.9699 64.2674 17.3543 64.0716 17.7754 64.0716C17.9753 64.0656 18.1737 64.1088 18.3526 64.1974C18.5315 64.286 18.6854 64.4172 18.8005 64.5792C18.8957 64.7243 18.9653 64.8838 18.9873 65.0687C19.0239 65.279 19.0092 65.5219 18.9506 65.7794C18.8115 66.3957 18.4014 67.1354 17.7754 67.9367ZM22.4399 68.4733C22.3983 68.7721 22.2784 69.0548 22.0921 69.2934C21.9058 69.5319 21.6596 69.718 21.3781 69.833C21.0999 69.949 20.7923 69.9817 20.4921 69.949C20.1992 69.9128 19.9063 69.8185 19.606 69.6445C19.1075 69.3393 18.6593 68.9603 18.277 68.5205C19.0458 67.5778 19.5108 66.7184 19.6866 65.9534C19.7708 65.5908 19.7818 65.2645 19.7452 64.9636C19.6994 64.6783 19.592 64.4062 19.4303 64.1659C19.2456 63.9053 18.9991 63.6936 18.7125 63.5495C18.4258 63.4053 18.1078 63.3331 17.7863 63.3392C17.109 63.3392 16.5049 63.651 16.1387 64.1623C15.9739 64.402 15.8674 64.6762 15.8275 64.9636C15.7799 65.2681 15.7909 65.6053 15.8861 65.9534C16.0619 66.7184 16.5378 67.5886 17.2957 68.5277C16.9199 68.9759 16.4706 69.3583 15.9667 69.659C15.6628 69.833 15.3735 69.9236 15.0806 69.9599C14.6251 70.0177 14.165 69.8951 13.8002 69.6188C13.4355 69.3424 13.1956 68.9347 13.1328 68.4842C13.0962 68.1941 13.1218 67.9041 13.239 67.5778C13.2756 67.4617 13.3305 67.3457 13.3891 67.2079C13.4696 67.0194 13.5648 66.8236 13.6564 66.6278L13.671 66.6024C14.4618 64.8729 15.3259 63.1072 16.223 61.3777L16.2596 61.3051C16.3511 61.1311 16.4426 60.9462 16.5378 60.7721C16.633 60.5872 16.7355 60.4096 16.8673 60.2645C16.9814 60.1297 17.124 60.0212 17.285 59.9468C17.446 59.8724 17.6215 59.8338 17.7992 59.8338C17.9768 59.8338 18.1523 59.8724 18.3133 59.9468C18.4743 60.0212 18.6169 60.1297 18.731 60.2645C18.8591 60.4096 18.9653 60.5872 19.0605 60.7721C19.152 60.9462 19.2436 61.1347 19.3388 61.3051L19.3754 61.3777C20.2687 63.1072 21.1328 64.8729 21.9383 66.6024L21.9493 66.6133C22.0445 66.8018 22.125 67.0121 22.2166 67.1934C22.2751 67.3348 22.3337 67.4472 22.3703 67.5669C22.4399 67.8932 22.4765 68.1833 22.4399 68.4733ZM27.5365 67.8569C27.2606 67.8609 26.9873 67.8034 26.737 67.6885C26.4866 67.5736 26.2656 67.4044 26.0903 67.1934C25.6963 66.7438 25.4873 66.1641 25.5044 65.5691C25.4984 64.9611 25.7142 64.3714 26.1122 63.9085C26.2963 63.6948 26.5255 63.5236 26.7836 63.4071C27.0417 63.2906 27.3224 63.2315 27.6061 63.2341C27.8729 63.2268 28.1373 63.2869 28.3743 63.4087C28.6113 63.5305 28.8131 63.7099 28.9608 63.9302L28.9974 63.361H30.0665V67.7409H28.9937L28.9571 67.1028C28.8048 67.338 28.5944 67.5307 28.3458 67.6627C28.0971 67.7947 27.8186 67.8616 27.5365 67.8569ZM27.8148 66.8127C28.0271 66.8127 28.2138 66.7547 28.3896 66.6496C28.5507 66.5335 28.6825 66.3812 28.785 66.1963C28.8765 66.0114 28.9241 65.7902 28.9241 65.5437C28.9384 65.3295 28.8963 65.1154 28.802 64.9222C28.7076 64.729 28.5643 64.5633 28.3859 64.4414C28.2145 64.3357 28.0167 64.2797 27.8148 64.2797C27.6128 64.2797 27.415 64.3357 27.2436 64.4414C27.0825 64.5575 26.9507 64.7098 26.8482 64.8947C26.7513 65.0986 26.7037 65.322 26.709 65.5473C26.6948 65.7615 26.7368 65.9756 26.8312 66.1688C26.9255 66.362 27.0689 66.5277 27.2472 66.6496C27.4193 66.7547 27.6061 66.8127 27.8148 66.8127ZM31.8971 62.179C31.8971 62.3059 31.8752 62.4219 31.8166 62.5161C31.758 62.6068 31.6775 62.6902 31.5713 62.7482C31.4651 62.8062 31.3516 62.828 31.2344 62.828C31.1173 62.828 31.0001 62.8062 30.8939 62.7482C30.7935 62.6928 30.7091 62.613 30.6486 62.5161C30.5919 62.4129 30.5641 62.2964 30.5681 62.179C30.5681 62.0484 30.5937 61.9324 30.6486 61.8418C30.7072 61.733 30.7914 61.6677 30.8939 61.6097C31.0001 61.5517 31.1136 61.5263 31.2344 61.5263C31.351 61.5236 31.4662 61.551 31.5689 61.6056C31.6716 61.6603 31.7582 61.7404 31.8203 61.8381C31.8735 61.9438 31.8999 62.0608 31.8971 62.179ZM30.6523 67.7264V63.3537H31.8166V67.7337H30.6486L30.6523 67.7264ZM34.9287 64.4995V64.514C34.8738 64.4886 34.8006 64.4777 34.7457 64.4668C34.6724 64.4523 34.6139 64.4523 34.5443 64.4523C34.2184 64.4523 33.9731 64.5466 33.812 64.7424C33.6363 64.9418 33.5557 65.221 33.5557 65.5799V67.73H32.3878V63.3501H33.4605L33.4972 64.0136C33.6143 63.7816 33.7534 63.6075 33.9512 63.477C34.1478 63.3502 34.3793 63.2868 34.6139 63.2957C34.6981 63.2957 34.7786 63.3029 34.8482 63.3174C34.8848 63.3283 34.9068 63.3283 34.9287 63.3392V64.4995ZM35.3974 67.7264V61.5553H36.5617V63.9121C36.7265 63.7018 36.9132 63.5386 37.1475 63.4117C37.5185 63.2316 37.9399 63.1805 38.3438 63.2667C38.7477 63.3529 39.1105 63.5713 39.3736 63.8867C39.7684 64.3372 39.9775 64.9184 39.9594 65.5147C39.9654 66.1226 39.7496 66.7123 39.3516 67.1753C39.1675 67.389 38.9384 67.5601 38.6803 67.6766C38.4222 67.7932 38.1414 67.8522 37.8578 67.8497C37.5909 67.8569 37.3266 67.7968 37.0896 67.675C36.8526 67.5533 36.6508 67.3738 36.5031 67.1535L36.4665 67.7228L35.3974 67.7337V67.7264ZM37.6491 66.8127C37.8578 66.8127 38.0445 66.7547 38.2203 66.6496C38.3814 66.5335 38.5132 66.3812 38.6157 66.1963C38.7109 66.0114 38.7548 65.7902 38.7548 65.5437C38.7548 65.3008 38.7109 65.0796 38.6157 64.8947C38.5196 64.7164 38.3845 64.5615 38.2203 64.4414C38.0489 64.3357 37.851 64.2797 37.6491 64.2797C37.4472 64.2797 37.2493 64.3357 37.0779 64.4414C36.9132 64.5575 36.785 64.7098 36.6789 64.8947C36.582 65.0986 36.5344 65.322 36.5397 65.5473C36.5255 65.7615 36.5675 65.9756 36.6619 66.1688C36.7562 66.362 36.8996 66.5277 37.0779 66.6496C37.25 66.7547 37.4368 66.8127 37.6491 66.8127ZM40.3988 67.73V63.3501H41.4716L41.5082 63.9193C41.643 63.7011 41.8342 63.5225 42.0621 63.4021C42.2899 63.2816 42.5462 63.2236 42.8043 63.2341C43.0994 63.229 43.3895 63.3102 43.6383 63.4676C43.887 63.625 44.0834 63.8514 44.2029 64.1187C44.3311 64.3943 44.4006 64.7351 44.4006 65.1158V67.7409H43.2327V65.2681C43.2327 64.9636 43.1631 64.7243 43.024 64.5466C42.8848 64.3726 42.6944 64.2783 42.4528 64.2783C42.277 64.2783 42.1233 64.3145 41.9878 64.3943C41.8597 64.4777 41.7535 64.5829 41.6729 64.7315C41.5915 64.8818 41.5511 65.0505 41.5558 65.221V67.73H40.3988ZM44.9828 67.73V61.5517H46.1507V63.9085C46.3089 63.697 46.5147 63.5249 46.7518 63.406C46.9889 63.287 47.2507 63.2244 47.5164 63.2232C47.7923 63.2192 48.0656 63.2768 48.3159 63.3916C48.5663 63.5065 48.7873 63.6757 48.9627 63.8867C49.3546 64.3372 49.5623 64.9166 49.5448 65.5111C49.5512 66.1191 49.3353 66.7089 48.937 67.1717C48.7529 67.3854 48.5238 67.5565 48.2657 67.673C48.0076 67.7895 47.7268 67.8486 47.4432 67.8461C47.1763 67.8533 46.9119 67.7932 46.675 67.6714C46.438 67.5496 46.2362 67.3702 46.0885 67.1499L46.0555 67.7192L44.9828 67.73ZM47.2455 66.8127C47.4578 66.8127 47.6446 66.7547 47.8167 66.6496C47.9814 66.5335 48.1096 66.3812 48.2157 66.1963C48.3073 66.0114 48.3549 65.7902 48.3549 65.5437C48.3691 65.3295 48.3271 65.1154 48.2327 64.9222C48.1384 64.729 47.995 64.5633 47.8167 64.4414C47.6453 64.3357 47.4474 64.2797 47.2455 64.2797C47.0436 64.2797 46.8457 64.3357 46.6743 64.4414C46.5132 64.5575 46.3814 64.7098 46.2789 64.8947C46.1767 65.0968 46.1288 65.3215 46.1398 65.5473C46.1255 65.7615 46.1676 65.9756 46.2619 66.1688C46.3563 66.362 46.4996 66.5277 46.678 66.6496C46.8501 66.7547 47.0258 66.8127 47.2455 66.8127Z" fill="#FF385C"/>
</g>
</g>
<g filter="url(#filter1_d_442_403)">
<rect x="70.3404" y="25.7549" width="61.6385" height="34.8076" rx="5.80127" fill="white"/>
</g>
<g clip-path="url(#clip2_442_403)">
<path d="M98.7765 43.3075C98.7765 44.918 97.5114 46.1047 95.9589 46.1047C94.4063 46.1047 93.1412 44.918 93.1412 43.3075C93.1412 41.6856 94.4063 40.5103 95.9589 40.5103C97.5114 40.5103 98.7765 41.6856 98.7765 43.3075ZM97.5431 43.3075C97.5431 42.3011 96.8099 41.6125 95.9589 41.6125C95.1079 41.6125 94.3747 42.3011 94.3747 43.3075C94.3747 44.3038 95.1079 45.0025 95.9589 45.0025C96.8099 45.0025 97.5431 44.3025 97.5431 43.3075Z" fill="#EA4335"/>
<path d="M104.855 43.3075C104.855 44.918 103.59 46.1047 102.037 46.1047C100.485 46.1047 99.2197 44.918 99.2197 43.3075C99.2197 41.6869 100.485 40.5103 102.037 40.5103C103.59 40.5103 104.855 41.6856 104.855 43.3075ZM103.622 43.3075C103.622 42.3011 102.888 41.6125 102.037 41.6125C101.186 41.6125 100.453 42.3011 100.453 43.3075C100.453 44.3038 101.186 45.0025 102.037 45.0025C102.888 45.0025 103.622 44.3025 103.622 43.3075Z" fill="#FBBC05"/>
<path d="M110.68 40.6792V45.7011C110.68 47.7669 109.457 48.6106 108.011 48.6106C106.649 48.6106 105.83 47.7038 105.521 46.9623L106.595 46.5171C106.786 46.9724 107.255 47.5096 108.009 47.5096C108.935 47.5096 109.509 46.9408 109.509 45.8701V45.4678H109.466C109.19 45.8071 108.658 46.1034 107.987 46.1034C106.582 46.1034 105.296 44.8852 105.296 43.3176C105.296 41.7386 106.582 40.5103 107.987 40.5103C108.657 40.5103 109.188 40.8066 109.466 41.1358H109.509V40.6805H110.68V40.6792ZM109.596 43.3176C109.596 42.3326 108.936 41.6125 108.097 41.6125C107.246 41.6125 106.533 42.3326 106.533 43.3176C106.533 44.2924 107.246 45.0025 108.097 45.0025C108.936 45.0025 109.596 44.2924 109.596 43.3176Z" fill="#4285F4"/>
<path d="M112.611 37.7358V45.9333H111.408V37.7358H112.611Z" fill="#34A853"/>
<path d="M117.3 44.2282L118.257 44.8638C117.948 45.319 117.203 46.1035 115.917 46.1035C114.321 46.1035 113.13 44.8751 113.13 43.3063C113.13 41.6428 114.331 40.509 115.779 40.509C117.236 40.509 117.949 41.6642 118.182 42.2885L118.31 42.6063L114.555 44.155C114.843 44.7162 115.29 45.0025 115.917 45.0025C116.545 45.0025 116.981 44.6948 117.3 44.2282ZM114.353 43.2218L116.863 42.1838C116.725 41.8345 116.309 41.5911 115.821 41.5911C115.194 41.5911 114.321 42.1422 114.353 43.2218V43.2218Z" fill="#EA4335"/>
<path d="M88.5875 42.5799V41.3931H92.6031C92.6424 41.6 92.6626 41.8446 92.6626 42.1095C92.6626 42.9998 92.4182 44.1008 91.6305 44.8853C90.8644 45.6798 89.8855 46.1035 88.5887 46.1035C86.1852 46.1035 84.1641 44.1538 84.1641 41.7601C84.1641 39.3665 86.1852 37.4167 88.5887 37.4167C89.9184 37.4167 90.8656 37.9363 91.5773 38.6136L90.7365 39.451C90.2261 38.9743 89.5347 38.6035 88.5875 38.6035C86.8323 38.6035 85.4596 40.0122 85.4596 41.7601C85.4596 43.5081 86.8323 44.9168 88.5875 44.9168C89.7259 44.9168 90.3743 44.4615 90.7897 44.0478C91.1265 43.7124 91.3481 43.2332 91.4355 42.5786L88.5875 42.5799V42.5799Z" fill="#4285F4"/>
</g>
<g filter="url(#filter2_d_442_403)">
<rect x="70.3403" y="69.2644" width="61.6385" height="34.8076" rx="5.80127" fill="white"/>
</g>
<g clip-path="url(#clip3_442_403)">
<path fill-rule="evenodd" clip-rule="evenodd" d="M107.033 84.2426L106.308 83.0171L105.021 83.6298L104.296 82.4007L103.009 83.0171L102.287 81.7843L101 82.4007L100.275 81.1716L98.9875 81.7879L98.266 80.5552L96.9752 81.1716L94.245 90.062L97.5626 91.0772C97.6876 90.6765 97.9518 90.3337 98.3074 90.1108C98.6631 89.8879 99.0867 89.7995 99.5019 89.8617C99.917 89.9239 100.296 90.1325 100.571 90.4498C100.846 90.7672 100.998 91.1723 101 91.5921V91.6283C101.007 91.7879 100.989 91.9474 100.942 92.107L104.314 93.1403L107.033 84.2426Z" fill="#D61920"/>
<path fill-rule="evenodd" clip-rule="evenodd" d="M81.4847 102.565H83.4447C83.9672 102.565 84.4683 102.358 84.8377 101.988C85.2071 101.619 85.4147 101.118 85.4147 100.595V94.8252C85.416 94.5664 85.3664 94.31 85.2686 94.0705C85.1708 93.831 85.0268 93.6131 84.8448 93.4292C84.6628 93.2454 84.4463 93.0991 84.2078 92.9989C83.9693 92.8987 83.7134 92.8465 83.4547 92.8452H81.4847V102.545V102.565ZM80.2547 104.625C80.0146 104.585 79.7969 104.459 79.641 104.272C79.4851 104.085 79.4013 103.849 79.4047 103.605V85.6852C79.4029 85.548 79.4286 85.412 79.4801 85.2849C79.5316 85.1578 79.608 85.0423 79.7047 84.9452C79.8217 84.8236 79.9669 84.7327 80.1273 84.6804C80.2877 84.6281 80.4585 84.616 80.6247 84.6452C81.1247 84.7452 81.4847 85.1652 81.4847 85.6752V90.7752H83.4447C83.9761 90.7738 84.5025 90.8774 84.9938 91.0798C85.4851 91.2822 85.9317 91.5796 86.3079 91.9549C86.6841 92.3302 86.9826 92.776 87.1862 93.2668C87.3899 93.7576 87.4947 94.2838 87.4947 94.8152V100.585C87.4921 101.656 87.0656 102.682 86.3085 103.439C85.5514 104.196 84.5254 104.623 83.4547 104.625H80.4447C80.3779 104.629 80.3108 104.626 80.2447 104.615L80.2547 104.625Z" fill="#333545"/>
<path fill-rule="evenodd" clip-rule="evenodd" d="M94.5447 92.7652C94.4324 92.7456 94.3187 92.7355 94.2047 92.7352C93.9452 92.7325 93.6879 92.7817 93.4476 92.8797C93.2074 92.9778 92.9892 93.1228 92.8057 93.3062C92.6223 93.4897 92.4772 93.7079 92.3792 93.9482C92.2811 94.1884 92.232 94.4458 92.2347 94.7052V100.715C92.2334 100.974 92.2834 101.231 92.3819 101.471C92.4805 101.71 92.6255 101.928 92.8087 102.111C92.9919 102.294 93.2096 102.439 93.4492 102.538C93.6888 102.636 93.9456 102.687 94.2047 102.685C94.7272 102.685 95.2282 102.478 95.5977 102.108C95.9671 101.739 96.1747 101.238 96.1747 100.715V94.7152C96.1747 93.7452 95.4847 92.9352 94.5447 92.7652ZM93.4947 104.715C92.5571 104.55 91.7079 104.06 91.0968 103.33C90.4857 102.6 90.1521 101.677 90.1547 100.725V94.7152C90.1529 94.1833 90.2573 93.6564 90.4616 93.1653C90.6659 92.6742 90.9661 92.2288 91.3447 91.8552C91.7202 91.4798 92.1661 91.1823 92.6569 90.9798C93.1477 90.7773 93.6737 90.6738 94.2047 90.6752C95.2762 90.6752 96.3037 91.1008 97.0614 91.8585C97.819 92.6161 98.2447 93.6437 98.2447 94.7152V100.725C98.2447 101.805 97.8247 102.825 97.0547 103.595C96.6807 103.97 96.2364 104.267 95.7474 104.469C95.2583 104.672 94.734 104.776 94.2047 104.775C93.9667 104.776 93.7291 104.756 93.4947 104.715ZM105.295 92.7752C105.182 92.7555 105.069 92.7455 104.955 92.7452C104.695 92.7425 104.438 92.7917 104.198 92.8897C103.957 92.9878 103.739 93.1328 103.556 93.3162C103.372 93.4997 103.227 93.7179 103.129 93.9582C103.031 94.1984 102.982 94.4558 102.985 94.7152V100.725C102.983 100.984 103.033 101.241 103.132 101.481C103.23 101.72 103.376 101.938 103.559 102.121C103.742 102.304 103.96 102.449 104.199 102.548C104.439 102.646 104.696 102.697 104.955 102.695C105.214 102.697 105.471 102.646 105.71 102.548C105.95 102.449 106.167 102.304 106.351 102.121C106.534 101.938 106.679 101.72 106.777 101.481C106.876 101.241 106.926 100.984 106.925 100.725V94.7152C106.925 93.7552 106.235 92.9452 105.295 92.7752ZM104.245 104.715C103.309 104.548 102.462 104.056 101.853 103.327C101.244 102.597 100.912 101.676 100.915 100.725V94.7152C100.916 94.1258 101.046 93.5439 101.296 93.0101C101.546 92.4763 101.909 92.0033 102.36 91.6244C102.812 91.2454 103.34 90.9695 103.909 90.8159C104.478 90.6623 105.074 90.6348 105.655 90.7352C106.592 90.8977 107.443 91.3861 108.056 92.1142C108.668 92.8424 109.005 93.7635 109.005 94.7152V100.725C109.006 101.259 108.9 101.788 108.694 102.281C108.488 102.774 108.186 103.221 107.805 103.595C107.431 103.97 106.986 104.267 106.497 104.469C106.008 104.672 105.484 104.776 104.955 104.775C104.715 104.775 104.475 104.755 104.245 104.715ZM112.515 104.755C112.275 104.715 112.057 104.59 111.901 104.402C111.745 104.215 111.661 103.979 111.665 103.735V85.6852C111.665 85.4052 111.765 85.1352 111.965 84.9452C112.083 84.8287 112.227 84.7425 112.385 84.6937C112.544 84.645 112.712 84.6352 112.875 84.6652C113.375 84.7452 113.745 85.1752 113.745 85.6852V96.3652L118.525 91.0052C118.765 90.7452 119.125 90.6252 119.485 90.6852C119.666 90.7156 119.836 90.794 119.977 90.9124C120.118 91.0308 120.225 91.1847 120.286 91.3583C120.347 91.5318 120.361 91.7186 120.325 91.8992C120.29 92.0798 120.207 92.2476 120.085 92.3852L116.475 96.4152L120.205 103.245C120.272 103.36 120.315 103.488 120.332 103.62C120.35 103.752 120.34 103.887 120.305 104.015C120.266 104.148 120.201 104.271 120.113 104.377C120.026 104.484 119.917 104.572 119.795 104.635C119.583 104.757 119.335 104.799 119.095 104.755C118.945 104.73 118.803 104.672 118.679 104.586C118.554 104.499 118.451 104.386 118.375 104.255L115.015 98.0752L113.735 99.4852V103.735C113.735 104.011 113.625 104.276 113.43 104.471C113.235 104.666 112.971 104.775 112.695 104.775C112.625 104.775 112.565 104.775 112.495 104.755H112.515ZM158.325 104.745C157.762 104.651 157.228 104.432 156.761 104.105C156.294 103.778 155.906 103.351 155.625 102.855C155.487 102.612 155.451 102.325 155.525 102.055C155.605 101.795 155.775 101.575 156.005 101.435C156.218 101.319 156.466 101.28 156.705 101.325C157.005 101.375 157.275 101.555 157.425 101.825C157.695 102.285 158.125 102.585 158.655 102.675C158.928 102.723 159.208 102.708 159.475 102.632C159.742 102.555 159.988 102.42 160.195 102.235C160.595 101.865 160.795 101.335 160.745 100.815C160.734 100.549 160.66 100.288 160.53 100.056C160.399 99.8229 160.216 99.624 159.995 99.4752L157.195 97.4852C156.738 97.1649 156.359 96.7478 156.082 96.2639C155.805 95.7799 155.639 95.2409 155.595 94.6852C155.559 94.1246 155.65 93.5631 155.864 93.0433C156.077 92.5235 156.405 92.0591 156.825 91.6852C157.234 91.3049 157.722 91.0205 158.255 90.8527C158.788 90.6849 159.351 90.638 159.905 90.7152C161.085 90.9152 162.045 91.5952 162.595 92.5552C162.727 92.7951 162.762 93.077 162.691 93.3418C162.62 93.6065 162.449 93.8335 162.215 93.9752C162.003 94.0969 161.755 94.1395 161.515 94.0952C161.365 94.0699 161.223 94.012 161.099 93.9256C160.974 93.8392 160.871 93.7264 160.795 93.5952C160.669 93.383 160.498 93.2013 160.294 93.063C160.09 92.9246 159.858 92.8332 159.615 92.7952C159.366 92.7501 159.109 92.7637 158.866 92.8348C158.623 92.906 158.4 93.0328 158.215 93.2052C158.034 93.3761 157.892 93.5847 157.801 93.8163C157.709 94.0478 157.67 94.2967 157.685 94.5452C157.705 95.0352 157.985 95.5152 158.405 95.7952L161.205 97.7452C161.68 98.078 162.073 98.5149 162.354 99.0227C162.635 99.5305 162.796 100.096 162.825 100.675C162.871 101.252 162.782 101.832 162.565 102.368C162.348 102.904 162.009 103.383 161.575 103.765C161.152 104.158 160.648 104.451 160.098 104.624C159.547 104.797 158.966 104.845 158.395 104.765L158.315 104.745H158.325ZM166.355 104.775C166.114 104.733 165.897 104.608 165.74 104.421C165.582 104.235 165.496 103.999 165.495 103.755V85.7052C165.493 85.5683 165.519 85.4324 165.571 85.3056C165.623 85.1788 165.699 85.0637 165.796 84.9668C165.893 84.87 166.008 84.7934 166.135 84.7416C166.262 84.6898 166.398 84.6639 166.535 84.6652L166.735 84.6752C167.235 84.7752 167.575 85.1852 167.575 85.7052V90.8052H169.545C170.076 90.8039 170.602 90.9075 171.092 91.11C171.583 91.3126 172.029 91.6101 172.404 91.9855C172.78 92.361 173.077 92.8068 173.28 93.2976C173.482 93.7883 173.586 94.3143 173.585 94.8452V103.745C173.586 103.896 173.553 104.046 173.49 104.183C173.427 104.32 173.334 104.441 173.219 104.539C173.103 104.636 172.968 104.707 172.822 104.746C172.676 104.785 172.523 104.792 172.375 104.765C171.875 104.675 171.515 104.245 171.515 103.735V94.8352C171.515 94.577 171.464 94.3213 171.365 94.0828C171.265 93.8444 171.12 93.6279 170.937 93.4457C170.754 93.2636 170.537 93.1194 170.298 93.0215C170.059 92.9236 169.803 92.8739 169.545 92.8752H167.575V103.745C167.576 103.897 167.543 104.048 167.479 104.186C167.416 104.323 167.322 104.446 167.205 104.543C167.089 104.641 166.952 104.711 166.805 104.749C166.658 104.788 166.504 104.793 166.355 104.765V104.775ZM180.635 92.7852C180.351 92.7338 180.06 92.7454 179.782 92.8193C179.503 92.8932 179.245 93.0276 179.024 93.2128C178.804 93.398 178.627 93.6295 178.506 93.891C178.385 94.1524 178.323 94.4372 178.325 94.7252V100.735C178.323 100.993 178.373 101.249 178.471 101.488C178.569 101.727 178.713 101.945 178.895 102.128C179.077 102.311 179.294 102.456 179.532 102.555C179.771 102.654 180.026 102.705 180.285 102.705C180.805 102.705 181.305 102.505 181.675 102.135C181.86 101.952 182.007 101.734 182.106 101.494C182.206 101.253 182.256 100.995 182.255 100.735V94.7152C182.255 93.7552 181.575 92.9352 180.625 92.7752L180.635 92.7852ZM179.575 104.705C178.64 104.54 177.793 104.051 177.184 103.323C176.575 102.594 176.242 101.675 176.245 100.725V94.7152C176.245 94.125 176.374 93.542 176.623 93.0069C176.872 92.4718 177.235 91.9977 177.687 91.6176C178.138 91.2375 178.667 90.9607 179.237 90.8066C179.807 90.6524 180.403 90.6246 180.985 90.7252C181.924 90.888 182.776 91.3779 183.389 92.1081C184.002 92.8383 184.337 93.7618 184.335 94.7152V100.725C184.335 101.258 184.229 101.785 184.023 102.276C183.817 102.767 183.515 103.212 183.135 103.585C182.676 104.046 182.113 104.388 181.493 104.583C180.872 104.778 180.214 104.82 179.575 104.705Z" fill="#333545"/>
<path fill-rule="evenodd" clip-rule="evenodd" d="M123.24 84.6885C123.253 84.6425 123.256 84.5944 123.25 84.5471C123.244 84.4999 123.228 84.4543 123.204 84.413C123.177 84.369 123.141 84.3309 123.098 84.301C123.056 84.2711 123.008 84.25 122.958 84.2389C122.864 84.2213 122.767 84.2399 122.687 84.2912C122.607 84.3424 122.549 84.4223 122.526 84.5145C122.526 84.5326 122.12 86.1679 121.801 87.4115L121.794 87.4369L121.786 87.4115L121.061 84.5181C121.047 84.4475 121.012 84.3829 120.96 84.3329C120.908 84.283 120.842 84.2502 120.771 84.2389C120.75 84.2347 120.728 84.2323 120.706 84.2317C120.539 84.2317 120.394 84.3477 120.347 84.5145C120.343 84.5326 119.937 86.1679 119.622 87.4115L119.615 87.4369L119.607 87.4115C119.299 86.1679 118.882 84.5326 118.882 84.5145C118.865 84.4451 118.828 84.3821 118.776 84.3332C118.724 84.2843 118.659 84.2516 118.589 84.2389C118.528 84.2283 118.466 84.2328 118.408 84.252C118.35 84.2713 118.297 84.3047 118.255 84.3493C118.213 84.3939 118.183 84.4482 118.167 84.5075C118.151 84.5667 118.15 84.6289 118.164 84.6885L119.256 89.0504C119.276 89.1303 119.323 89.2013 119.387 89.2523C119.452 89.3034 119.532 89.3318 119.615 89.3332C119.792 89.3332 119.934 89.2172 119.97 89.0504L120.695 86.1534L120.706 86.128L120.713 86.1534C121.032 87.4115 121.438 89.054 121.438 89.054C121.46 89.1324 121.506 89.2018 121.57 89.252C121.634 89.3022 121.712 89.3307 121.794 89.3332C121.877 89.3358 121.959 89.3089 122.025 89.2571C122.09 89.2054 122.136 89.1322 122.153 89.0504L123.24 84.6885Z" fill="#333545"/>
</g>
<g filter="url(#filter3_d_442_403)">
<rect x="140.681" y="4" width="61.6385" height="34.8076" rx="5.80127" fill="white"/>
</g>
<g clip-path="url(#clip4_442_403)">
<path d="M164.997 22.1203L164.733 22.8656H164.711C164.667 22.6976 164.587 22.4418 164.455 22.1349L163.041 18.5906H161.657V24.2395H162.573V20.7537C162.573 20.5345 162.573 20.286 162.565 19.9791C162.558 19.8256 162.543 19.7087 162.536 19.621H162.558C162.602 19.8402 162.653 20.001 162.69 20.1033L164.389 24.2249H165.033L166.718 20.0668C166.754 19.9718 166.791 19.7818 166.828 19.621H166.85C166.828 20.0375 166.813 20.4102 166.806 20.6368V24.2176H167.78V18.576H166.447L164.997 22.1203ZM168.702 20.1691H169.654V24.2176H168.702V20.1691ZM169.186 18.459C169.025 18.459 168.893 18.5175 168.783 18.6198C168.673 18.7221 168.615 18.8537 168.615 19.0144C168.615 19.1679 168.673 19.2994 168.783 19.4017C168.893 19.5041 169.025 19.5552 169.186 19.5552C169.347 19.5552 169.486 19.4968 169.589 19.4017C169.698 19.2994 169.757 19.1679 169.757 19.0144C169.757 18.861 169.698 18.7294 169.589 18.6198C169.493 18.5175 169.354 18.459 169.186 18.459ZM173.031 20.1325C172.855 20.096 172.672 20.0741 172.496 20.0741C172.064 20.0741 171.668 20.1691 171.339 20.3591C171.009 20.5491 170.746 20.8122 170.577 21.141C170.402 21.4772 170.314 21.8645 170.314 22.3103C170.314 22.6976 170.402 23.041 170.57 23.3553C170.738 23.6622 170.973 23.9107 171.288 24.0787C171.588 24.2468 171.939 24.3345 172.335 24.3345C172.789 24.3345 173.177 24.2395 173.485 24.0641L173.492 24.0568V23.1799L173.455 23.2091C173.316 23.3114 173.155 23.3991 172.994 23.4503C172.826 23.5087 172.672 23.538 172.54 23.538C172.159 23.538 171.859 23.4283 171.647 23.1872C171.427 22.9533 171.317 22.6318 171.317 22.2299C171.317 21.8133 171.427 21.4845 171.654 21.2433C171.881 21.0022 172.181 20.8779 172.547 20.8779C172.855 20.8779 173.17 20.9802 173.455 21.1849L173.492 21.2141V20.286L173.485 20.2787C173.36 20.2275 173.221 20.1691 173.031 20.1325ZM176.173 20.1033C175.938 20.1033 175.718 20.1764 175.528 20.3298C175.367 20.4614 175.257 20.6514 175.162 20.8779H175.155V20.1691H174.202V24.2176H175.155V22.1495C175.155 21.7987 175.228 21.5064 175.389 21.2945C175.55 21.0752 175.755 20.9656 176.004 20.9656C176.092 20.9656 176.18 20.9875 176.29 21.0022C176.392 21.0314 176.465 21.0606 176.517 21.0972L176.553 21.1264V20.1764L176.531 20.1691C176.465 20.1252 176.334 20.1033 176.173 20.1033ZM178.765 20.0814C178.099 20.0814 177.564 20.2787 177.191 20.666C176.81 21.0533 176.627 21.5868 176.627 22.2591C176.627 22.8876 176.817 23.3991 177.183 23.7718C177.549 24.1372 178.047 24.3272 178.67 24.3272C179.322 24.3272 179.842 24.1299 180.215 23.7353C180.596 23.3407 180.779 22.8145 180.779 22.1641C180.779 21.521 180.603 21.0095 180.244 20.6368C179.9 20.2641 179.395 20.0814 178.765 20.0814ZM179.527 23.1945C179.351 23.421 179.073 23.5307 178.728 23.5307C178.384 23.5307 178.106 23.421 177.908 23.1799C177.71 22.9533 177.615 22.6245 177.615 22.2079C177.615 21.7768 177.718 21.4479 177.908 21.2141C178.106 20.9802 178.377 20.8633 178.721 20.8633C179.058 20.8633 179.322 20.9729 179.512 21.1995C179.703 21.426 179.805 21.7549 179.805 22.186C179.79 22.6245 179.71 22.968 179.527 23.1945ZM182.903 21.8499C182.603 21.7256 182.412 21.6306 182.324 21.5502C182.251 21.4772 182.215 21.3749 182.215 21.2433C182.215 21.1337 182.258 21.0241 182.368 20.951C182.478 20.8779 182.603 20.8414 182.786 20.8414C182.947 20.8414 183.115 20.8706 183.276 20.9145C183.438 20.9583 183.584 21.0241 183.701 21.1118L183.738 21.141V20.2495L183.716 20.2421C183.606 20.1983 183.46 20.1545 183.284 20.1179C183.108 20.0887 182.947 20.0741 182.815 20.0741C182.361 20.0741 181.987 20.1837 181.695 20.4248C181.402 20.6514 181.262 20.9583 181.262 21.3164C181.262 21.5064 181.292 21.6745 181.358 21.8133C181.424 21.9522 181.519 22.0837 181.651 22.1933C181.782 22.2956 181.973 22.4126 182.236 22.5222C182.456 22.6172 182.625 22.6903 182.727 22.7487C182.83 22.8072 182.896 22.873 182.947 22.9241C182.983 22.9826 183.005 23.0556 183.005 23.1507C183.005 23.421 182.8 23.5526 182.383 23.5526C182.222 23.5526 182.053 23.5233 181.856 23.4576C181.658 23.3918 181.475 23.2968 181.321 23.1872L181.284 23.158V24.086L181.306 24.0934C181.446 24.1591 181.614 24.203 181.819 24.2541C182.024 24.2907 182.207 24.3199 182.368 24.3199C182.859 24.3199 183.262 24.2103 183.547 23.9691C183.84 23.7353 183.994 23.4357 183.994 23.0483C183.994 22.778 183.921 22.5368 183.76 22.3541C183.547 22.1787 183.284 21.996 182.903 21.8499ZM186.506 20.0814C185.84 20.0814 185.305 20.2787 184.932 20.666C184.558 21.0533 184.368 21.5868 184.368 22.2591C184.368 22.8876 184.558 23.3991 184.924 23.7718C185.29 24.1372 185.788 24.3272 186.411 24.3272C187.063 24.3272 187.583 24.1299 187.956 23.7353C188.337 23.3407 188.52 22.8145 188.52 22.1641C188.52 21.521 188.344 21.0095 187.986 20.6368C187.641 20.2641 187.136 20.0814 186.506 20.0814ZM187.26 23.1945C187.085 23.421 186.806 23.5307 186.462 23.5307C186.111 23.5307 185.84 23.421 185.642 23.1799C185.444 22.9533 185.349 22.6245 185.349 22.2079C185.349 21.7768 185.452 21.4479 185.642 21.2141C185.84 20.9802 186.111 20.8633 186.455 20.8633C186.784 20.8633 187.055 20.9729 187.246 21.1995C187.436 21.426 187.539 21.7549 187.539 22.186C187.539 22.6245 187.444 22.968 187.26 23.1945ZM193.61 20.951V20.1691H192.651V18.9706L192.621 18.9779L191.713 19.2483L191.691 19.2556V20.1691H190.256V19.6575C190.256 19.4237 190.314 19.241 190.417 19.1241C190.519 19.0071 190.673 18.9487 190.864 18.9487C190.996 18.9487 191.135 18.9779 191.288 19.0437L191.325 19.0656V18.2398L191.303 18.2325C191.171 18.1887 190.996 18.1594 190.768 18.1594C190.483 18.1594 190.234 18.2252 190.007 18.3348C189.78 18.459 189.611 18.6271 189.487 18.8537C189.362 19.0729 189.296 19.3214 189.296 19.6064V20.1691H188.63V20.9437H189.296V24.2176H190.256V20.951H191.691V23.0337C191.691 23.8887 192.094 24.3199 192.9 24.3199C193.031 24.3199 193.171 24.298 193.302 24.2761C193.442 24.2468 193.544 24.2103 193.603 24.1811L193.61 24.1737V23.3918L193.573 23.421C193.515 23.4576 193.464 23.4868 193.376 23.5087C193.302 23.5307 193.237 23.538 193.185 23.538C192.995 23.538 192.863 23.4941 192.768 23.3845C192.68 23.2822 192.636 23.1141 192.636 22.8656V20.951H193.61Z" fill="#737373"/>
<path d="M149.383 16.6904H153.872V21.1701H149.383V16.6904Z" fill="#F25022"/>
<path d="M154.341 16.6904H158.83V21.1701H154.341V16.6904Z" fill="#7FBA00"/>
<path d="M149.383 21.6377H153.872V26.1174H149.383V21.6377Z" fill="#00A4EF"/>
<path d="M154.341 21.6377H158.83V26.1174H154.341V21.6377Z" fill="#FFB900"/>
</g>
<g filter="url(#filter4_d_442_403)">
<rect x="140.681" y="47.5095" width="61.6385" height="34.8076" rx="5.80127" fill="white"/>
</g>
<g clip-path="url(#clip5_442_403)">
<path d="M180.334 70.0263L183.357 66.6773L180.334 63.3279H183.524L185.022 64.9548L186.464 63.3279H189.543L186.534 66.6635L189.584 70.0263H186.381L184.897 68.386L183.427 70.0263H180.334Z" fill="#FF6600"/>
<path d="M180.334 61.8265H176.909V63.328H180.334V65.591H176.909V67.6681H180.334V70.0264H174.392V59.4746H180.334V61.8265Z" fill="#FF6600"/>
<path d="M171.886 59.4746V63.7929H171.858C171.303 63.1642 170.61 62.9457 169.805 62.9457C168.157 62.9457 166.916 64.0499 166.48 65.5098C165.984 63.9012 164.702 62.9156 162.802 62.9156C161.259 62.9156 160.04 63.5984 159.404 64.711V63.3282H156.214V61.8268H159.695V59.4746H153.371V70.0266H156.214V65.591H159.048C158.964 65.9168 158.919 66.2657 158.919 66.6338C158.919 68.8349 160.625 70.3793 162.802 70.3793C164.633 70.3793 165.839 69.5321 166.477 67.9876H164.04C163.711 68.4516 163.461 68.5894 162.802 68.5894C162.038 68.5894 161.379 67.9322 161.379 67.1533H166.341C166.556 68.9016 167.937 70.4093 169.833 70.4093C170.651 70.4093 171.4 70.0128 171.858 69.3432H171.886V70.0263H174.392V59.4746H171.886ZM161.458 65.6225C161.616 64.9523 162.143 64.5143 162.802 64.5143C163.527 64.5143 164.027 64.9388 164.159 65.6225C164.214 65.6225 161.458 65.6225 161.458 65.6225ZM170.364 68.4199C169.44 68.4199 168.866 67.5713 168.866 66.6852C168.866 65.7381 169.366 64.8274 170.364 64.8274C171.4 64.8274 171.813 65.7381 171.813 66.6852C171.812 67.5834 171.375 68.4199 170.364 68.4199Z" fill="#652C8F"/>
</g>
<g filter="url(#filter5_d_442_403)">
<rect x="140.681" y="91.019" width="61.6385" height="34.8076" rx="5.80127" fill="white"/>
</g>
<g clip-path="url(#clip6_442_403)">
<path d="M165.229 106.958V107.533H165.247C165.455 107.225 165.8 106.862 166.564 106.862C167.159 106.862 167.616 107.164 167.811 107.62H167.829C167.996 107.389 168.188 107.215 168.402 107.091C168.656 106.945 168.939 106.861 169.295 106.861C170.1 106.861 170.813 107.383 170.813 108.699V111.195H169.585V108.873C169.585 108.206 169.344 107.821 168.841 107.821C168.473 107.821 168.205 108.052 168.104 108.338C168.068 108.436 168.052 108.569 168.052 108.681V111.196H166.824V108.779C166.824 108.213 166.592 107.819 166.096 107.819C165.699 107.819 165.451 108.112 165.349 108.363C165.305 108.47 165.292 108.593 165.292 108.709V111.195H164.062V106.958H165.229ZM177.151 106.958V107.757H177.185C177.411 107.146 177.946 106.862 178.416 106.862C178.534 106.862 178.599 106.871 178.695 106.889V107.999C178.582 107.984 178.477 107.968 178.331 107.968C177.798 107.968 177.427 108.259 177.334 108.713C177.313 108.807 177.306 108.909 177.306 109.026V111.196H176.046V106.958H177.151ZM180.406 105.554V106.888H181.471V107.967H180.406V109.56C180.406 110.075 180.546 110.325 180.962 110.325C181.157 110.325 181.301 110.302 181.426 110.272L181.443 111.167C181.275 111.226 180.92 111.289 180.558 111.289C180.133 111.289 179.779 111.151 179.563 110.936C179.315 110.69 179.201 110.288 179.201 109.715V105.554H180.406ZM163.207 111.195H161.984V105.554H163.207V111.195ZM159.947 109.682C159.947 109.759 159.94 109.841 159.917 109.911C159.822 110.205 159.497 110.453 159.092 110.453C158.754 110.453 158.485 110.274 158.485 109.893C158.485 109.311 159.17 109.15 159.948 109.153V109.682H159.947ZM161.168 108.667C161.168 107.706 160.73 106.862 159.251 106.862C158.492 106.862 157.889 107.062 157.56 107.24L157.8 108.012C158.101 107.833 158.58 107.687 159.034 107.687C159.785 107.686 159.907 108.085 159.907 108.341V108.402C158.27 108.4 157.237 108.931 157.237 110.013C157.237 110.673 157.762 111.292 158.678 111.292C159.242 111.292 159.712 111.082 159.994 110.745H160.021C160.021 110.745 160.209 111.476 161.238 111.196C161.184 110.891 161.166 110.566 161.166 110.176V108.667H161.168ZM151.096 105.554C151.222 106.151 151.58 107.884 151.58 107.884C151.731 108.597 151.87 109.344 151.974 109.935H151.993C152.095 109.307 152.256 108.713 152.427 107.977L153.031 105.554H154.369L154.934 108.04C155.082 108.731 155.201 109.264 155.294 109.907H155.312C155.414 109.258 155.547 108.703 155.692 107.993L156.236 105.554H157.519L155.929 111.195C154.915 111.403 154.527 111.021 154.388 110.415C154.25 109.808 153.978 108.653 153.978 108.653C153.838 108.021 153.729 107.575 153.653 106.926H153.634C153.526 107.569 153.412 108.019 153.243 108.652L152.576 111.196C151.541 111.39 151.182 111.104 150.984 110.326C150.813 109.66 149.745 105.555 149.745 105.555H151.096V105.554ZM174.008 109.682C174.008 109.759 174.001 109.841 173.978 109.911C173.883 110.205 173.559 110.453 173.154 110.453C172.816 110.453 172.547 110.274 172.547 109.893C172.547 109.311 173.231 109.15 174.01 109.153V109.682H174.008ZM175.229 108.667C175.229 107.706 174.792 106.862 173.313 106.862C172.553 106.862 171.95 107.062 171.622 107.24L171.862 108.012C172.162 107.833 172.642 107.687 173.095 107.687C173.845 107.686 173.969 108.085 173.969 108.341V108.402C172.333 108.4 171.3 108.931 171.3 110.013C171.3 110.673 171.827 111.292 172.741 111.292C173.303 111.292 173.775 111.082 174.056 110.745H174.084C174.084 110.745 174.272 111.476 175.301 111.196C175.247 110.891 175.229 110.566 175.229 110.176V108.667Z" fill="#041E42"/>
<path d="M186.427 109.252C186.547 109.458 186.539 109.688 186.41 109.793L184.187 111.323C183.956 111.455 183.609 111.295 183.413 110.962C183.215 110.627 183.25 110.253 183.482 110.121L185.943 108.997C186.098 108.939 186.306 109.046 186.427 109.252ZM189.353 109.252C189.474 109.046 189.682 108.94 189.836 108.996L192.299 110.12C192.53 110.252 192.564 110.625 192.368 110.96C192.17 111.294 191.822 111.452 191.592 111.322L189.369 109.792C189.242 109.688 189.232 109.457 189.353 109.252ZM187.889 110.082C188.131 110.082 188.33 110.204 188.357 110.365L188.597 113.02C188.597 113.284 188.284 113.499 187.89 113.499C187.498 113.499 187.183 113.284 187.183 113.02L187.422 110.365C187.449 110.204 187.648 110.082 187.889 110.082ZM189.369 107.054L191.592 105.523C191.822 105.391 192.17 105.549 192.368 105.884C192.564 106.219 192.53 106.593 192.299 106.724L189.836 107.85C189.682 107.906 189.473 107.799 189.353 107.593C189.232 107.387 189.242 107.157 189.369 107.054ZM185.943 107.85L183.482 106.724C183.251 106.593 183.216 106.219 183.413 105.884C183.609 105.549 183.957 105.391 184.187 105.523L186.41 107.054C186.539 107.156 186.547 107.387 186.427 107.593C186.306 107.799 186.098 107.906 185.943 107.85ZM187.422 106.481L187.183 103.825C187.183 103.562 187.496 103.347 187.89 103.347C188.284 103.347 188.597 103.562 188.597 103.825L188.357 106.481C188.33 106.64 188.131 106.764 187.889 106.764C187.648 106.764 187.449 106.64 187.422 106.481ZM192.969 111.312V111.246H193.03C193.05 111.246 193.064 111.259 193.064 111.279C193.064 111.298 193.05 111.312 193.03 111.312H192.969ZM192.919 111.433C192.919 111.44 192.924 111.447 192.932 111.447H192.958C192.965 111.447 192.972 111.44 192.972 111.433V111.358H193.014L193.048 111.437C193.05 111.443 193.054 111.447 193.06 111.447H193.091C193.1 111.447 193.107 111.437 193.103 111.428C193.091 111.404 193.079 111.379 193.067 111.354C193.087 111.347 193.118 111.327 193.118 111.279C193.118 111.229 193.076 111.199 193.034 111.199H192.932C192.926 111.199 192.919 111.206 192.919 111.213V111.433ZM192.809 111.323C192.809 111.215 192.899 111.128 193.008 111.128C193.118 111.128 193.207 111.214 193.207 111.323C193.207 111.431 193.119 111.518 193.008 111.518C192.897 111.518 192.809 111.431 192.809 111.323ZM192.762 111.323C192.762 111.456 192.872 111.565 193.008 111.565C193.144 111.565 193.255 111.456 193.255 111.323C193.255 111.19 193.144 111.081 193.008 111.081C192.872 111.081 192.762 111.19 192.762 111.323Z" fill="#FFC124"/>
</g>
<g filter="url(#filter6_d_442_403)">
<rect x="211.021" y="25.7549" width="61.6385" height="34.8076" rx="5.80127" fill="white"/>
</g>
<g clip-path="url(#clip7_442_403)">
<path d="M251.653 48.4669C254.546 48.4669 256.9 46.0751 256.9 43.1356C256.9 40.1943 254.546 37.8042 251.653 37.8042C248.76 37.8042 246.407 40.1943 246.407 43.1356C246.407 46.0751 248.76 48.4669 251.653 48.4669ZM251.653 41.2345C252.684 41.2345 253.524 42.0873 253.524 43.135C253.524 44.1827 252.684 45.0343 251.653 45.0343C250.621 45.0343 249.783 44.1827 249.783 43.1344C249.783 42.0855 250.622 41.2333 251.653 41.2333L251.653 41.2345ZM231.859 48.4669C234.751 48.4669 237.105 46.0751 237.105 43.1356C237.105 40.1943 234.751 37.8042 231.859 37.8042C228.966 37.8042 226.612 40.1943 226.612 43.1356C226.612 46.0751 228.966 48.4669 231.859 48.4669ZM231.859 41.2345C232.89 41.2345 233.729 42.0873 233.729 43.135C233.729 44.1827 232.89 45.0343 231.859 45.0343C230.828 45.0343 229.989 44.1827 229.989 43.1344C229.989 42.0855 230.828 41.2333 231.859 41.2333V41.2345ZM241.753 41.1144L240.142 37.8738H236.371L239.893 44.963V48.3004H243.613V44.963L247.136 37.8738H243.363L241.754 41.1144H241.753Z" fill="#EE2E24"/>
</g>
<g filter="url(#filter7_d_442_403)">
<rect x="211.021" y="69.2644" width="61.6385" height="34.8076" rx="5.80127" fill="white"/>
</g>
<g clip-path="url(#clip8_442_403)">
<path fill-rule="evenodd" clip-rule="evenodd" d="M255.392 86.248L253.131 90.1763L251.201 90.184L255.392 82.7901L259.568 90.184H257.608L255.392 86.2476V86.248ZM249.303 88.4739H251.464L250.46 90.184H247.644L247.651 88.1017V82.8355H249.311L249.303 88.4739H249.303ZM243.376 82.8359C245.437 82.8436 247.104 84.4847 247.096 86.5134C247.088 88.5348 245.421 90.1763 243.36 90.1763C241.308 90.1686 239.641 88.5274 239.641 86.4984C239.648 84.477 241.315 82.8359 243.376 82.8359ZM243.368 88.4666C244.472 88.4666 245.359 87.5925 245.359 86.5134C245.367 85.4347 244.472 84.5529 243.376 84.5529C242.28 84.5452 241.385 85.427 241.385 86.5061C241.377 87.5848 242.272 88.4666 243.368 88.4666H243.368ZM236.569 85.9298C236.546 85.6254 236.469 85.2228 236.353 84.8357C236.115 84.036 235.7 83.3008 235.141 82.6849C234.848 82.3659 234.516 82.0693 234.022 81.7199C233.645 81.5323 233.274 81.3321 232.911 81.1196C232.672 80.9829 232.386 80.8153 232.008 80.694C231.56 80.5873 231.102 80.5288 230.642 80.5194C230.195 80.504 229.746 80.5426 229.314 80.6258C228.859 80.7017 228.481 80.823 227.979 80.9447C226.844 81.4386 225.965 82.1833 225.208 83.1714C222.569 86.8871 224.954 92.0925 229.361 92.7077C230.086 92.8067 230.812 92.7686 231.498 92.6091L231.985 92.48C232 92.4723 232.023 92.4646 232.038 92.4646L232.594 92.2519C232.625 92.2365 232.648 92.2288 232.679 92.2138L232.911 92.1075C233.355 91.8864 233.772 91.6136 234.153 91.2946C233.806 91.6126 233.429 91.895 233.026 92.1379L233.049 92.1533C233.127 92.1302 233.196 92.1075 233.273 92.0925C233.273 92.0925 233.273 92.2138 233.258 92.1911C233.135 92.2824 233.328 92.1988 233.574 92.0693C233.822 91.9403 234.061 91.7804 234.277 91.5982C234.593 91.3324 234.871 91.0434 235.265 90.5727C235.666 89.8658 236.168 89.2501 236.399 88.4219C236.477 88.2015 236.546 87.9434 236.592 87.6772C236.638 87.4114 236.67 87.1379 236.67 86.8566C236.662 86.5754 236.631 86.2865 236.569 85.9298ZM230.858 92.1761C232.208 91.963 233.343 91.211 234.269 90.1851C234.524 89.8126 234.724 89.4705 234.971 89.0984C235.28 88.3383 235.257 87.6622 235.357 87.1837C235.481 86.3169 235.187 85.6181 234.941 84.8734C234.562 84.007 234.061 83.3614 233.181 82.8598C230.958 81.4768 227.933 81.8639 226.49 83.9311C226.482 83.9311 226.443 83.9843 226.366 84.0906C226.466 83.6653 226.721 83.4145 226.976 83.1711C227.732 82.5481 228.612 82.0539 229.615 81.8112C230.75 81.6894 231.876 81.8112 232.887 82.305C234.4 83.1711 235.404 84.5317 235.658 86.142V87.6318C235.342 90.0711 233.258 91.9253 230.858 92.1761ZM236.407 86.6286C236.353 83.0574 232.826 80.6485 229.391 81.1351C228.388 81.3855 227.292 81.887 226.513 82.5863C226.134 82.8367 225.957 83.3005 225.579 83.6726C224.066 85.8993 224.329 88.749 226.211 90.4818C226.453 90.7225 226.711 90.946 226.983 91.1505C225.409 90.2002 224.699 88.7636 224.452 87.0165C224.452 86.3932 224.575 85.7776 224.706 85.1547C225.587 82.4264 228.357 80.4432 231.375 80.9447C231.877 81.0665 232.378 81.1955 232.888 81.3173C233.521 81.5677 234.146 81.9402 234.648 82.4345C235.149 82.928 235.528 83.5513 235.906 84.1665C236.16 84.6608 236.284 85.2837 236.407 85.7776C236.43 86.0588 236.43 86.3477 236.407 86.629L236.407 86.6286Z" fill="black"/>
<path fill-rule="evenodd" clip-rule="evenodd" d="M233.274 86.6822C233.274 88.2174 231.993 89.4636 230.41 89.4636C228.829 89.4636 227.547 88.2174 227.547 86.6822C227.547 85.1474 228.828 83.9011 230.41 83.9011C231.993 83.9011 233.274 85.1474 233.274 86.6826V86.6822Z" fill="white"/>
<path fill-rule="evenodd" clip-rule="evenodd" d="M233.289 86.2108C233.251 85.9982 233.189 85.831 233.127 85.5956C232.88 85.0786 232.517 84.676 232.039 84.3339C230.248 83.1412 227.786 84.2885 227.524 86.3253C227.424 87.1308 227.709 87.9059 228.219 88.4988C228.064 88.3389 227.895 88.1721 227.779 87.9818L227.764 87.9972C227.779 88.0427 227.841 88.0731 227.856 88.1185C227.856 88.1185 227.794 88.1186 227.81 88.1108C227.764 88.0581 227.802 88.1417 227.871 88.2553C227.933 88.3693 228.011 88.4761 228.103 88.5747C228.234 88.7191 228.373 88.8482 228.605 89.0231C228.945 89.1976 229.245 89.4257 229.639 89.532C229.747 89.5628 229.87 89.5929 229.994 89.6156C230.125 89.6387 230.249 89.6464 230.388 89.6464C230.519 89.6464 230.658 89.631 230.828 89.6002C231.002 89.5794 231.175 89.544 231.344 89.4942C231.722 89.3796 232.07 89.1823 232.363 88.9164C232.51 88.78 232.719 88.6051 232.88 88.377C233.012 88.1189 233.027 87.9895 233.089 87.8755C233.151 87.7614 233.228 87.6324 233.282 87.4575C233.326 87.25 233.352 87.0389 233.359 86.8268C233.352 86.6142 233.336 86.4089 233.29 86.2112L233.289 86.2108ZM231.452 84.7978C231.715 84.9496 231.753 84.9723 231.614 84.8737C231.815 84.9191 231.939 85.0332 232.062 85.1472C232.363 85.4893 232.61 85.8919 232.733 86.3553C232.803 86.8796 232.749 87.4039 232.525 87.8678C232.124 88.5743 231.483 89.0454 230.719 89.1745C230.634 89.1745 230.542 89.1745 230.457 89.1822C230.673 89.1441 230.812 89.0073 231.205 88.8628C231.63 88.711 232.108 88.0045 232.34 87.5939C233.019 86.4767 232.216 85.4434 231.452 84.7978ZM230.001 89.1895C228.829 89.0682 227.925 88.1031 227.802 86.9859C227.91 87.6093 228.28 88.0877 228.782 88.5134C228.96 88.6275 229.222 88.7869 229.399 88.901C229.7 89.015 229.878 89.1367 230.171 89.1899H230.001V89.1895ZM233.158 87.1608C233.104 87.3966 233.05 87.6243 232.996 87.8601C232.88 88.149 232.71 88.4452 232.479 88.6806C232.247 88.9164 231.954 89.0986 231.661 89.2735C231.429 89.3949 231.136 89.4557 230.897 89.5162C230.758 89.5316 230.596 89.4707 230.457 89.4634C232.17 89.4176 233.343 87.8146 233.089 86.2262C232.965 85.7628 232.718 85.3598 232.417 84.9573C232.294 84.7824 232.054 84.676 231.877 84.5011C230.804 83.825 229.384 83.9618 228.574 84.8509C228.46 84.9678 228.354 85.0921 228.257 85.2231C228.689 84.5847 229.384 84.1367 230.217 84.0073C230.511 83.9996 230.812 84.0531 231.105 84.1063C232.402 84.5011 233.366 85.7628 233.158 87.1612V87.1608Z" fill="#D7DF23"/>
</g>
<g clip-path="url(#clip9_442_403)">
<g filter="url(#filter8_d_442_403)">
<rect x="281.362" y="47.5095" width="61.6385" height="34.8076" rx="5.80127" fill="white"/>
</g>
<g clip-path="url(#clip10_442_403)">
<path fill-rule="evenodd" clip-rule="evenodd" d="M316.858 68.1856C314.688 69.8348 311.542 70.7146 308.834 70.7146C305.036 70.7146 301.617 69.2666 299.031 66.8583C298.828 66.6689 299.01 66.4108 299.254 66.5583C302.045 68.2326 305.496 69.2398 309.061 69.2398C311.466 69.2398 314.11 68.727 316.542 67.6628C316.91 67.5019 317.217 67.9108 316.858 68.1856Z" fill="#FF9900"/>
<path fill-rule="evenodd" clip-rule="evenodd" d="M317.76 67.1213C317.484 66.7559 315.926 66.9486 315.227 67.0341C315.014 67.0609 314.982 66.8699 315.174 66.7324C316.414 65.8325 318.449 66.0922 318.687 66.3939C318.924 66.6972 318.625 68.8005 317.459 69.8044C317.281 69.9586 317.11 69.8765 317.19 69.672C317.451 68.9983 318.038 67.4883 317.76 67.1213Z" fill="#FF9900"/>
<path fill-rule="evenodd" clip-rule="evenodd" d="M315.276 60.379V59.5042C315.276 59.3718 315.374 59.283 315.491 59.283H319.29C319.412 59.283 319.509 59.3735 319.509 59.5042V60.2533C319.508 60.379 319.405 60.5433 319.223 60.803L317.255 63.7007C317.986 63.6823 318.758 63.7946 319.422 64.1801C319.571 64.2672 319.612 64.3946 319.623 64.5203V65.4538C319.623 65.5811 319.487 65.7303 319.343 65.6532C318.175 65.0214 316.622 64.9527 315.33 65.6599C315.198 65.7337 315.06 65.5862 315.06 65.4588V64.5722C315.06 64.4298 315.062 64.1868 315.2 63.9706L317.481 60.5986H315.496C315.374 60.5986 315.276 60.5097 315.276 60.379Z" fill="black"/>
<path fill-rule="evenodd" clip-rule="evenodd" d="M301.418 65.8375H300.262C300.151 65.8292 300.064 65.7437 300.055 65.6347V59.5193C300.055 59.3969 300.155 59.2997 300.278 59.2997H301.356C301.468 59.3047 301.558 59.3936 301.566 59.5042V60.3036H301.587C301.868 59.531 302.396 59.1707 303.108 59.1707C303.832 59.1707 304.284 59.531 304.609 60.3036C304.888 59.531 305.524 59.1707 306.205 59.1707C306.69 59.1707 307.22 59.3768 307.543 59.8394C307.909 60.3539 307.834 61.1013 307.834 61.7566L307.832 65.6163C307.832 65.7387 307.733 65.8375 307.61 65.8375H306.456C306.34 65.8292 306.247 65.7336 306.247 65.6163V62.375C306.247 62.117 306.27 61.4734 306.215 61.2287C306.129 60.8181 305.87 60.7025 305.535 60.7025C305.256 60.7025 304.963 60.8952 304.845 61.2036C304.726 61.5119 304.737 62.0281 304.737 62.375V65.6163C304.737 65.7387 304.638 65.8375 304.515 65.8375H303.36C303.243 65.8292 303.152 65.7336 303.152 65.6163L303.151 62.375C303.151 61.6929 303.26 60.6891 302.439 60.6891C301.608 60.6891 301.64 61.6678 301.64 62.375V65.6163C301.64 65.7387 301.541 65.8375 301.418 65.8375" fill="black"/>
<path fill-rule="evenodd" clip-rule="evenodd" d="M322.78 59.1707C324.495 59.1707 325.423 60.6891 325.423 62.6197C325.423 64.4851 324.398 65.9649 322.78 65.9649C321.096 65.9649 320.179 64.4465 320.179 62.5544C320.179 60.6505 321.107 59.1707 322.78 59.1707ZM322.79 60.4192C321.938 60.4192 321.884 61.6158 321.884 62.3616C321.884 63.1091 321.873 64.7046 322.78 64.7046C323.676 64.7046 323.718 63.4175 323.718 62.6331C323.718 62.117 323.697 61.5002 323.546 61.0108C323.416 60.5851 323.157 60.4192 322.79 60.4192Z" fill="black"/>
<path fill-rule="evenodd" clip-rule="evenodd" d="M327.647 65.8375H326.496C326.381 65.8292 326.288 65.7336 326.288 65.6163L326.286 59.4991C326.296 59.3869 326.392 59.2997 326.509 59.2997H327.581C327.681 59.3047 327.764 59.3751 327.787 59.4706V60.4058H327.808C328.132 59.5695 328.585 59.1707 329.383 59.1707C329.902 59.1707 330.407 59.3634 330.733 59.8913C331.035 60.3807 331.035 61.2036 331.035 61.7952V65.6448C331.022 65.7521 330.926 65.8375 330.812 65.8375H329.653C329.548 65.8292 329.46 65.7487 329.448 65.6448V62.3231C329.448 61.6544 329.523 60.6756 328.725 60.6756C328.444 60.6756 328.185 60.8701 328.057 61.165C327.894 61.5388 327.873 61.9108 327.873 62.3231V65.6163C327.871 65.7387 327.771 65.8375 327.647 65.8375" fill="black"/>
<path fill-rule="evenodd" clip-rule="evenodd" d="M312.248 62.9164C312.248 63.3807 312.259 63.7678 312.031 64.1801C311.848 64.5153 311.555 64.7214 311.232 64.7214C310.788 64.7214 310.528 64.3728 310.528 63.8583C310.528 62.8427 311.41 62.6583 312.248 62.6583V62.9164ZM313.413 65.8208C313.337 65.8912 313.226 65.8963 313.14 65.8493C312.756 65.5209 312.687 65.3683 312.477 65.0549C311.843 65.722 311.393 65.9214 310.572 65.9214C309.598 65.9214 308.842 65.303 308.842 64.0645C308.842 63.0974 309.349 62.4388 310.074 62.117C310.702 61.8321 311.578 61.7818 312.248 61.7031V61.5489C312.248 61.2656 312.269 60.9305 312.106 60.6858C311.966 60.4662 311.697 60.3757 311.458 60.3757C311.017 60.3757 310.625 60.6087 310.529 61.0913C310.51 61.1986 310.433 61.3042 310.328 61.3092L309.208 61.1852C309.113 61.1634 309.008 61.0846 309.035 60.9355C309.292 59.5344 310.521 59.1121 311.62 59.1121C312.183 59.1121 312.917 59.2662 313.361 59.7053C313.924 60.2467 313.87 60.969 313.87 61.755V63.612C313.87 64.17 314.094 64.4147 314.306 64.7164C314.379 64.8237 314.395 64.9527 314.301 65.0332C314.065 65.2359 313.646 65.613 313.415 65.8242L313.413 65.8208" fill="black"/>
<path fill-rule="evenodd" clip-rule="evenodd" d="M297.095 62.9167C297.095 63.3809 297.106 63.7681 296.879 64.1803C296.695 64.5155 296.404 64.7217 296.079 64.7217C295.635 64.7217 295.377 64.3731 295.377 63.8586C295.377 62.8429 296.259 62.6586 297.095 62.6586V62.9167ZM298.261 65.8211C298.184 65.8915 298.074 65.8965 297.988 65.8496C297.604 65.5211 297.536 65.3686 297.324 65.0552C296.69 65.7222 296.242 65.9216 295.419 65.9216C294.447 65.9216 293.689 65.3032 293.689 64.0647C293.689 63.0977 294.198 62.439 294.922 62.1173C295.549 61.8324 296.425 61.7821 297.095 61.7033V61.5491C297.095 61.2659 297.116 60.9307 296.955 60.686C296.814 60.4665 296.544 60.376 296.307 60.376C295.866 60.376 295.473 60.6089 295.377 61.0916C295.357 61.1988 295.281 61.3044 295.177 61.3095L294.055 61.1854C293.961 61.1637 293.857 61.0849 293.883 60.9357C294.141 59.5346 295.369 59.1123 296.468 59.1123C297.03 59.1123 297.765 59.2665 298.209 59.7056C298.771 60.2469 298.717 60.9692 298.717 61.7553V63.6122C298.717 64.1703 298.942 64.415 299.153 64.7166C299.228 64.8239 299.244 64.953 299.15 65.0334C298.914 65.2362 298.495 65.6133 298.264 65.8244L298.261 65.8211" fill="black"/>
</g>
</g>
<defs>
<filter id="filter0_d_442_403" x="-14.5032" y="43.8837" width="90.6448" height="63.814" filterUnits="userSpaceOnUse" color-interpolation-filters="sRGB">
<feFlood flood-opacity="0" result="BackgroundImageFix"/>
<feColorMatrix in="SourceAlpha" type="matrix" values="0 0 0 0 0 0 0 0 0 0 0 0 0 0 0 0 0 0 127 0" result="hardAlpha"/>
<feOffset dy="10.8774"/>
<feGaussianBlur stdDeviation="7.25159"/>
<feColorMatrix type="matrix" values="0 0 0 0 0.831373 0 0 0 0 0.85098 0 0 0 0 0.909804 0 0 0 0.2 0"/>
<feBlend mode="normal" in2="BackgroundImageFix" result="effect1_dropShadow_442_403"/>
<feBlend mode="normal" in="SourceGraphic" in2="effect1_dropShadow_442_403" result="shape"/>
</filter>
<filter id="filter1_d_442_403" x="55.8372" y="22.1291" width="90.6448" height="63.814" filterUnits="userSpaceOnUse" color-interpolation-filters="sRGB">
<feFlood flood-opacity="0" result="BackgroundImageFix"/>
<feColorMatrix in="SourceAlpha" type="matrix" values="0 0 0 0 0 0 0 0 0 0 0 0 0 0 0 0 0 0 127 0" result="hardAlpha"/>
<feOffset dy="10.8774"/>
<feGaussianBlur stdDeviation="7.25159"/>
<feColorMatrix type="matrix" values="0 0 0 0 0.831373 0 0 0 0 0.85098 0 0 0 0 0.909804 0 0 0 0.2 0"/>
<feBlend mode="normal" in2="BackgroundImageFix" result="effect1_dropShadow_442_403"/>
<feBlend mode="normal" in="SourceGraphic" in2="effect1_dropShadow_442_403" result="shape"/>
</filter>
<filter id="filter2_d_442_403" x="55.8371" y="65.6386" width="90.6448" height="63.814" filterUnits="userSpaceOnUse" color-interpolation-filters="sRGB">
<feFlood flood-opacity="0" result="BackgroundImageFix"/>
<feColorMatrix in="SourceAlpha" type="matrix" values="0 0 0 0 0 0 0 0 0 0 0 0 0 0 0 0 0 0 127 0" result="hardAlpha"/>
<feOffset dy="10.8774"/>
<feGaussianBlur stdDeviation="7.25159"/>
<feColorMatrix type="matrix" values="0 0 0 0 0.831373 0 0 0 0 0.85098 0 0 0 0 0.909804 0 0 0 0.2 0"/>
<feBlend mode="normal" in2="BackgroundImageFix" result="effect1_dropShadow_442_403"/>
<feBlend mode="normal" in="SourceGraphic" in2="effect1_dropShadow_442_403" result="shape"/>
</filter>
<filter id="filter3_d_442_403" x="126.178" y="0.374207" width="90.6448" height="63.814" filterUnits="userSpaceOnUse" color-interpolation-filters="sRGB">
<feFlood flood-opacity="0" result="BackgroundImageFix"/>
<feColorMatrix in="SourceAlpha" type="matrix" values="0 0 0 0 0 0 0 0 0 0 0 0 0 0 0 0 0 0 127 0" result="hardAlpha"/>
<feOffset dy="10.8774"/>
<feGaussianBlur stdDeviation="7.25159"/>
<feColorMatrix type="matrix" values="0 0 0 0 0.831373 0 0 0 0 0.85098 0 0 0 0 0.909804 0 0 0 0.2 0"/>
<feBlend mode="normal" in2="BackgroundImageFix" result="effect1_dropShadow_442_403"/>
<feBlend mode="normal" in="SourceGraphic" in2="effect1_dropShadow_442_403" result="shape"/>
</filter>
<filter id="filter4_d_442_403" x="126.178" y="43.8837" width="90.6448" height="63.814" filterUnits="userSpaceOnUse" color-interpolation-filters="sRGB">
<feFlood flood-opacity="0" result="BackgroundImageFix"/>
<feColorMatrix in="SourceAlpha" type="matrix" values="0 0 0 0 0 0 0 0 0 0 0 0 0 0 0 0 0 0 127 0" result="hardAlpha"/>
<feOffset dy="10.8774"/>
<feGaussianBlur stdDeviation="7.25159"/>
<feColorMatrix type="matrix" values="0 0 0 0 0.831373 0 0 0 0 0.85098 0 0 0 0 0.909804 0 0 0 0.2 0"/>
<feBlend mode="normal" in2="BackgroundImageFix" result="effect1_dropShadow_442_403"/>
<feBlend mode="normal" in="SourceGraphic" in2="effect1_dropShadow_442_403" result="shape"/>
</filter>
<filter id="filter5_d_442_403" x="126.178" y="87.3932" width="90.6448" height="63.814" filterUnits="userSpaceOnUse" color-interpolation-filters="sRGB">
<feFlood flood-opacity="0" result="BackgroundImageFix"/>
<feColorMatrix in="SourceAlpha" type="matrix" values="0 0 0 0 0 0 0 0 0 0 0 0 0 0 0 0 0 0 127 0" result="hardAlpha"/>
<feOffset dy="10.8774"/>
<feGaussianBlur stdDeviation="7.25159"/>
<feColorMatrix type="matrix" values="0 0 0 0 0.831373 0 0 0 0 0.85098 0 0 0 0 0.909804 0 0 0 0.2 0"/>
<feBlend mode="normal" in2="BackgroundImageFix" result="effect1_dropShadow_442_403"/>
<feBlend mode="normal" in="SourceGraphic" in2="effect1_dropShadow_442_403" result="shape"/>
</filter>
<filter id="filter6_d_442_403" x="196.518" y="22.1291" width="90.6448" height="63.814" filterUnits="userSpaceOnUse" color-interpolation-filters="sRGB">
<feFlood flood-opacity="0" result="BackgroundImageFix"/>
<feColorMatrix in="SourceAlpha" type="matrix" values="0 0 0 0 0 0 0 0 0 0 0 0 0 0 0 0 0 0 127 0" result="hardAlpha"/>
<feOffset dy="10.8774"/>
<feGaussianBlur stdDeviation="7.25159"/>
<feColorMatrix type="matrix" values="0 0 0 0 0.831373 0 0 0 0 0.85098 0 0 0 0 0.909804 0 0 0 0.2 0"/>
<feBlend mode="normal" in2="BackgroundImageFix" result="effect1_dropShadow_442_403"/>
<feBlend mode="normal" in="SourceGraphic" in2="effect1_dropShadow_442_403" result="shape"/>
</filter>
<filter id="filter7_d_442_403" x="196.518" y="65.6386" width="90.6448" height="63.814" filterUnits="userSpaceOnUse" color-interpolation-filters="sRGB">
<feFlood flood-opacity="0" result="BackgroundImageFix"/>
<feColorMatrix in="SourceAlpha" type="matrix" values="0 0 0 0 0 0 0 0 0 0 0 0 0 0 0 0 0 0 127 0" result="hardAlpha"/>
<feOffset dy="10.8774"/>
<feGaussianBlur stdDeviation="7.25159"/>
<feColorMatrix type="matrix" values="0 0 0 0 0.831373 0 0 0 0 0.85098 0 0 0 0 0.909804 0 0 0 0.2 0"/>
<feBlend mode="normal" in2="BackgroundImageFix" result="effect1_dropShadow_442_403"/>
<feBlend mode="normal" in="SourceGraphic" in2="effect1_dropShadow_442_403" result="shape"/>
</filter>
<filter id="filter8_d_442_403" x="266.858" y="43.8837" width="90.6448" height="63.814" filterUnits="userSpaceOnUse" color-interpolation-filters="sRGB">
<feFlood flood-opacity="0" result="BackgroundImageFix"/>
<feColorMatrix in="SourceAlpha" type="matrix" values="0 0 0 0 0 0 0 0 0 0 0 0 0 0 0 0 0 0 127 0" result="hardAlpha"/>
<feOffset dy="10.8774"/>
<feGaussianBlur stdDeviation="7.25159"/>
<feColorMatrix type="matrix" values="0 0 0 0 0.831373 0 0 0 0 0.85098 0 0 0 0 0.909804 0 0 0 0.2 0"/>
<feBlend mode="normal" in2="BackgroundImageFix" result="effect1_dropShadow_442_403"/>
<feBlend mode="normal" in="SourceGraphic" in2="effect1_dropShadow_442_403" result="shape"/>
</filter>
<clipPath id="clip0_442_403">
<rect width="61.6385" height="34.8076" fill="white" transform="translate(0 47.5095)"/>
</clipPath>
<clipPath id="clip1_442_403">
<rect width="37.3457" height="11.6025" fill="white" transform="translate(12.3277 59.1121)"/>
</clipPath>
<clipPath id="clip2_442_403">
<rect width="34.445" height="11.6025" fill="white" transform="translate(84.1184 37.3574)"/>
</clipPath>
<clipPath id="clip3_442_403">
<rect width="44.5973" height="13.4154" fill="white" transform="translate(79.0421 80.1418)"/>
</clipPath>
<clipPath id="clip4_442_403">
<rect width="44.2347" height="9.42706" fill="white" transform="translate(149.383 16.6904)"/>
</clipPath>
<clipPath id="clip5_442_403">
<rect width="36.2579" height="10.8774" fill="white" transform="translate(153.371 59.4746)"/>
</clipPath>
<clipPath id="clip6_442_403">
<rect width="43.5095" height="10.1522" fill="white" transform="translate(149.745 103.347)"/>
</clipPath>
<clipPath id="clip7_442_403">
<rect width="30.4567" height="11.6025" fill="white" transform="translate(226.612 37.3574)"/>
</clipPath>
<clipPath id="clip8_442_403">
<rect width="35.5328" height="12.3277" fill="white" transform="translate(224.074 80.5044)"/>
</clipPath>
<clipPath id="clip9_442_403">
<rect width="61.6385" height="34.8076" fill="white" transform="translate(281.362 47.5095)"/>
</clipPath>
<clipPath id="clip10_442_403">
<rect width="37.3457" height="11.6025" fill="white" transform="translate(293.689 59.1121)"/>
</clipPath>
</defs>
</svg>
