<svg width="946" height="416" viewBox="0 0 946 416" fill="none" xmlns="http://www.w3.org/2000/svg">
<g clip-path="url(#clip0_22_110)">
<g filter="url(#filter0_d_22_110)">
<rect y="130" width="170" height="96" rx="16" fill="white"/>
</g>
<g clip-path="url(#clip1_22_110)">
<path d="M63.5262 184.679C63.3646 184.289 63.2132 183.879 63.0516 183.529L62.3043 181.859L62.274 181.829C60.0525 177.029 57.6794 172.149 55.165 167.349L55.064 167.149C54.8116 166.679 54.5591 166.159 54.2966 165.679C53.9734 165.109 53.6604 164.499 53.1454 163.919C52.6434 163.312 52.0116 162.823 51.2957 162.488C50.5797 162.152 49.7974 161.978 49.0052 161.978C48.213 161.978 47.4307 162.152 46.7148 162.488C45.9988 162.823 45.367 163.312 44.865 163.919C44.3904 164.499 44.037 165.109 43.7138 165.679C43.4614 166.199 43.2089 166.709 42.9464 167.179L42.8454 167.379C40.3714 172.179 37.958 177.059 35.7364 181.859L35.6758 181.919C35.4536 182.439 35.1911 182.979 34.9386 183.559C34.7771 183.909 34.6155 184.289 34.4539 184.709C34.0177 185.809 33.8784 187.002 34.0498 188.172C34.2211 189.341 34.6972 190.446 35.4311 191.378C36.1649 192.309 37.1313 193.035 38.2349 193.485C39.3384 193.934 40.5412 194.091 41.7245 193.939C42.859 193.791 43.9514 193.417 44.9357 192.839C46.2484 192.109 47.5107 191.049 48.9244 189.519C50.3381 191.049 51.6307 192.109 52.9131 192.849C54.1464 193.566 55.543 193.962 56.9726 193.999C58.628 194.006 60.23 193.419 61.4828 192.348C62.7357 191.276 63.5547 189.792 63.7887 188.169C64.0592 187.003 63.9677 185.783 63.5262 184.669V184.679ZM49.0254 186.339C47.2885 184.139 46.1576 182.119 45.7738 180.389C45.6149 179.748 45.5806 179.083 45.6729 178.429C45.7435 177.919 45.9354 177.469 46.198 177.089C46.8038 176.219 47.8641 175.679 49.0254 175.679C49.5769 175.663 50.1239 175.782 50.6174 176.026C51.1109 176.27 51.5354 176.632 51.8529 177.079C52.1154 177.479 52.3073 177.919 52.3679 178.429C52.4688 179.009 52.4284 179.679 52.2669 180.389C51.8832 182.089 50.7522 184.129 49.0254 186.339ZM61.8903 187.819C61.7756 188.643 61.4448 189.423 60.931 190.081C60.4172 190.739 59.7383 191.252 58.9619 191.569C58.1944 191.889 57.3462 191.979 56.5181 191.889C55.7103 191.789 54.9025 191.529 54.0744 191.049C52.6996 190.208 51.4633 189.162 50.4088 187.949C52.5294 185.349 53.8119 182.979 54.2966 180.869C54.5288 179.869 54.5591 178.969 54.4581 178.139C54.3321 177.352 54.0358 176.602 53.5897 175.939C53.0804 175.22 52.4005 174.637 51.6099 174.239C50.8193 173.842 49.9422 173.642 49.0557 173.659C47.1876 173.659 45.5214 174.519 44.5116 175.929C44.057 176.59 43.7632 177.347 43.6532 178.139C43.522 178.979 43.5523 179.909 43.8148 180.869C44.2995 182.979 45.6123 185.379 47.7026 187.969C46.666 189.205 45.4268 190.26 44.037 191.089C43.1988 191.569 42.4011 191.819 41.5932 191.919C40.3369 192.079 39.0679 191.74 38.0619 190.978C37.056 190.216 36.3944 189.092 36.2211 187.849C36.1201 187.049 36.1908 186.249 36.5139 185.349C36.6149 185.029 36.7664 184.709 36.928 184.329C37.1501 183.809 37.4127 183.269 37.6651 182.729L37.7055 182.659C39.8867 177.889 42.2698 173.019 44.7438 168.249L44.8448 168.049C45.0973 167.569 45.3497 167.059 45.6123 166.579C45.8748 166.069 46.1576 165.579 46.5211 165.179C46.8358 164.807 47.2289 164.508 47.673 164.303C48.117 164.098 48.601 163.991 49.091 163.991C49.5811 163.991 50.0651 164.098 50.5091 164.303C50.9531 164.508 51.3463 164.807 51.661 165.179C52.0144 165.579 52.3073 166.069 52.5698 166.579C52.8223 167.059 53.0747 167.579 53.3373 168.049L53.4382 168.249C55.9022 173.019 58.2853 177.889 60.5069 182.659L60.5372 182.689C60.7997 183.209 61.0219 183.789 61.2743 184.289C61.4359 184.679 61.5975 184.989 61.6984 185.319C61.8903 186.219 61.9913 187.019 61.8903 187.819ZM75.9468 186.119C75.1858 186.13 74.4322 185.971 73.7417 185.655C73.0512 185.338 72.4416 184.871 71.958 184.289C70.8716 183.049 70.2949 181.45 70.3424 179.809C70.3257 178.132 70.921 176.506 72.0186 175.229C72.5264 174.64 73.1584 174.168 73.8702 173.846C74.582 173.525 75.3564 173.362 76.1386 173.369C76.8747 173.349 77.6038 173.515 78.2574 173.851C78.911 174.187 79.4676 174.682 79.8749 175.289L79.9759 173.719H82.9245V185.799H79.9658L79.8648 184.039C79.4449 184.688 78.8645 185.219 78.1788 185.584C77.493 185.948 76.7247 186.132 75.9468 186.119ZM76.7142 183.239C77.2999 183.239 77.8149 183.079 78.2996 182.789C78.7439 182.469 79.1075 182.049 79.3902 181.539C79.6427 181.029 79.7739 180.419 79.7739 179.739C79.8133 179.149 79.6972 178.558 79.437 178.025C79.1768 177.492 78.7814 177.035 78.2895 176.699C77.8169 176.408 77.2711 176.253 76.7142 176.253C76.1573 176.253 75.6116 176.408 75.1389 176.699C74.6946 177.019 74.3311 177.439 74.0483 177.949C73.7813 178.512 73.6499 179.128 73.6646 179.749C73.6253 180.34 73.7413 180.93 74.0015 181.463C74.2617 181.996 74.6571 182.453 75.149 182.789C75.6236 183.079 76.1386 183.239 76.7142 183.239ZM87.9735 170.459C87.9735 170.809 87.9129 171.129 87.7514 171.389C87.5898 171.639 87.3677 171.869 87.0748 172.029C86.782 172.189 86.4689 172.249 86.1458 172.249C85.8227 172.249 85.4995 172.189 85.2067 172.029C84.9297 171.877 84.6968 171.656 84.5301 171.389C84.3737 171.104 84.297 170.783 84.3079 170.459C84.3079 170.099 84.3786 169.779 84.5301 169.529C84.6917 169.229 84.9239 169.049 85.2067 168.889C85.4995 168.729 85.8126 168.659 86.1458 168.659C86.4672 168.652 86.7851 168.727 87.0683 168.878C87.3515 169.029 87.5903 169.25 87.7615 169.519C87.9084 169.811 87.9812 170.133 87.9735 170.459ZM84.5402 185.759V173.699H87.7514V185.779H84.5301L84.5402 185.759ZM96.3347 176.859V176.899C96.1832 176.829 95.9813 176.799 95.8298 176.769C95.6278 176.729 95.4663 176.729 95.2744 176.729C94.3757 176.729 93.6991 176.989 93.2548 177.529C92.7701 178.079 92.548 178.849 92.548 179.839V185.769H89.3267V173.689H92.2854L92.3864 175.519C92.7095 174.879 93.0932 174.399 93.6385 174.039C94.1809 173.689 94.8195 173.515 95.4663 173.539C95.6985 173.539 95.9207 173.559 96.1126 173.599C96.2135 173.629 96.2741 173.629 96.3347 173.659V176.859ZM97.6273 185.759V168.739H100.838V175.239C101.293 174.659 101.808 174.209 102.454 173.859C103.477 173.362 104.64 173.222 105.753 173.459C106.867 173.697 107.868 174.299 108.594 175.169C109.683 176.412 110.259 178.015 110.209 179.659C110.226 181.336 109.631 182.962 108.533 184.239C108.025 184.829 107.393 185.301 106.682 185.622C105.97 185.943 105.195 186.106 104.413 186.099C103.677 186.119 102.948 185.953 102.294 185.618C101.641 185.282 101.084 184.787 100.677 184.179L100.576 185.749L97.6273 185.779V185.759ZM103.838 183.239C104.413 183.239 104.928 183.079 105.413 182.789C105.857 182.469 106.221 182.049 106.503 181.539C106.766 181.029 106.887 180.419 106.887 179.739C106.887 179.069 106.766 178.459 106.503 177.949C106.238 177.457 105.866 177.03 105.413 176.699C104.94 176.408 104.394 176.253 103.838 176.253C103.281 176.253 102.735 176.408 102.262 176.699C101.808 177.019 101.454 177.439 101.162 177.949C100.895 178.512 100.763 179.128 100.778 179.749C100.738 180.34 100.855 180.93 101.115 181.463C101.375 181.996 101.77 182.453 102.262 182.789C102.737 183.079 103.252 183.239 103.838 183.239ZM111.421 185.769V173.689H114.38L114.481 175.259C114.853 174.657 115.38 174.165 116.009 173.833C116.637 173.5 117.344 173.34 118.056 173.369C118.87 173.355 119.67 173.579 120.356 174.013C121.042 174.447 121.584 175.072 121.913 175.809C122.266 176.569 122.458 177.509 122.458 178.559V185.799H119.237V178.979C119.237 178.139 119.045 177.479 118.661 176.989C118.278 176.509 117.753 176.249 117.086 176.249C116.601 176.249 116.177 176.349 115.804 176.569C115.45 176.799 115.157 177.089 114.935 177.499C114.711 177.914 114.599 178.379 114.612 178.849V185.769H111.421ZM124.064 185.769V168.729H127.285V175.229C127.722 174.646 128.289 174.171 128.943 173.843C129.597 173.515 130.319 173.343 131.052 173.339C131.813 173.328 132.566 173.487 133.257 173.804C133.947 174.121 134.557 174.587 135.04 175.169C136.122 176.412 136.694 178.01 136.646 179.649C136.664 181.326 136.068 182.953 134.97 184.229C134.462 184.819 133.83 185.291 133.118 185.612C132.406 185.933 131.632 186.096 130.85 186.089C130.114 186.109 129.385 185.943 128.731 185.608C128.077 185.272 127.521 184.777 127.114 184.169L127.023 185.739L124.064 185.769ZM130.305 183.239C130.89 183.239 131.405 183.079 131.88 182.789C132.334 182.469 132.688 182.049 132.98 181.539C133.233 181.029 133.364 180.419 133.364 179.739C133.404 179.149 133.287 178.558 133.027 178.025C132.767 177.492 132.372 177.035 131.88 176.699C131.407 176.408 130.861 176.253 130.305 176.253C129.748 176.253 129.202 176.408 128.729 176.699C128.285 177.019 127.921 177.439 127.639 177.949C127.357 178.507 127.225 179.127 127.255 179.749C127.216 180.34 127.332 180.93 127.592 181.463C127.852 181.996 128.247 182.453 128.739 182.789C129.214 183.079 129.699 183.239 130.305 183.239Z" fill="#FF385C"/>
</g>
</g>
<g filter="url(#filter1_d_22_110)">
<rect x="194" y="70" width="170" height="96" rx="16" fill="white"/>
</g>
<g clip-path="url(#clip2_22_110)">
<path d="M272.427 118.41C272.427 122.852 268.938 126.125 264.656 126.125C260.374 126.125 256.885 122.852 256.885 118.41C256.885 113.937 260.374 110.696 264.656 110.696C268.938 110.696 272.427 113.937 272.427 118.41ZM269.025 118.41C269.025 115.635 267.003 113.736 264.656 113.736C262.309 113.736 260.287 115.635 260.287 118.41C260.287 121.158 262.309 123.085 264.656 123.085C267.003 123.085 269.025 121.155 269.025 118.41Z" fill="#EA4335"/>
<path d="M289.192 118.41C289.192 122.852 285.703 126.125 281.421 126.125C277.139 126.125 273.65 122.852 273.65 118.41C273.65 113.941 277.139 110.696 281.421 110.696C285.703 110.696 289.192 113.937 289.192 118.41ZM285.79 118.41C285.79 115.635 283.768 113.736 281.421 113.736C279.074 113.736 277.052 115.635 277.052 118.41C277.052 121.158 279.074 123.085 281.421 123.085C283.768 123.085 285.79 121.155 285.79 118.41Z" fill="#FBBC05"/>
<path d="M305.258 111.162V125.012C305.258 130.709 301.884 133.036 297.896 133.036C294.141 133.036 291.881 130.536 291.029 128.49L293.991 127.263C294.518 128.518 295.811 130 297.892 130C300.445 130 302.028 128.431 302.028 125.478V124.369H301.909C301.147 125.304 299.68 126.122 297.829 126.122C293.956 126.122 290.407 122.762 290.407 118.438C290.407 114.083 293.956 110.696 297.829 110.696C299.677 110.696 301.144 111.513 301.909 112.421H302.028V111.165H305.258V111.162ZM302.269 118.438C302.269 115.722 300.449 113.736 298.133 113.736C295.786 113.736 293.82 115.722 293.82 118.438C293.82 121.127 295.786 123.085 298.133 123.085C300.449 123.085 302.269 121.127 302.269 118.438Z" fill="#4285F4"/>
<path d="M310.585 103.043V125.652H307.267V103.043H310.585Z" fill="#34A853"/>
<path d="M323.514 120.95L326.155 122.703C325.303 123.958 323.249 126.122 319.7 126.122C315.3 126.122 312.013 122.734 312.013 118.407C312.013 113.819 315.328 110.692 319.32 110.692C323.34 110.692 325.306 113.878 325.949 115.6L326.302 116.476L315.946 120.748C316.739 122.296 317.972 123.085 319.7 123.085C321.433 123.085 322.634 122.236 323.514 120.95ZM315.387 118.174L322.309 115.311C321.929 114.348 320.783 113.676 319.435 113.676C317.706 113.676 315.3 115.196 315.387 118.174Z" fill="#EA4335"/>
<path d="M244.326 116.404V113.131H255.401C255.509 113.701 255.565 114.376 255.565 115.106C255.565 117.562 254.891 120.598 252.718 122.762C250.605 124.953 247.906 126.122 244.329 126.122C237.7 126.122 232.126 120.744 232.126 114.143C232.126 107.541 237.7 102.164 244.329 102.164C247.996 102.164 250.609 103.597 252.572 105.464L250.253 107.774C248.845 106.459 246.938 105.437 244.326 105.437C239.485 105.437 235.699 109.322 235.699 114.143C235.699 118.964 239.485 122.849 244.326 122.849C247.466 122.849 249.254 121.593 250.399 120.452C251.328 119.527 251.94 118.205 252.181 116.4L244.326 116.404Z" fill="#4285F4"/>
</g>
<g filter="url(#filter2_d_22_110)">
<rect x="194" y="190" width="170" height="96" rx="16" fill="white"/>
</g>
<path fill-rule="evenodd" clip-rule="evenodd" d="M295.2 231.31L293.2 227.93L289.65 229.62L287.65 226.23L284.1 227.93L282.11 224.53L278.56 226.23L276.56 222.84L273.01 224.54L271.02 221.14L267.46 222.84L259.93 247.36L269.08 250.16C269.425 249.055 270.153 248.109 271.134 247.494C272.115 246.88 273.284 246.636 274.429 246.807C275.573 246.979 276.619 247.554 277.377 248.43C278.135 249.305 278.554 250.422 278.56 251.58V251.68C278.58 252.12 278.53 252.56 278.4 253L287.7 255.85L295.2 231.31Z" fill="#D61920"/>
<path fill-rule="evenodd" clip-rule="evenodd" d="M267.78 245.34C267.549 245.302 267.339 245.182 267.188 245.002C267.038 244.822 266.957 244.594 266.96 244.36V232.36C266.959 232.228 266.984 232.098 267.033 231.976C267.083 231.854 267.157 231.743 267.25 231.65C267.343 231.557 267.454 231.483 267.576 231.433C267.698 231.384 267.828 231.359 267.96 231.36H276.63C277.141 231.359 277.647 231.458 278.119 231.652C278.592 231.847 279.021 232.132 279.384 232.492C279.746 232.853 280.033 233.281 280.23 233.752C280.427 234.224 280.529 234.729 280.53 235.24V244.36C280.53 244.507 280.497 244.653 280.434 244.786C280.371 244.919 280.279 245.036 280.166 245.13C280.052 245.224 279.919 245.291 279.776 245.327C279.634 245.364 279.485 245.368 279.34 245.34C279.111 245.3 278.903 245.179 278.754 244.999C278.606 244.82 278.526 244.593 278.53 244.36V235.25C278.53 234.746 278.33 234.263 277.973 233.906C277.617 233.55 277.134 233.35 276.63 233.35H274.74V244.35C274.741 244.484 274.715 244.617 274.663 244.74C274.612 244.864 274.536 244.976 274.44 245.07C274.326 245.183 274.187 245.266 274.033 245.313C273.88 245.361 273.718 245.37 273.56 245.34C273.329 245.302 273.119 245.182 272.968 245.002C272.818 244.822 272.737 244.594 272.74 244.36V233.35H268.96V244.35C268.961 244.497 268.929 244.643 268.868 244.776C268.806 244.91 268.715 245.028 268.603 245.122C268.49 245.217 268.358 245.285 268.216 245.323C268.073 245.361 267.925 245.366 267.78 245.34ZM282.2 250.57C281.967 250.531 281.756 250.41 281.605 250.228C281.454 250.046 281.374 249.816 281.38 249.58C281.381 249.318 281.485 249.066 281.67 248.88C281.855 248.692 282.106 248.584 282.37 248.58C283.22 248.58 283.95 248.04 284.19 247.23L285.22 243.8L281.85 232.53C281.81 232.404 281.795 232.271 281.806 232.139C281.818 232.008 281.856 231.879 281.917 231.762C281.978 231.645 282.062 231.541 282.164 231.457C282.266 231.372 282.383 231.309 282.51 231.27C282.762 231.2 283.031 231.23 283.262 231.353C283.492 231.475 283.667 231.682 283.75 231.93L286.25 240.33L288.79 231.93C288.91 231.47 289.42 231.16 289.94 231.26L290.01 231.27C290.55 231.44 290.85 232.01 290.69 232.54L287.22 244.1L286.12 247.8C285.873 248.596 285.384 249.295 284.72 249.8C284.045 250.306 283.224 250.58 282.38 250.58C282.32 250.582 282.26 250.579 282.2 250.57Z" fill="#FEFEFE"/>
<path fill-rule="evenodd" clip-rule="evenodd" d="M221.08 243.15H223.04C223.562 243.15 224.064 242.942 224.433 242.573C224.802 242.203 225.01 241.702 225.01 241.18V235.41C225.011 235.151 224.962 234.895 224.864 234.655C224.766 234.416 224.622 234.198 224.44 234.014C224.258 233.83 224.042 233.684 223.803 233.584C223.565 233.483 223.309 233.431 223.05 233.43H221.08V243.13V243.15ZM219.85 245.21C219.61 245.169 219.392 245.044 219.236 244.857C219.08 244.67 218.997 244.433 219 244.19V226.27C218.998 226.133 219.024 225.997 219.075 225.87C219.127 225.743 219.203 225.627 219.3 225.53C219.417 225.408 219.562 225.317 219.723 225.265C219.883 225.213 220.054 225.201 220.22 225.23C220.72 225.33 221.08 225.75 221.08 226.26V231.36H223.04C223.571 231.359 224.098 231.462 224.589 231.665C225.08 231.867 225.527 232.164 225.903 232.54C226.279 232.915 226.578 233.361 226.782 233.852C226.985 234.342 227.09 234.868 227.09 235.4V241.17C227.087 242.241 226.661 243.267 225.904 244.024C225.147 244.781 224.121 245.207 223.05 245.21H220.04C219.973 245.214 219.906 245.21 219.84 245.2L219.85 245.21Z" fill="#333545"/>
<path fill-rule="evenodd" clip-rule="evenodd" d="M234.14 233.35C234.028 233.33 233.914 233.32 233.8 233.32C233.541 233.317 233.283 233.366 233.043 233.464C232.803 233.562 232.584 233.707 232.401 233.891C232.218 234.074 232.073 234.293 231.974 234.533C231.876 234.773 231.827 235.03 231.83 235.29V241.3C231.829 241.559 231.879 241.816 231.977 242.055C232.076 242.295 232.221 242.513 232.404 242.696C232.587 242.879 232.805 243.024 233.045 243.123C233.284 243.221 233.541 243.271 233.8 243.27C234.322 243.27 234.824 243.062 235.193 242.693C235.562 242.323 235.77 241.822 235.77 241.3V235.3C235.77 234.33 235.08 233.52 234.14 233.35ZM233.09 245.3C232.152 245.135 231.303 244.644 230.692 243.914C230.081 243.184 229.747 242.262 229.75 241.31V235.3C229.748 234.768 229.853 234.241 230.057 233.75C230.261 233.259 230.561 232.814 230.94 232.44C231.315 232.065 231.761 231.767 232.252 231.565C232.743 231.362 233.269 231.259 233.8 231.26C234.871 231.26 235.899 231.686 236.657 232.443C237.414 233.201 237.84 234.228 237.84 235.3V241.31C237.84 242.39 237.42 243.41 236.65 244.18C236.276 244.555 235.832 244.852 235.343 245.054C234.854 245.257 234.329 245.361 233.8 245.36C233.562 245.361 233.324 245.341 233.09 245.3ZM244.89 233.36C244.778 233.34 244.664 233.33 244.55 233.33C244.291 233.327 244.033 233.376 243.793 233.474C243.553 233.572 243.334 233.717 243.151 233.901C242.968 234.084 242.823 234.303 242.724 234.543C242.626 234.783 242.577 235.04 242.58 235.3V241.31C242.579 241.569 242.629 241.826 242.727 242.065C242.826 242.305 242.971 242.523 243.154 242.706C243.337 242.889 243.555 243.034 243.795 243.133C244.034 243.231 244.291 243.281 244.55 243.28C244.809 243.281 245.066 243.231 245.305 243.133C245.545 243.034 245.763 242.889 245.946 242.706C246.129 242.523 246.274 242.305 246.373 242.065C246.471 241.826 246.521 241.569 246.52 241.31V235.3C246.52 234.34 245.83 233.53 244.89 233.36ZM243.84 245.3C242.904 245.133 242.057 244.641 241.448 243.911C240.839 243.182 240.507 242.26 240.51 241.31V235.3C240.512 234.711 240.642 234.129 240.891 233.595C241.141 233.061 241.504 232.588 241.956 232.209C242.407 231.83 242.936 231.554 243.505 231.401C244.074 231.247 244.669 231.22 245.25 231.32C246.188 231.482 247.038 231.971 247.651 232.699C248.264 233.427 248.6 234.348 248.6 235.3V241.31C248.601 241.844 248.496 242.373 248.29 242.866C248.084 243.359 247.781 243.806 247.4 244.18C247.026 244.555 246.582 244.852 246.093 245.054C245.604 245.257 245.079 245.361 244.55 245.36C244.31 245.36 244.07 245.34 243.84 245.3ZM252.11 245.34C251.87 245.299 251.652 245.174 251.496 244.987C251.34 244.8 251.257 244.563 251.26 244.32V226.27C251.26 225.99 251.36 225.72 251.56 225.53C251.678 225.413 251.822 225.327 251.981 225.278C252.139 225.23 252.307 225.22 252.47 225.25C252.97 225.33 253.34 225.76 253.34 226.27V236.95L258.12 231.59C258.36 231.33 258.72 231.21 259.08 231.27C259.262 231.3 259.432 231.379 259.572 231.497C259.713 231.615 259.82 231.769 259.881 231.943C259.943 232.117 259.956 232.303 259.921 232.484C259.885 232.665 259.802 232.832 259.68 232.97L256.07 237L259.8 243.83C259.867 243.945 259.911 244.073 259.928 244.205C259.945 244.337 259.936 244.471 259.9 244.6C259.861 244.732 259.796 244.856 259.709 244.962C259.621 245.069 259.513 245.156 259.39 245.22C259.178 245.342 258.93 245.384 258.69 245.34C258.541 245.315 258.399 245.257 258.274 245.17C258.15 245.084 258.046 244.971 257.97 244.84L254.61 238.66L253.33 240.07V244.32C253.33 244.596 253.22 244.86 253.025 245.055C252.83 245.25 252.566 245.36 252.29 245.36C252.22 245.36 252.16 245.36 252.09 245.34H252.11ZM297.92 245.33C297.358 245.236 296.823 245.017 296.356 244.69C295.889 244.363 295.501 243.936 295.22 243.44C295.083 243.197 295.047 242.909 295.12 242.64C295.2 242.38 295.37 242.16 295.6 242.02C295.814 241.903 296.061 241.864 296.3 241.91C296.6 241.96 296.87 242.14 297.02 242.41C297.29 242.87 297.72 243.17 298.25 243.26C298.523 243.307 298.804 243.292 299.07 243.216C299.337 243.14 299.583 243.005 299.79 242.82C300.19 242.45 300.39 241.92 300.34 241.4C300.329 241.133 300.255 240.873 300.125 240.64C299.995 240.408 299.811 240.209 299.59 240.06L296.79 238.07C296.334 237.75 295.954 237.333 295.677 236.849C295.401 236.365 295.234 235.826 295.19 235.27C295.154 234.709 295.246 234.148 295.459 233.628C295.672 233.108 296.001 232.644 296.42 232.27C296.829 231.89 297.318 231.605 297.851 231.437C298.383 231.27 298.947 231.223 299.5 231.3C300.68 231.5 301.64 232.18 302.19 233.14C302.323 233.38 302.357 233.662 302.286 233.926C302.215 234.191 302.045 234.418 301.81 234.56C301.598 234.682 301.35 234.724 301.11 234.68C300.961 234.655 300.819 234.597 300.694 234.51C300.57 234.424 300.466 234.311 300.39 234.18C300.265 233.968 300.094 233.786 299.89 233.648C299.686 233.509 299.454 233.418 299.21 233.38C298.961 233.335 298.705 233.348 298.462 233.42C298.219 233.491 297.995 233.618 297.81 233.79C297.629 233.961 297.488 234.169 297.396 234.401C297.304 234.633 297.265 234.881 297.28 235.13C297.3 235.62 297.58 236.1 298 236.38L300.8 238.33C301.275 238.663 301.668 239.1 301.949 239.607C302.23 240.115 302.391 240.68 302.42 241.26C302.466 241.837 302.377 242.416 302.16 242.953C301.943 243.489 301.604 243.968 301.17 244.35C300.748 244.742 300.243 245.036 299.693 245.209C299.143 245.382 298.561 245.43 297.99 245.35L297.91 245.33H297.92ZM305.95 245.36C305.71 245.318 305.492 245.192 305.335 245.006C305.178 244.82 305.091 244.584 305.09 244.34V226.29C305.089 226.153 305.115 226.017 305.166 225.89C305.218 225.764 305.295 225.648 305.392 225.552C305.488 225.455 305.604 225.378 305.73 225.326C305.857 225.275 305.993 225.249 306.13 225.25L306.33 225.26C306.83 225.36 307.17 225.77 307.17 226.29V231.39H309.14C309.671 231.389 310.197 231.492 310.688 231.695C311.178 231.897 311.624 232.195 312 232.57C312.375 232.946 312.673 233.392 312.875 233.882C313.078 234.373 313.181 234.899 313.18 235.43V244.33C313.181 244.481 313.148 244.63 313.085 244.767C313.022 244.904 312.929 245.026 312.814 245.123C312.698 245.221 312.563 245.291 312.417 245.331C312.271 245.37 312.119 245.376 311.97 245.35C311.47 245.26 311.11 244.83 311.11 244.32V235.42C311.11 235.162 311.059 234.906 310.96 234.668C310.861 234.429 310.715 234.213 310.532 234.03C310.349 233.848 310.132 233.704 309.893 233.606C309.654 233.508 309.398 233.459 309.14 233.46H307.17V244.33C307.171 244.482 307.139 244.632 307.075 244.77C307.011 244.908 306.917 245.03 306.801 245.128C306.684 245.225 306.547 245.296 306.4 245.334C306.253 245.373 306.099 245.378 305.95 245.35V245.36ZM320.23 233.37C319.947 233.318 319.655 233.33 319.377 233.404C319.099 233.478 318.84 233.612 318.619 233.797C318.399 233.983 318.222 234.214 318.101 234.476C317.98 234.737 317.918 235.022 317.92 235.31V241.32C317.919 241.578 317.968 241.834 318.066 242.073C318.164 242.312 318.308 242.529 318.491 242.712C318.673 242.895 318.889 243.041 319.128 243.14C319.366 243.239 319.622 243.29 319.88 243.29C320.4 243.29 320.9 243.09 321.27 242.72C321.455 242.537 321.602 242.319 321.702 242.079C321.801 241.838 321.852 241.58 321.85 241.32V235.3C321.85 234.34 321.17 233.52 320.22 233.36L320.23 233.37ZM319.17 245.29C318.235 245.125 317.388 244.635 316.779 243.907C316.17 243.179 315.837 242.259 315.84 241.31V235.3C315.84 234.71 315.969 234.127 316.218 233.592C316.467 233.057 316.83 232.582 317.282 232.202C317.733 231.822 318.262 231.545 318.832 231.391C319.402 231.237 319.998 231.209 320.58 231.31C321.519 231.473 322.371 231.963 322.984 232.693C323.597 233.423 323.932 234.346 323.93 235.3V241.31C323.93 241.843 323.825 242.37 323.618 242.861C323.412 243.352 323.11 243.797 322.73 244.17C322.271 244.63 321.708 244.973 321.088 245.168C320.468 245.363 319.81 245.405 319.17 245.29Z" fill="#333545"/>
<path fill-rule="evenodd" clip-rule="evenodd" d="M339.9 232.54C339.934 232.413 339.943 232.28 339.926 232.15C339.909 232.019 339.866 231.894 339.8 231.78C339.724 231.658 339.625 231.553 339.509 231.471C339.392 231.389 339.26 231.33 339.12 231.3C338.862 231.251 338.595 231.303 338.374 231.444C338.153 231.585 337.994 231.805 337.93 232.06C337.93 232.11 336.81 236.62 335.93 240.05L335.91 240.12L335.89 240.05L333.89 232.07C333.851 231.875 333.754 231.697 333.611 231.559C333.468 231.421 333.286 231.331 333.09 231.3C333.031 231.288 332.97 231.281 332.91 231.28C332.45 231.28 332.05 231.6 331.92 232.06C331.91 232.11 330.79 236.62 329.92 240.05L329.9 240.12L329.88 240.05C329.03 236.62 327.88 232.11 327.88 232.06C327.833 231.868 327.731 231.695 327.588 231.56C327.444 231.425 327.264 231.335 327.07 231.3C326.904 231.27 326.732 231.283 326.572 231.336C326.411 231.389 326.267 231.481 326.151 231.604C326.034 231.727 325.951 231.877 325.907 232.04C325.863 232.204 325.861 232.375 325.9 232.54L328.91 244.57C328.967 244.79 329.095 244.986 329.273 245.127C329.452 245.268 329.672 245.346 329.9 245.35C330.39 245.35 330.78 245.03 330.88 244.57L332.88 236.58L332.91 236.51L332.93 236.58C333.81 240.05 334.93 244.58 334.93 244.58C334.99 244.796 335.117 244.987 335.293 245.126C335.47 245.264 335.686 245.343 335.91 245.35C336.14 245.357 336.366 245.283 336.547 245.14C336.728 244.997 336.853 244.795 336.9 244.57L339.9 232.54Z" fill="#333545"/>
<g filter="url(#filter3_d_22_110)">
<rect x="388" y="10" width="170" height="96" rx="16" fill="white"/>
</g>
<g clip-path="url(#clip3_22_110)">
<path d="M455.064 59.9753L454.336 62.0311H454.276C454.155 61.5675 453.932 60.8621 453.569 60.0156L449.671 50.2404H445.853V65.8203H448.378V56.2063C448.378 55.6017 448.378 54.9164 448.358 54.0699C448.337 53.6466 448.297 53.3241 448.277 53.0823H448.337C448.459 53.6869 448.6 54.1303 448.701 54.4125L453.387 65.78H455.165L459.81 54.3117C459.911 54.0497 460.012 53.5257 460.113 53.0823H460.174C460.113 54.2311 460.073 55.259 460.053 55.8838V65.7598H462.739V50.2001H459.063L455.064 59.9753ZM465.284 54.5939H467.91V65.7598H465.284V54.5939ZM466.617 49.8776C466.173 49.8776 465.809 50.0389 465.506 50.321C465.203 50.6032 465.042 50.966 465.042 51.4094C465.042 51.8327 465.203 52.1955 465.506 52.4776C465.809 52.7598 466.173 52.9009 466.617 52.9009C467.062 52.9009 467.445 52.7396 467.728 52.4776C468.031 52.1955 468.193 51.8327 468.193 51.4094C468.193 50.9862 468.031 50.6234 467.728 50.321C467.466 50.0389 467.082 49.8776 466.617 49.8776ZM477.222 54.4931C476.737 54.3924 476.232 54.3319 475.747 54.3319C474.555 54.3319 473.465 54.5939 472.556 55.1179C471.647 55.642 470.92 56.3675 470.455 57.2745C469.97 58.2017 469.728 59.2699 469.728 60.4993C469.728 61.5675 469.97 62.5148 470.435 63.3815C470.899 64.228 471.546 64.9133 472.414 65.3769C473.242 65.8404 474.212 66.0823 475.303 66.0823C476.555 66.0823 477.625 65.8203 478.474 65.3365L478.494 65.3164V62.8978L478.393 62.9784C478.009 63.2606 477.565 63.5024 477.121 63.6435C476.656 63.8048 476.232 63.8854 475.868 63.8854C474.818 63.8854 473.99 63.5831 473.404 62.9179C472.798 62.273 472.495 61.3862 472.495 60.2776C472.495 59.1288 472.798 58.2218 473.424 57.5567C474.05 56.8916 474.878 56.5489 475.888 56.5489C476.737 56.5489 477.605 56.8311 478.393 57.3955L478.494 57.4761V54.9164L478.474 54.8962C478.13 54.7551 477.747 54.5939 477.222 54.4931ZM485.887 54.4125C485.24 54.4125 484.634 54.6141 484.109 55.0373C483.665 55.4001 483.362 55.9241 483.099 56.5489H483.079V54.5939H480.453V65.7598H483.079V60.0559C483.079 59.0885 483.281 58.2823 483.725 57.6978C484.17 57.0931 484.735 56.7908 485.422 56.7908C485.665 56.7908 485.907 56.8513 486.21 56.8916C486.493 56.9722 486.695 57.0528 486.836 57.1536L486.937 57.2342V54.6141L486.876 54.5939C486.695 54.473 486.331 54.4125 485.887 54.4125ZM493.037 54.352C491.199 54.352 489.724 54.8962 488.694 55.9644C487.644 57.0327 487.139 58.504 487.139 60.3582C487.139 62.0916 487.664 63.5024 488.674 64.5303C489.684 65.5381 491.058 66.0621 492.774 66.0621C494.572 66.0621 496.006 65.5179 497.036 64.4296C498.087 63.3412 498.592 61.89 498.592 60.0962C498.592 58.3226 498.107 56.9117 497.117 55.8838C496.168 54.8559 494.774 54.352 493.037 54.352ZM495.138 62.9381C494.653 63.5629 493.885 63.8652 492.936 63.8652C491.987 63.8652 491.219 63.5629 490.674 62.8978C490.128 62.273 489.866 61.366 489.866 60.2172C489.866 59.028 490.149 58.121 490.674 57.4761C491.219 56.8311 491.967 56.5086 492.916 56.5086C493.845 56.5086 494.572 56.811 495.097 57.4358C495.622 58.0606 495.905 58.9675 495.905 60.1567C495.865 61.366 495.643 62.3133 495.138 62.9381ZM504.449 59.2296C503.621 58.8869 503.096 58.6249 502.854 58.4032C502.652 58.2017 502.551 57.9195 502.551 57.5567C502.551 57.2544 502.672 56.952 502.975 56.7505C503.278 56.5489 503.621 56.4482 504.126 56.4482C504.571 56.4482 505.035 56.5288 505.479 56.6497C505.924 56.7706 506.328 56.952 506.651 57.1939L506.752 57.2745V54.8156L506.691 54.7955C506.388 54.6745 505.984 54.5536 505.5 54.4528C505.015 54.3722 504.571 54.3319 504.207 54.3319C502.955 54.3319 501.924 54.6342 501.117 55.2993C500.309 55.9241 499.925 56.7706 499.925 57.7582C499.925 58.2823 500.006 58.7458 500.187 59.1288C500.369 59.5117 500.632 59.8745 500.995 60.1769C501.359 60.459 501.884 60.7815 502.611 61.0838C503.217 61.3458 503.682 61.5474 503.965 61.7086C504.247 61.8699 504.429 62.0513 504.571 62.1924C504.671 62.3536 504.732 62.5551 504.732 62.8172C504.732 63.5629 504.167 63.9257 503.015 63.9257C502.571 63.9257 502.106 63.8451 501.561 63.6637C501.016 63.4823 500.511 63.2203 500.086 62.9179L499.985 62.8373V65.397L500.046 65.4172C500.43 65.5986 500.894 65.7195 501.46 65.8606C502.025 65.9613 502.53 66.042 502.975 66.042C504.328 66.042 505.439 65.7396 506.227 65.0745C507.035 64.4296 507.459 63.6032 507.459 62.535C507.459 61.7893 507.257 61.1241 506.813 60.6203C506.227 60.1365 505.5 59.6327 504.449 59.2296ZM514.387 54.352C512.549 54.352 511.074 54.8962 510.044 55.9644C509.014 57.0327 508.489 58.504 508.489 60.3582C508.489 62.0916 509.014 63.5024 510.024 64.5303C511.034 65.5381 512.408 66.0621 514.124 66.0621C515.922 66.0621 517.356 65.5179 518.386 64.4296C519.437 63.3412 519.942 61.89 519.942 60.0962C519.942 58.3226 519.457 56.9117 518.467 55.8838C517.518 54.8559 516.124 54.352 514.387 54.352ZM516.468 62.9381C515.983 63.5629 515.215 63.8652 514.266 63.8652C513.296 63.8652 512.549 63.5629 512.004 62.8978C511.458 62.273 511.196 61.366 511.196 60.2172C511.196 59.028 511.478 58.121 512.004 57.4761C512.549 56.8311 513.296 56.5086 514.246 56.5086C515.155 56.5086 515.902 56.811 516.427 57.4358C516.952 58.0606 517.235 58.9675 517.235 60.1567C517.235 61.366 516.972 62.3133 516.468 62.9381ZM533.98 56.7505V54.5939H531.334V51.2885L531.253 51.3086L528.748 52.0544L528.688 52.0745V54.5939H524.729V53.1831C524.729 52.5381 524.89 52.0342 525.173 51.7117C525.456 51.3893 525.88 51.228 526.405 51.228C526.769 51.228 527.153 51.3086 527.577 51.49L527.678 51.5505V49.273L527.617 49.2528C527.254 49.1319 526.769 49.0513 526.143 49.0513C525.355 49.0513 524.668 49.2327 524.042 49.535C523.416 49.8776 522.951 50.3412 522.608 50.966C522.265 51.5706 522.083 52.2559 522.083 53.042V54.5939H520.245V56.7303H522.083V65.7598H524.729V56.7505H528.688V62.4947C528.688 64.8528 529.799 66.042 532.021 66.042C532.384 66.042 532.768 65.9815 533.131 65.921C533.515 65.8404 533.798 65.7396 533.96 65.659L533.98 65.6389V63.4823L533.879 63.5629C533.717 63.6637 533.576 63.7443 533.333 63.8048C533.131 63.8652 532.95 63.8854 532.808 63.8854C532.283 63.8854 531.92 63.7644 531.657 63.4621C531.415 63.18 531.293 62.7164 531.293 62.0311V56.7505H533.98Z" fill="#737373"/>
<path d="M412 45H424.382V57.355H412V45Z" fill="#F25022"/>
<path d="M425.674 45H438.056V57.355H425.674V45Z" fill="#7FBA00"/>
<path d="M412 58.645H424.382V71.0001H412V58.645Z" fill="#00A4EF"/>
<path d="M425.674 58.645H438.056V71.0001H425.674V58.645Z" fill="#FFB900"/>
</g>
<g filter="url(#filter4_d_22_110)">
<rect x="388" y="130" width="170" height="96" rx="16" fill="white"/>
</g>
<g clip-path="url(#clip4_22_110)">
<path d="M497.364 192.102L505.703 182.866L497.364 173.628H506.163L510.293 178.115L514.271 173.628H522.763L514.463 182.827L522.877 192.102H514.042L509.949 187.578L505.894 192.102H497.364Z" fill="#FF6600"/>
<path d="M497.364 169.486H487.919V173.628H497.364V179.869H487.919V185.598H497.364V192.102H480.976V163H497.364V169.486Z" fill="#FF6600"/>
<path d="M474.063 163V174.91H473.987C472.457 173.176 470.545 172.573 468.326 172.573C463.781 172.573 460.358 175.619 459.156 179.645C457.786 175.209 454.251 172.49 449.01 172.49C444.754 172.49 441.393 174.373 439.64 177.442V173.628H430.842V169.487H440.443V163H423V192.103H430.842V179.869H438.659C438.426 180.768 438.301 181.73 438.301 182.745C438.301 188.816 443.006 193.075 449.01 193.075C454.06 193.075 457.387 190.739 459.147 186.479H452.427C451.517 187.759 450.828 188.139 449.01 188.139C446.903 188.139 445.086 186.326 445.086 184.178H458.77C459.364 189 463.174 193.158 468.403 193.158C470.659 193.158 472.724 192.064 473.987 190.218H474.063V192.102H480.977V163H474.063ZM445.304 179.956C445.74 178.108 447.195 176.899 449.01 176.899C451.009 176.899 452.39 178.07 452.753 179.956C452.906 179.956 445.304 179.956 445.304 179.956ZM469.868 187.671C467.32 187.671 465.737 185.331 465.737 182.887C465.737 180.275 467.114 177.763 469.868 177.763C472.724 177.763 473.862 180.275 473.862 182.887C473.862 185.364 472.656 187.671 469.868 187.671Z" fill="#652C8F"/>
</g>
<g filter="url(#filter5_d_22_110)">
<rect x="388" y="250" width="170" height="96" rx="16" fill="white"/>
</g>
<g clip-path="url(#clip5_22_110)">
<path d="M455.705 293.959V295.546H455.753C456.327 294.696 457.278 293.696 459.387 293.696C461.028 293.696 462.287 294.528 462.827 295.785H462.875C463.336 295.149 463.864 294.668 464.456 294.328C465.157 293.924 465.936 293.692 466.918 293.692C469.139 293.692 471.106 295.132 471.106 298.762V305.646H467.719V299.243C467.719 297.403 467.052 296.339 465.666 296.339C464.651 296.339 463.913 296.978 463.632 297.765C463.535 298.035 463.49 298.404 463.49 298.713V305.65H460.103V298.983C460.103 297.421 459.462 296.336 458.095 296.336C457.001 296.336 456.315 297.143 456.034 297.835C455.915 298.13 455.877 298.47 455.877 298.79V305.646H452.487V293.959H455.705ZM488.587 293.959V296.164H488.68C489.302 294.479 490.778 293.696 492.074 293.696C492.4 293.696 492.58 293.72 492.842 293.77V296.831C492.532 296.789 492.243 296.747 491.838 296.747C490.37 296.747 489.347 297.547 489.089 298.8C489.032 299.06 489.014 299.341 489.014 299.664V305.65H485.537V293.959H488.587ZM497.563 290.087V293.766H500.5V296.743H497.563V301.135C497.563 302.557 497.949 303.245 499.095 303.245C499.635 303.245 500.032 303.182 500.376 303.101L500.421 305.569C499.961 305.73 498.979 305.906 497.982 305.906C496.81 305.906 495.832 305.523 495.236 304.93C494.555 304.252 494.24 303.143 494.24 301.563V290.087H497.563ZM450.126 305.646H446.755V290.087H450.126V305.646ZM441.135 301.472C441.135 301.686 441.116 301.911 441.053 302.104C440.791 302.915 439.895 303.599 438.779 303.599C437.846 303.599 437.104 303.104 437.104 302.055C437.104 300.45 438.992 300.005 441.139 300.015V301.472H441.135ZM444.503 298.674C444.503 296.023 443.297 293.696 439.217 293.696C437.123 293.696 435.459 294.247 434.553 294.739L435.216 296.866C436.044 296.375 437.366 295.971 438.618 295.971C440.689 295.967 441.027 297.07 441.027 297.775V297.944C436.512 297.937 433.661 299.401 433.661 302.385C433.661 304.207 435.111 305.913 437.636 305.913C439.191 305.913 440.487 305.334 441.266 304.403H441.341C441.341 304.403 441.858 306.422 444.698 305.65C444.548 304.807 444.499 303.912 444.499 302.834V298.674H444.503ZM416.724 290.087C417.072 291.733 418.061 296.515 418.061 296.515C418.477 298.481 418.859 300.542 419.148 302.171H419.2C419.481 300.44 419.923 298.8 420.395 296.771L422.062 290.087H425.753L427.311 296.943C427.719 298.85 428.045 300.321 428.304 302.093H428.353C428.634 300.303 429.001 298.772 429.402 296.813L430.9 290.087H434.44L430.053 305.646C427.259 306.218 426.187 305.165 425.805 303.494C425.423 301.82 424.674 298.635 424.674 298.635C424.288 296.891 423.988 295.662 423.778 293.871H423.726C423.426 295.644 423.111 296.887 422.647 298.632L420.807 305.65C417.953 306.183 416.964 305.393 416.417 303.248C415.945 301.412 413 290.09 413 290.09H416.724V290.087ZM479.918 301.472C479.918 301.686 479.899 301.911 479.835 302.104C479.573 302.915 478.677 303.599 477.561 303.599C476.628 303.599 475.886 303.104 475.886 302.055C475.886 300.45 477.775 300.005 479.921 300.015V301.472H479.918ZM483.285 298.674C483.285 296.023 482.079 293.696 477.999 293.696C475.905 293.696 474.242 294.247 473.335 294.739L473.998 296.866C474.826 296.375 476.149 295.971 477.4 295.971C479.468 295.967 479.809 297.07 479.809 297.775V297.944C475.298 297.937 472.447 299.401 472.447 302.385C472.447 304.207 473.901 305.913 476.422 305.913C477.973 305.913 479.273 305.334 480.049 304.403H480.127C480.127 304.403 480.644 306.422 483.484 305.65C483.334 304.807 483.285 303.912 483.285 302.834V298.674Z" fill="#041E42"/>
<path d="M514.168 300.288C514.5 300.856 514.478 301.49 514.123 301.78L507.991 305.999C507.353 306.362 506.397 305.922 505.855 305.002C505.31 304.078 505.407 303.048 506.046 302.685L512.835 299.584C513.26 299.422 513.835 299.719 514.168 300.288ZM522.238 300.288C522.574 299.719 523.145 299.426 523.571 299.58L530.364 302.681C531.002 303.044 531.096 304.074 530.554 304.998C530.009 305.918 529.049 306.355 528.414 305.995L522.283 301.776C521.931 301.49 521.905 300.852 522.238 300.288ZM518.201 302.575C518.869 302.575 519.418 302.912 519.493 303.356L520.154 310.68C520.154 311.406 519.291 312 518.205 312C517.122 312 516.255 311.406 516.255 310.68L516.913 303.356C516.987 302.912 517.536 302.575 518.201 302.575ZM522.283 294.224L528.414 290.001C529.049 289.638 530.009 290.074 530.554 290.998C531.096 291.922 531.002 292.952 530.364 293.315L523.571 296.42C523.145 296.574 522.57 296.281 522.238 295.712C521.905 295.144 521.931 294.51 522.283 294.224ZM512.835 296.42L506.046 293.315C505.411 292.952 505.314 291.922 505.855 290.998C506.397 290.074 507.356 289.638 507.991 290.001L514.123 294.224C514.478 294.506 514.5 295.144 514.168 295.712C513.835 296.281 513.26 296.574 512.835 296.42ZM516.913 292.644L516.255 285.32C516.255 284.594 517.118 284 518.205 284C519.291 284 520.154 284.594 520.154 285.32L519.493 292.644C519.418 293.084 518.869 293.425 518.201 293.425C517.536 293.425 516.987 293.084 516.913 292.644ZM532.212 305.97V305.786H532.38C532.436 305.786 532.473 305.823 532.473 305.878C532.473 305.929 532.436 305.97 532.38 305.97H532.212ZM532.074 306.303C532.074 306.322 532.089 306.34 532.111 306.34H532.182C532.201 306.34 532.22 306.322 532.22 306.303V306.094H532.335L532.429 306.314C532.436 306.329 532.447 306.34 532.462 306.34H532.548C532.574 306.34 532.593 306.314 532.582 306.289C532.548 306.223 532.515 306.153 532.481 306.083C532.537 306.065 532.623 306.01 532.623 305.878C532.623 305.739 532.507 305.658 532.391 305.658H532.111C532.093 305.658 532.074 305.676 532.074 305.695V306.303ZM531.771 305.999C531.771 305.702 532.018 305.46 532.32 305.46C532.623 305.46 532.869 305.698 532.869 305.999C532.869 306.296 532.627 306.538 532.32 306.538C532.014 306.538 531.771 306.296 531.771 305.999ZM531.641 305.999C531.641 306.366 531.943 306.666 532.32 306.666C532.694 306.666 533 306.366 533 305.999C533 305.632 532.694 305.332 532.32 305.332C531.943 305.332 531.641 305.632 531.641 305.999Z" fill="#FFC124"/>
</g>
<g filter="url(#filter6_d_22_110)">
<rect x="582" y="70" width="170" height="96" rx="16" fill="white"/>
</g>
<path d="M694.064 132.64C702.042 132.64 708.534 126.043 708.534 117.936C708.534 109.824 702.042 103.232 694.064 103.232C686.084 103.232 679.594 109.824 679.594 117.936C679.594 126.043 686.084 132.64 694.064 132.64ZM694.064 112.693C696.907 112.693 699.223 115.045 699.223 117.934C699.223 120.824 696.906 123.173 694.062 123.173C691.217 123.173 688.905 120.824 688.905 117.933C688.905 115.04 691.219 112.69 694.062 112.69L694.064 112.693ZM639.47 132.64C647.449 132.64 653.94 126.043 653.94 117.936C653.94 109.824 647.449 103.232 639.47 103.232C631.493 103.232 625 109.824 625 117.936C625 126.043 631.493 132.64 639.47 132.64ZM639.47 112.693C642.315 112.693 644.629 115.045 644.629 117.934C644.629 120.824 642.315 123.173 639.47 123.173C636.627 123.173 634.314 120.824 634.314 117.933C634.314 115.04 636.628 112.69 639.47 112.69V112.693ZM666.759 112.362L662.317 103.424H651.915L661.63 122.976V132.181H671.889V122.976L681.605 103.424H671.198L666.761 112.362H666.759Z" fill="#EE2E24"/>
<g filter="url(#filter7_d_22_110)">
<rect x="582" y="190" width="170" height="96" rx="16" fill="white"/>
</g>
<g clip-path="url(#clip6_22_110)">
<path fill-rule="evenodd" clip-rule="evenodd" d="M704.376 236.841L698.139 247.675L692.817 247.696L704.376 227.304L715.892 247.696H710.486L704.376 236.84V236.841ZM687.581 242.98H693.541L690.774 247.696H683.006L683.027 241.954V227.429H687.603L687.582 242.98H687.581ZM671.235 227.43C676.918 227.451 681.516 231.978 681.495 237.573C681.474 243.148 676.876 247.675 671.192 247.675C665.53 247.654 660.933 243.128 660.933 237.531C660.954 231.956 665.551 227.43 671.235 227.43ZM671.214 242.96C674.257 242.96 676.704 240.549 676.704 237.573C676.726 234.598 674.257 232.166 671.235 232.166C668.212 232.145 665.743 234.577 665.743 237.553C665.722 240.528 668.191 242.96 671.213 242.96H671.214ZM652.461 235.963C652.398 235.124 652.184 234.013 651.865 232.946C651.208 230.74 650.066 228.712 648.523 227.014C647.714 226.134 646.8 225.316 645.436 224.352C644.396 223.835 643.374 223.283 642.372 222.697C641.712 222.32 640.924 221.857 639.882 221.523C638.646 221.229 637.383 221.067 636.113 221.041C634.88 220.999 633.644 221.105 632.453 221.335C631.196 221.544 630.153 221.879 628.77 222.214C625.64 223.577 623.214 225.63 621.128 228.356C613.848 238.603 620.426 252.96 632.58 254.657C634.581 254.93 636.582 254.825 638.476 254.385L639.817 254.029C639.859 254.008 639.924 253.986 639.966 253.986L641.499 253.4C641.583 253.357 641.648 253.336 641.733 253.295L642.372 253.001C643.597 252.392 644.747 251.639 645.798 250.76C644.841 251.636 643.8 252.415 642.691 253.085L642.754 253.128C642.968 253.064 643.159 253.001 643.372 252.96C643.372 252.96 643.372 253.295 643.329 253.232C642.989 253.484 643.521 253.253 644.202 252.896C644.884 252.54 645.543 252.099 646.139 251.597C647.012 250.864 647.778 250.067 648.864 248.768C649.97 246.819 651.355 245.121 651.993 242.836C652.206 242.229 652.397 241.517 652.526 240.783C652.652 240.05 652.739 239.295 652.739 238.52C652.717 237.744 652.632 236.947 652.461 235.963ZM636.71 253.191C640.435 252.603 643.563 250.529 646.118 247.7C646.821 246.672 647.374 245.729 648.055 244.702C648.906 242.606 648.843 240.741 649.119 239.422C649.46 237.031 648.651 235.104 647.97 233.05C646.927 230.66 645.543 228.879 643.117 227.496C636.986 223.682 628.642 224.75 624.662 230.451C624.641 230.451 624.533 230.598 624.321 230.891C624.598 229.718 625.301 229.026 626.002 228.355C628.089 226.637 630.516 225.273 633.283 224.604C636.413 224.268 639.519 224.604 642.307 225.966C646.48 228.355 649.247 232.107 649.949 236.549V240.657C649.077 247.385 643.329 252.499 636.71 253.191ZM652.015 237.891C651.865 228.041 642.138 221.397 632.665 222.739C629.898 223.43 626.875 224.813 624.725 226.742C623.682 227.432 623.193 228.712 622.15 229.738C617.977 235.879 618.702 243.739 623.895 248.518C624.561 249.182 625.272 249.798 626.024 250.362C621.682 247.741 619.723 243.779 619.042 238.96C619.042 237.241 619.383 235.543 619.744 233.825C622.172 226.301 629.813 220.831 638.137 222.214C639.52 222.55 640.904 222.906 642.309 223.242C644.054 223.932 645.778 224.96 647.162 226.323C648.546 227.684 649.589 229.403 650.632 231.1C651.334 232.463 651.675 234.181 652.016 235.543C652.079 236.319 652.079 237.116 652.016 237.892L652.015 237.891Z" fill="black"/>
<path fill-rule="evenodd" clip-rule="evenodd" d="M643.373 238.038C643.373 242.272 639.839 245.709 635.476 245.709C631.113 245.709 627.579 242.272 627.579 238.038C627.579 233.805 631.112 230.368 635.476 230.368C639.839 230.368 643.373 233.805 643.373 238.039V238.038Z" fill="white"/>
<path fill-rule="evenodd" clip-rule="evenodd" d="M643.416 236.739C643.309 236.152 643.139 235.691 642.969 235.042C642.287 233.616 641.287 232.506 639.967 231.562C635.029 228.273 628.238 231.437 627.515 237.054C627.239 239.276 628.027 241.414 629.431 243.049C629.006 242.608 628.538 242.148 628.218 241.623L628.176 241.665C628.218 241.791 628.389 241.875 628.431 242C628.431 242 628.261 242 628.304 241.979C628.176 241.833 628.283 242.064 628.473 242.377C628.644 242.692 628.857 242.986 629.112 243.258C629.474 243.657 629.857 244.012 630.496 244.495C631.433 244.976 632.263 245.605 633.348 245.898C633.646 245.983 633.987 246.066 634.328 246.129C634.69 246.193 635.03 246.214 635.413 246.214C635.775 246.214 636.158 246.171 636.626 246.086C637.109 246.029 637.586 245.931 638.052 245.794C639.094 245.478 640.053 244.934 640.862 244.201C641.267 243.824 641.842 243.342 642.288 242.713C642.651 242.001 642.693 241.644 642.864 241.33C643.033 241.015 643.246 240.659 643.396 240.177C643.518 239.605 643.589 239.023 643.609 238.438C643.587 237.851 643.545 237.285 643.417 236.74L643.416 236.739ZM638.349 232.841C639.073 233.26 639.18 233.323 638.796 233.051C639.35 233.176 639.691 233.491 640.031 233.805C640.861 234.749 641.542 235.859 641.883 237.137C642.074 238.583 641.925 240.029 641.308 241.308C640.202 243.257 638.435 244.556 636.327 244.912C636.093 244.912 635.838 244.912 635.603 244.934C636.2 244.828 636.583 244.451 637.669 244.053C638.838 243.634 640.159 241.686 640.798 240.553C642.671 237.472 640.457 234.622 638.349 232.841ZM634.348 244.954C631.113 244.619 628.622 241.958 628.282 238.876C628.579 240.595 629.601 241.915 630.984 243.089C631.474 243.404 632.197 243.844 632.687 244.158C633.518 244.473 634.007 244.808 634.816 244.955H634.348V244.954ZM643.053 239.359C642.906 240.009 642.756 240.637 642.606 241.287C642.287 242.084 641.819 242.901 641.181 243.55C640.542 244.201 639.733 244.703 638.925 245.185C638.286 245.52 637.477 245.688 636.817 245.855C636.433 245.897 635.987 245.729 635.603 245.709C640.329 245.583 643.564 241.162 642.863 236.781C642.521 235.503 641.84 234.392 641.01 233.281C640.67 232.799 640.009 232.506 639.52 232.023C636.561 230.159 632.645 230.536 630.41 232.988C630.097 233.31 629.805 233.653 629.537 234.014C630.729 232.254 632.645 231.018 634.943 230.661C635.753 230.64 636.583 230.788 637.391 230.934C640.968 232.023 643.629 235.503 643.053 239.36V239.359Z" fill="#D7DF23"/>
</g>
<g clip-path="url(#clip7_22_110)">
<g filter="url(#filter8_d_22_110)">
<rect x="776" y="130" width="170" height="96" rx="16" fill="white"/>
</g>
<g clip-path="url(#clip8_22_110)">
<path fill-rule="evenodd" clip-rule="evenodd" d="M873.899 187.025C867.914 191.573 859.238 194 851.768 194C841.295 194 831.866 190.006 824.733 183.364C824.172 182.842 824.675 182.13 825.347 182.537C833.045 187.154 842.564 189.932 852.396 189.932C859.027 189.932 866.322 188.518 873.029 185.583C874.043 185.139 874.89 186.267 873.899 187.025Z" fill="#FF9900"/>
<path fill-rule="evenodd" clip-rule="evenodd" d="M876.388 184.09C875.626 183.082 871.33 183.614 869.403 183.849C868.815 183.923 868.725 183.396 869.255 183.017C872.675 180.535 878.289 181.252 878.943 182.084C879.598 182.92 878.773 188.721 875.558 191.49C875.065 191.915 874.594 191.689 874.814 191.125C875.536 189.267 877.154 185.102 876.388 184.09Z" fill="#FF9900"/>
<path fill-rule="evenodd" clip-rule="evenodd" d="M869.537 165.494V163.082C869.537 162.716 869.806 162.471 870.129 162.471H880.607C880.943 162.471 881.212 162.721 881.212 163.082V165.148C881.207 165.494 880.925 165.947 880.423 166.664L874.993 174.656C877.011 174.605 879.141 174.915 880.97 175.978C881.382 176.218 881.494 176.569 881.526 176.916V179.491C881.526 179.842 881.149 180.253 880.755 180.041C877.531 178.298 873.249 178.109 869.685 180.059C869.322 180.263 868.941 179.856 868.941 179.505V177.059C868.941 176.666 868.945 175.996 869.326 175.4L875.617 166.1H870.142C869.806 166.1 869.537 165.855 869.537 165.494Z" fill="black"/>
<path fill-rule="evenodd" clip-rule="evenodd" d="M831.315 180.549H828.127C827.822 180.526 827.58 180.29 827.557 179.99V163.123C827.557 162.786 827.831 162.518 828.172 162.518H831.144C831.454 162.532 831.7 162.777 831.723 163.082V165.287H831.781C832.557 163.156 834.014 162.162 835.978 162.162C837.973 162.162 839.219 163.156 840.116 165.287C840.887 163.156 842.64 162.162 844.519 162.162C845.855 162.162 847.316 162.73 848.209 164.006C849.217 165.425 849.011 167.487 849.011 169.294L849.007 179.939C849.007 180.277 848.733 180.549 848.392 180.549H845.209C844.891 180.526 844.635 180.263 844.635 179.939V171C844.635 170.288 844.698 168.513 844.546 167.838C844.308 166.706 843.595 166.387 842.671 166.387C841.9 166.387 841.093 166.918 840.766 167.769C840.439 168.619 840.47 170.043 840.47 171V179.939C840.47 180.277 840.197 180.549 839.856 180.549H836.673C836.35 180.526 836.099 180.263 836.099 179.939L836.094 171C836.094 169.118 836.395 166.35 834.13 166.35C831.839 166.35 831.929 169.049 831.929 171V179.939C831.929 180.277 831.655 180.549 831.315 180.549" fill="black"/>
<path fill-rule="evenodd" clip-rule="evenodd" d="M890.233 162.162C894.963 162.162 897.523 166.35 897.523 171.674C897.523 176.819 894.694 180.901 890.233 180.901C885.588 180.901 883.059 176.713 883.059 171.494C883.059 166.243 885.619 162.162 890.233 162.162ZM890.259 165.605C887.91 165.605 887.762 168.906 887.762 170.963C887.762 173.024 887.731 177.425 890.233 177.425C892.703 177.425 892.82 173.875 892.82 171.711C892.82 170.288 892.761 168.587 892.344 167.237C891.986 166.063 891.273 165.605 890.259 165.605Z" fill="black"/>
<path fill-rule="evenodd" clip-rule="evenodd" d="M903.656 180.549H900.482C900.164 180.526 899.908 180.263 899.908 179.939L899.904 163.068C899.931 162.758 900.195 162.518 900.518 162.518H903.473C903.751 162.532 903.979 162.726 904.042 162.989V165.568H904.1C904.992 163.262 906.243 162.162 908.445 162.162C909.875 162.162 911.269 162.693 912.166 164.149C913 165.499 913 167.769 913 169.4V180.018C912.964 180.314 912.7 180.549 912.386 180.549H909.189C908.898 180.526 908.655 180.304 908.624 180.018V170.856C908.624 169.012 908.83 166.313 906.629 166.313C905.853 166.313 905.14 166.849 904.786 167.662C904.338 168.693 904.28 169.719 904.28 170.856V179.939C904.275 180.277 903.997 180.549 903.656 180.549" fill="black"/>
<path fill-rule="evenodd" clip-rule="evenodd" d="M861.184 172.493C861.184 173.773 861.215 174.841 860.588 175.978C860.081 176.902 859.274 177.471 858.382 177.471C857.158 177.471 856.44 176.509 856.44 175.09C856.44 172.289 858.875 171.781 861.184 171.781V172.493ZM864.399 180.503C864.188 180.697 863.883 180.711 863.645 180.582C862.587 179.676 862.395 179.255 861.816 178.391C860.068 180.23 858.826 180.78 856.561 180.78C853.876 180.78 851.791 179.075 851.791 175.659C851.791 172.992 853.19 171.175 855.19 170.288C856.92 169.502 859.337 169.363 861.184 169.146V168.721C861.184 167.94 861.242 167.015 860.794 166.34C860.408 165.735 859.664 165.485 859.005 165.485C857.79 165.485 856.709 166.128 856.445 167.459C856.391 167.755 856.18 168.046 855.889 168.06L852.8 167.718C852.54 167.658 852.248 167.44 852.325 167.029C853.033 163.165 856.423 162 859.453 162C861.005 162 863.031 162.425 864.255 163.636C865.807 165.129 865.659 167.121 865.659 169.289V174.411C865.659 175.95 866.277 176.625 866.86 177.457C867.062 177.753 867.107 178.109 866.847 178.33C866.197 178.89 865.04 179.93 864.403 180.512L864.399 180.503" fill="black"/>
<path fill-rule="evenodd" clip-rule="evenodd" d="M819.393 172.493C819.393 173.773 819.424 174.841 818.797 175.978C818.29 176.902 817.487 177.471 816.591 177.471C815.367 177.471 814.654 176.51 814.654 175.091C814.654 172.289 817.088 171.781 819.393 171.781V172.493ZM822.608 180.503C822.397 180.697 822.092 180.711 821.854 180.582C820.796 179.676 820.608 179.255 820.025 178.391C818.277 180.23 817.039 180.781 814.77 180.781C812.089 180.781 810 179.075 810 175.659C810 172.992 811.403 171.175 813.399 170.288C815.129 169.502 817.546 169.364 819.393 169.146V168.721C819.393 167.94 819.451 167.015 819.007 166.341C818.617 165.735 817.873 165.485 817.218 165.485C816.003 165.485 814.918 166.128 814.654 167.459C814.6 167.755 814.389 168.046 814.102 168.06L811.009 167.718C810.749 167.658 810.462 167.441 810.534 167.029C811.246 163.165 814.631 162 817.662 162C819.214 162 821.24 162.425 822.464 163.637C824.015 165.13 823.868 167.122 823.868 169.29V174.411C823.868 175.95 824.486 176.625 825.069 177.457C825.275 177.753 825.32 178.109 825.06 178.331C824.41 178.89 823.253 179.93 822.617 180.512L822.608 180.503" fill="black"/>
</g>
</g>
<defs>
<filter id="filter0_d_22_110" x="-40" y="120" width="250" height="176" filterUnits="userSpaceOnUse" color-interpolation-filters="sRGB">
<feFlood flood-opacity="0" result="BackgroundImageFix"/>
<feColorMatrix in="SourceAlpha" type="matrix" values="0 0 0 0 0 0 0 0 0 0 0 0 0 0 0 0 0 0 127 0" result="hardAlpha"/>
<feOffset dy="30"/>
<feGaussianBlur stdDeviation="20"/>
<feColorMatrix type="matrix" values="0 0 0 0 0.831373 0 0 0 0 0.85098 0 0 0 0 0.909804 0 0 0 0.2 0"/>
<feBlend mode="normal" in2="BackgroundImageFix" result="effect1_dropShadow_22_110"/>
<feBlend mode="normal" in="SourceGraphic" in2="effect1_dropShadow_22_110" result="shape"/>
</filter>
<filter id="filter1_d_22_110" x="154" y="60" width="250" height="176" filterUnits="userSpaceOnUse" color-interpolation-filters="sRGB">
<feFlood flood-opacity="0" result="BackgroundImageFix"/>
<feColorMatrix in="SourceAlpha" type="matrix" values="0 0 0 0 0 0 0 0 0 0 0 0 0 0 0 0 0 0 127 0" result="hardAlpha"/>
<feOffset dy="30"/>
<feGaussianBlur stdDeviation="20"/>
<feColorMatrix type="matrix" values="0 0 0 0 0.831373 0 0 0 0 0.85098 0 0 0 0 0.909804 0 0 0 0.2 0"/>
<feBlend mode="normal" in2="BackgroundImageFix" result="effect1_dropShadow_22_110"/>
<feBlend mode="normal" in="SourceGraphic" in2="effect1_dropShadow_22_110" result="shape"/>
</filter>
<filter id="filter2_d_22_110" x="154" y="180" width="250" height="176" filterUnits="userSpaceOnUse" color-interpolation-filters="sRGB">
<feFlood flood-opacity="0" result="BackgroundImageFix"/>
<feColorMatrix in="SourceAlpha" type="matrix" values="0 0 0 0 0 0 0 0 0 0 0 0 0 0 0 0 0 0 127 0" result="hardAlpha"/>
<feOffset dy="30"/>
<feGaussianBlur stdDeviation="20"/>
<feColorMatrix type="matrix" values="0 0 0 0 0.831373 0 0 0 0 0.85098 0 0 0 0 0.909804 0 0 0 0.2 0"/>
<feBlend mode="normal" in2="BackgroundImageFix" result="effect1_dropShadow_22_110"/>
<feBlend mode="normal" in="SourceGraphic" in2="effect1_dropShadow_22_110" result="shape"/>
</filter>
<filter id="filter3_d_22_110" x="348" y="0" width="250" height="176" filterUnits="userSpaceOnUse" color-interpolation-filters="sRGB">
<feFlood flood-opacity="0" result="BackgroundImageFix"/>
<feColorMatrix in="SourceAlpha" type="matrix" values="0 0 0 0 0 0 0 0 0 0 0 0 0 0 0 0 0 0 127 0" result="hardAlpha"/>
<feOffset dy="30"/>
<feGaussianBlur stdDeviation="20"/>
<feColorMatrix type="matrix" values="0 0 0 0 0.831373 0 0 0 0 0.85098 0 0 0 0 0.909804 0 0 0 0.2 0"/>
<feBlend mode="normal" in2="BackgroundImageFix" result="effect1_dropShadow_22_110"/>
<feBlend mode="normal" in="SourceGraphic" in2="effect1_dropShadow_22_110" result="shape"/>
</filter>
<filter id="filter4_d_22_110" x="348" y="120" width="250" height="176" filterUnits="userSpaceOnUse" color-interpolation-filters="sRGB">
<feFlood flood-opacity="0" result="BackgroundImageFix"/>
<feColorMatrix in="SourceAlpha" type="matrix" values="0 0 0 0 0 0 0 0 0 0 0 0 0 0 0 0 0 0 127 0" result="hardAlpha"/>
<feOffset dy="30"/>
<feGaussianBlur stdDeviation="20"/>
<feColorMatrix type="matrix" values="0 0 0 0 0.831373 0 0 0 0 0.85098 0 0 0 0 0.909804 0 0 0 0.2 0"/>
<feBlend mode="normal" in2="BackgroundImageFix" result="effect1_dropShadow_22_110"/>
<feBlend mode="normal" in="SourceGraphic" in2="effect1_dropShadow_22_110" result="shape"/>
</filter>
<filter id="filter5_d_22_110" x="348" y="240" width="250" height="176" filterUnits="userSpaceOnUse" color-interpolation-filters="sRGB">
<feFlood flood-opacity="0" result="BackgroundImageFix"/>
<feColorMatrix in="SourceAlpha" type="matrix" values="0 0 0 0 0 0 0 0 0 0 0 0 0 0 0 0 0 0 127 0" result="hardAlpha"/>
<feOffset dy="30"/>
<feGaussianBlur stdDeviation="20"/>
<feColorMatrix type="matrix" values="0 0 0 0 0.831373 0 0 0 0 0.85098 0 0 0 0 0.909804 0 0 0 0.2 0"/>
<feBlend mode="normal" in2="BackgroundImageFix" result="effect1_dropShadow_22_110"/>
<feBlend mode="normal" in="SourceGraphic" in2="effect1_dropShadow_22_110" result="shape"/>
</filter>
<filter id="filter6_d_22_110" x="542" y="60" width="250" height="176" filterUnits="userSpaceOnUse" color-interpolation-filters="sRGB">
<feFlood flood-opacity="0" result="BackgroundImageFix"/>
<feColorMatrix in="SourceAlpha" type="matrix" values="0 0 0 0 0 0 0 0 0 0 0 0 0 0 0 0 0 0 127 0" result="hardAlpha"/>
<feOffset dy="30"/>
<feGaussianBlur stdDeviation="20"/>
<feColorMatrix type="matrix" values="0 0 0 0 0.831373 0 0 0 0 0.85098 0 0 0 0 0.909804 0 0 0 0.2 0"/>
<feBlend mode="normal" in2="BackgroundImageFix" result="effect1_dropShadow_22_110"/>
<feBlend mode="normal" in="SourceGraphic" in2="effect1_dropShadow_22_110" result="shape"/>
</filter>
<filter id="filter7_d_22_110" x="542" y="180" width="250" height="176" filterUnits="userSpaceOnUse" color-interpolation-filters="sRGB">
<feFlood flood-opacity="0" result="BackgroundImageFix"/>
<feColorMatrix in="SourceAlpha" type="matrix" values="0 0 0 0 0 0 0 0 0 0 0 0 0 0 0 0 0 0 127 0" result="hardAlpha"/>
<feOffset dy="30"/>
<feGaussianBlur stdDeviation="20"/>
<feColorMatrix type="matrix" values="0 0 0 0 0.831373 0 0 0 0 0.85098 0 0 0 0 0.909804 0 0 0 0.2 0"/>
<feBlend mode="normal" in2="BackgroundImageFix" result="effect1_dropShadow_22_110"/>
<feBlend mode="normal" in="SourceGraphic" in2="effect1_dropShadow_22_110" result="shape"/>
</filter>
<filter id="filter8_d_22_110" x="736" y="120" width="250" height="176" filterUnits="userSpaceOnUse" color-interpolation-filters="sRGB">
<feFlood flood-opacity="0" result="BackgroundImageFix"/>
<feColorMatrix in="SourceAlpha" type="matrix" values="0 0 0 0 0 0 0 0 0 0 0 0 0 0 0 0 0 0 127 0" result="hardAlpha"/>
<feOffset dy="30"/>
<feGaussianBlur stdDeviation="20"/>
<feColorMatrix type="matrix" values="0 0 0 0 0.831373 0 0 0 0 0.85098 0 0 0 0 0.909804 0 0 0 0.2 0"/>
<feBlend mode="normal" in2="BackgroundImageFix" result="effect1_dropShadow_22_110"/>
<feBlend mode="normal" in="SourceGraphic" in2="effect1_dropShadow_22_110" result="shape"/>
</filter>
<clipPath id="clip0_22_110">
<rect width="170" height="96" fill="white" transform="translate(0 130)"/>
</clipPath>
<clipPath id="clip1_22_110">
<rect width="103" height="32" fill="white" transform="translate(34 162)"/>
</clipPath>
<clipPath id="clip2_22_110">
<rect width="95" height="32" fill="white" transform="translate(232 102)"/>
</clipPath>
<clipPath id="clip3_22_110">
<rect width="122" height="26" fill="white" transform="translate(412 45)"/>
</clipPath>
<clipPath id="clip4_22_110">
<rect width="100" height="30" fill="white" transform="translate(423 163)"/>
</clipPath>
<clipPath id="clip5_22_110">
<rect width="120" height="28" fill="white" transform="translate(413 284)"/>
</clipPath>
<clipPath id="clip6_22_110">
<rect width="98" height="34" fill="white" transform="translate(618 221)"/>
</clipPath>
<clipPath id="clip7_22_110">
<rect width="170" height="96" fill="white" transform="translate(776 130)"/>
</clipPath>
<clipPath id="clip8_22_110">
<rect width="103" height="32" fill="white" transform="translate(810 162)"/>
</clipPath>
</defs>
</svg>
