<svg width="42" height="32" viewBox="0 0 42 32" fill="none" xmlns="http://www.w3.org/2000/svg">
<path d="M13.2776 25.942C13.5678 25.6518 13.5678 25.2054 13.2776 24.9152L4.5053 16.1429L13.2776 7.37054C13.5678 7.08036 13.5678 6.63393 13.2776 6.34375L12.1616 5.22768C11.8714 4.9375 11.4249 4.9375 11.1348 5.22768L0.732979 15.6295C0.442801 15.9196 0.442801 16.3661 0.732979 16.6562L11.1348 27.058C11.4249 27.3482 11.8714 27.3482 12.1616 27.058L13.2776 25.942ZM26.4696 2.125C26.5812 1.74554 26.358 1.34375 25.9785 1.23214L24.5946 0.852677C24.2374 0.741071 23.8357 0.964285 23.7241 1.34375L15.3982 30.1607C15.2866 30.5402 15.5098 30.942 15.8892 31.0536L17.2732 31.433C17.6303 31.5446 18.0321 31.3214 18.1437 30.942L26.4696 2.125ZM41.1348 16.6562C41.4249 16.3661 41.4249 15.9196 41.1348 15.6295L30.733 5.22768C30.4428 4.9375 29.9964 4.9375 29.7062 5.22768L28.5901 6.34375C28.2999 6.63393 28.2999 7.08036 28.5901 7.37054L37.3624 16.1429L28.5901 24.9152C28.2999 25.2054 28.2999 25.6518 28.5901 25.942L29.7062 27.058C29.9964 27.3482 30.4428 27.3482 30.733 27.058L41.1348 16.6562Z" fill="#0D446C"/>
</svg>
