<svg width="19" height="15" viewBox="0 0 19 15" fill="none" xmlns="http://www.w3.org/2000/svg">
<path d="M18.5 5.10312C18.1987 5.43459 17.8571 5.72589 17.4955 5.977C15.8181 7.11205 14.1306 8.25714 12.4933 9.4424C11.6496 10.0652 10.6049 10.8286 9.51005 10.8286H9.5H9.48996C8.39509 10.8286 7.35045 10.0652 6.5067 9.4424C4.86942 8.24709 3.18192 7.11205 1.51451 5.977C1.14286 5.72589 0.801339 5.43459 0.5 5.10312V13.0786C0.5 13.9625 1.22321 14.6857 2.10714 14.6857H16.8929C17.7768 14.6857 18.5 13.9625 18.5 13.0786V5.10312ZM18.5 2.14999C18.5 1.26606 17.7667 0.542851 16.8929 0.542851H2.10714C1.03237 0.542851 0.5 1.3866 0.5 2.37098C0.5 3.28504 1.51451 4.42008 2.22768 4.90223C3.7846 5.98705 5.36161 7.07187 6.91853 8.16673C7.57143 8.61874 8.67634 9.54285 9.48996 9.54285H9.5H9.51005C10.3237 9.54285 11.4286 8.61874 12.0815 8.16673C13.6384 7.07187 15.2154 5.98705 16.7824 4.90223C17.6663 4.2895 18.5 3.27499 18.5 2.14999Z" fill="#0D446C"/>
</svg>
