<svg width="15" height="15" viewBox="0 0 15 15" fill="none" xmlns="http://www.w3.org/2000/svg">
<path d="M14.5677 11.4268C14.5677 11.3565 14.5677 11.2862 14.5375 11.2158C14.4672 11.0049 13.975 10.7839 13.7741 10.6835C13.2016 10.362 12.619 10.0507 12.0565 9.71919C11.7953 9.55848 11.4739 9.25714 11.1625 9.25714C10.5498 9.25714 9.65583 11.0752 9.11342 11.0752C8.84222 11.0752 8.49065 10.8241 8.24958 10.6835C6.42146 9.66897 5.15583 8.40334 4.14132 6.57522C4.0007 6.33415 3.74958 5.98258 3.74958 5.71138C3.74958 5.16897 5.56766 4.27499 5.56766 3.66227C5.56766 3.35089 5.26632 3.02946 5.10561 2.7683C4.77414 2.2058 4.46275 1.62321 4.14132 1.05066C4.04088 0.84977 3.81989 0.357583 3.60896 0.28727C3.53864 0.257136 3.46833 0.257136 3.39802 0.257136C3.03641 0.257136 2.33329 0.417851 2.00181 0.56852C1.50963 0.779458 1.1882 1.34196 0.937081 1.79397C0.615653 2.3866 0.424805 2.98928 0.424805 3.66227C0.424805 4.59642 0.806501 5.44017 1.11789 6.29397C1.33887 6.90669 1.61007 7.49932 1.95159 8.05178C3.00628 9.75937 5.06543 11.8185 6.77302 12.8732C7.32547 13.2147 7.91811 13.4859 8.53083 13.7069C9.38463 14.0183 10.2284 14.4 11.1625 14.4C11.8355 14.4 12.4382 14.2091 13.0308 13.8877C13.4828 13.6366 14.0453 13.3152 14.2563 12.823C14.4069 12.4915 14.5677 11.7884 14.5677 11.4268Z" fill="#0D446C"/>
</svg>
