<svg width="30" height="26" viewBox="0 0 30 26" fill="none" xmlns="http://www.w3.org/2000/svg">
<path d="M13.8549 15.4745C13.8549 13.5817 12.3192 12.046 10.4263 12.046H6.42634C5.47991 12.046 4.71205 11.2781 4.71205 10.3317V9.76025C4.71205 7.2424 6.76563 5.18882 9.28348 5.18882H10.4263C11.0513 5.18882 11.5692 4.67097 11.5692 4.04597V1.76025C11.5692 1.13525 11.0513 0.617395 10.4263 0.617395H9.28348C4.24777 0.617395 0.140625 4.72454 0.140625 9.76025V22.3317C0.140625 24.2245 1.67634 25.7603 3.5692 25.7603H10.4263C12.3192 25.7603 13.8549 24.2245 13.8549 22.3317V15.4745ZM29.8549 15.4745C29.8549 13.5817 28.3192 12.046 26.4263 12.046H22.4263C21.4799 12.046 20.7121 11.2781 20.7121 10.3317V9.76025C20.7121 7.2424 22.7656 5.18882 25.2835 5.18882H26.4263C27.0513 5.18882 27.5692 4.67097 27.5692 4.04597V1.76025C27.5692 1.13525 27.0513 0.617395 26.4263 0.617395H25.2835C20.2478 0.617395 16.1406 4.72454 16.1406 9.76025V22.3317C16.1406 24.2245 17.6763 25.7603 19.5692 25.7603H26.4263C28.3192 25.7603 29.8549 24.2245 29.8549 22.3317V15.4745Z" fill="#EBEAED"/>
</svg>
