<svg width="35" height="12" viewBox="0 0 35 12" fill="none" xmlns="http://www.w3.org/2000/svg">
<g clip-path="url(#clip0_442_412)">
<path d="M14.7765 6.30747C14.7765 7.91796 13.5114 9.10469 11.9589 9.10469C10.4063 9.10469 9.14124 7.91796 9.14124 6.30747C9.14124 4.68564 10.4063 3.51025 11.9589 3.51025C13.5114 3.51025 14.7765 4.68564 14.7765 6.30747ZM13.5431 6.30747C13.5431 5.30108 12.8099 4.6125 11.9589 4.6125C11.1079 4.6125 10.3747 5.30108 10.3747 6.30747C10.3747 7.30378 11.1079 8.00245 11.9589 8.00245C12.8099 8.00245 13.5431 7.30252 13.5431 6.30747Z" fill="#EA4335"/>
<path d="M20.855 6.30747C20.855 7.91796 19.5899 9.10469 18.0374 9.10469C16.4848 9.10469 15.2197 7.91796 15.2197 6.30747C15.2197 4.6869 16.4848 3.51025 18.0374 3.51025C19.5899 3.51025 20.855 4.68564 20.855 6.30747ZM19.6216 6.30747C19.6216 5.30108 18.8884 4.6125 18.0374 4.6125C17.1864 4.6125 16.4532 5.30108 16.4532 6.30747C16.4532 7.30378 17.1864 8.00245 18.0374 8.00245C18.8884 8.00245 19.6216 7.30252 19.6216 6.30747Z" fill="#FBBC05"/>
<path d="M26.6802 3.67925V8.70113C26.6802 10.7669 25.4569 11.6106 24.0107 11.6106C22.6494 11.6106 21.8301 10.7038 21.5211 9.96227L22.5949 9.51709C22.7862 9.97236 23.2547 10.5096 24.0095 10.5096C24.9352 10.5096 25.5088 9.94083 25.5088 8.87012V8.46782H25.4658C25.1897 8.80706 24.6578 9.10343 23.9867 9.10343C22.5823 9.10343 21.2957 7.88517 21.2957 6.31756C21.2957 4.73861 22.5823 3.51025 23.9867 3.51025C24.6566 3.51025 25.1885 3.80662 25.4658 4.13578H25.5088V3.68051H26.6802V3.67925ZM25.5962 6.31756C25.5962 5.33261 24.9364 4.61249 24.0968 4.61249C23.2459 4.61249 22.5329 5.33261 22.5329 6.31756C22.5329 7.29243 23.2459 8.00245 24.0968 8.00245C24.9364 8.00245 25.5962 7.29243 25.5962 6.31756Z" fill="#4285F4"/>
<path d="M28.6115 0.73584V8.93328H27.4084V0.73584H28.6115Z" fill="#34A853"/>
<path d="M33.2996 7.22815L34.257 7.86377C33.948 8.31904 33.2034 9.10347 31.9168 9.10347C30.3212 9.10347 29.1295 7.87512 29.1295 6.30625C29.1295 4.6428 30.3313 3.50903 31.7787 3.50903C33.2363 3.50903 33.9493 4.66424 34.1823 5.28851L34.3102 5.60632L30.5554 7.155C30.8429 7.71621 31.2899 8.00249 31.9168 8.00249C32.5449 8.00249 32.9805 7.69477 33.2996 7.22815ZM30.3528 6.22176L32.8628 5.18383C32.7247 4.8345 32.3094 4.5911 31.8205 4.5911C31.1937 4.5911 30.3212 5.14222 30.3528 6.22176Z" fill="#EA4335"/>
<path d="M4.58746 5.57988V4.39314H8.6031C8.64235 4.59997 8.66261 4.84463 8.66261 5.10947C8.66261 5.99984 8.41821 7.10082 7.63053 7.88525C6.86438 8.67977 5.88548 9.10352 4.58873 9.10352C2.18518 9.10352 0.164062 7.15379 0.164062 4.76013C0.164062 2.36648 2.18518 0.416748 4.58873 0.416748C5.91841 0.416748 6.86565 0.93634 7.57734 1.61357L6.73648 2.45098C6.22613 1.97426 5.5347 1.60349 4.58746 1.60349C2.83229 1.60349 1.45955 3.01219 1.45955 4.76013C1.45955 6.50808 2.83229 7.91678 4.58746 7.91678C5.72592 7.91678 6.3743 7.46151 6.78967 7.04785C7.12652 6.71239 7.34813 6.23315 7.43551 5.57862L4.58746 5.57988Z" fill="#4285F4"/>
</g>
<defs>
<clipPath id="clip0_442_412">
<rect width="34.445" height="11.6025" fill="white" transform="translate(0.118408 0.357422)"/>
</clipPath>
</defs>
</svg>
