<svg width="48" height="27" viewBox="0 0 48 27" fill="none" xmlns="http://www.w3.org/2000/svg">
<path d="M34.2844 26.9994C30.3489 26.9979 26.6033 25.3344 23.9983 22.431C19.8221 27.0906 12.9536 28.342 7.35956 25.4626C1.7655 22.5831 -1.10862 16.3168 0.397106 10.2827C1.90283 4.24857 7.39933 0.00579011 13.7122 0.00472431C15.8696 -0.000335133 17.9971 0.500911 19.9184 1.4669C18.4199 3.19617 17.2589 5.183 16.4937 7.32739C13.7182 6.11743 10.4647 6.84776 8.49663 9.12255C6.52857 11.3973 6.31445 14.6751 7.97031 17.1792C9.62617 19.6833 12.7578 20.8178 15.6679 19.9676C18.5781 19.1175 20.5738 16.4851 20.5736 13.4973C20.5736 6.04296 26.7132 0 34.2868 0C41.8604 0 48 6.04296 48 13.4973C48 20.9517 41.8604 26.9947 34.2868 26.9947L34.2844 26.9994ZM27.4302 13.7383C27.496 17.4419 30.5825 20.401 34.3457 20.3686C38.109 20.3362 41.1423 17.3243 41.1423 13.6202C41.1423 9.91602 38.109 6.90417 34.3457 6.87176C30.5825 6.83934 27.496 9.79848 27.4302 13.5021V13.7383Z" fill="#0D446C"/>
</svg>
