<svg width="1413" height="2200" viewBox="0 0 1413 2200" fill="none" xmlns="http://www.w3.org/2000/svg">
<g opacity="0.05">
<path d="M1300.07 606.318C1588.83 473.856 1870.48 389.256 2092.39 359.549C2203.35 344.696 2299.35 343.57 2373.82 357.03C2448.31 370.491 2501.16 398.52 2526.01 441.886C2550.86 485.253 2545.45 540.008 2514.19 601.978C2482.93 663.938 2425.88 733.02 2347.63 804.96C2191.14 948.835 1949.97 1104.06 1661.21 1236.53C1372.44 1368.99 1090.8 1453.59 868.885 1483.29C757.925 1498.15 661.929 1499.27 587.455 1485.81C512.969 1472.35 460.119 1444.32 435.268 1400.96C410.417 1357.59 415.828 1302.84 447.088 1240.87C478.344 1178.91 535.398 1109.82 613.645 1037.88C770.135 894.009 1011.31 738.781 1300.07 606.318Z" stroke="url(#paint0_linear_22_246)" stroke-opacity="0.3"/>
<path d="M1307.67 602.891C1598.49 474.107 1881.14 393.221 2103.02 366.544C2213.96 353.206 2309.68 353.425 2383.62 367.968C2457.58 382.513 2509.63 411.363 2533.44 455.2C2557.24 499.038 2550.62 553.871 2518.08 615.578C2485.54 677.275 2427.12 745.753 2347.51 816.798C2188.3 958.885 1944.42 1111.17 1653.6 1239.95C1362.79 1368.74 1080.14 1449.62 858.256 1476.3C747.312 1489.64 651.592 1489.42 577.652 1474.88C503.7 1460.33 451.643 1431.48 427.839 1387.64C404.035 1343.81 410.652 1288.97 443.198 1227.27C475.739 1165.57 534.158 1097.09 613.766 1026.05C772.978 883.959 1016.86 731.676 1307.67 602.891Z" stroke="url(#paint1_linear_22_246)" stroke-opacity="0.3"/>
<path d="M1315.33 599.561C1608.11 474.493 1891.68 397.345 2113.46 373.708C2224.35 361.889 2319.77 363.452 2393.15 379.074C2466.55 394.698 2517.79 424.361 2540.54 468.656C2563.29 512.951 2555.47 567.846 2521.65 629.272C2487.83 690.687 2428.07 758.539 2347.12 828.668C2185.24 968.923 1938.72 1118.21 1645.94 1243.28C1353.16 1368.35 1069.6 1445.5 847.815 1469.14C736.922 1480.95 641.507 1479.39 568.124 1463.77C494.729 1448.14 443.48 1418.48 420.73 1374.19C397.981 1329.89 405.801 1275 439.624 1213.57C473.441 1152.16 533.205 1084.3 614.15 1014.18C776.036 873.92 1022.55 724.629 1315.33 599.561Z" stroke="url(#paint2_linear_22_246)" stroke-opacity="0.3"/>
<path d="M1323.04 596.329C1617.69 475.016 1902.1 401.63 2123.71 381.038C2234.52 370.742 2329.6 373.649 2402.4 390.345C2475.22 407.045 2525.64 437.511 2547.33 482.25C2569.02 526.989 2560 581.93 2524.91 643.055C2489.83 704.17 2428.73 771.375 2346.48 840.567C2181.97 978.948 1932.89 1125.2 1638.24 1246.51C1343.58 1367.83 1059.18 1441.21 837.568 1461.81C726.759 1472.1 631.679 1469.19 558.875 1452.5C486.059 1435.8 435.634 1405.33 413.946 1360.59C392.257 1315.85 401.279 1260.91 436.367 1199.79C471.45 1138.67 532.542 1071.47 614.799 1002.28C779.31 863.896 1028.39 717.642 1323.04 596.329Z" stroke="url(#paint3_linear_22_246)" stroke-opacity="0.3"/>
<path d="M1330.8 593.196C1627.23 475.676 1912.38 406.073 2133.76 388.534C2244.45 379.764 2339.17 384.014 2411.37 401.78C2483.58 419.548 2533.17 450.809 2553.79 495.978C2574.41 541.148 2564.19 596.117 2527.85 656.923C2491.51 717.719 2429.11 784.257 2345.56 852.491C2178.48 988.955 1926.92 1132.13 1630.48 1249.65C1334.04 1367.17 1048.89 1436.77 827.517 1454.31C716.826 1463.08 622.108 1458.83 549.906 1441.07C477.691 1423.3 428.106 1392.04 407.485 1346.87C386.864 1301.7 397.084 1246.73 433.428 1185.92C469.765 1125.13 532.167 1058.59 615.711 990.354C782.796 853.89 1034.36 710.717 1330.8 593.196Z" stroke="url(#paint4_linear_22_246)" stroke-opacity="0.3"/>
<path d="M1338.6 590.163C1636.73 476.47 1922.54 410.672 2143.61 396.191C2254.15 388.95 2348.48 394.541 2420.05 413.371C2491.65 432.204 2540.38 464.249 2559.92 509.835C2579.47 555.421 2568.06 610.403 2530.47 670.872C2492.89 731.33 2429.19 797.181 2344.39 864.435C2174.78 998.941 1920.81 1138.99 1622.68 1252.68C1324.55 1366.37 1038.74 1432.17 817.665 1446.65C707.125 1453.89 612.8 1448.3 541.221 1429.47C469.63 1410.64 420.899 1378.6 401.352 1333.01C381.805 1287.42 393.22 1232.44 430.808 1171.97C468.389 1111.51 532.081 1045.66 616.887 978.409C786.495 843.903 1040.47 703.855 1338.6 590.163Z" stroke="url(#paint5_linear_22_246)" stroke-opacity="0.3"/>
<path d="M1346.44 587.23C1646.18 477.399 1932.56 415.427 2153.26 404.008C2263.61 398.298 2357.52 405.229 2428.45 425.117C2499.4 445.008 2547.26 477.828 2565.73 523.817C2584.2 569.807 2571.59 624.784 2532.77 684.896C2493.95 744.998 2428.99 810.142 2342.95 876.397C2170.87 1008.9 1914.57 1145.78 1614.83 1255.61C1315.1 1365.44 1028.72 1427.42 808.014 1438.84C697.66 1444.54 603.756 1437.61 532.822 1417.73C461.876 1397.84 414.014 1365.02 395.547 1319.03C377.079 1273.04 389.687 1218.06 428.507 1157.95C467.321 1097.84 532.283 1032.7 618.326 966.446C790.406 833.94 1046.71 697.06 1346.44 587.23Z" stroke="url(#paint6_linear_22_246)" stroke-opacity="0.3"/>
<path d="M1354.33 584.399C1655.57 478.464 1942.44 420.336 2162.7 411.983C2272.84 407.806 2366.29 416.074 2436.56 437.014C2506.84 457.958 2553.82 491.542 2571.2 537.921C2588.58 584.3 2574.79 639.256 2534.75 698.994C2494.71 758.721 2428.5 823.138 2341.25 888.373C2166.75 1018.84 1908.19 1152.51 1606.95 1258.44C1305.7 1364.38 1018.83 1422.51 798.569 1430.86C688.433 1435.04 594.979 1426.77 524.712 1405.83C454.433 1384.89 407.454 1351.3 390.072 1304.92C372.69 1258.54 386.486 1203.59 426.527 1143.85C466.561 1084.12 532.775 1019.7 620.027 954.47C794.526 824.004 1053.08 690.333 1354.33 584.399Z" stroke="url(#paint7_linear_22_246)" stroke-opacity="0.3"/>
<path d="M1362.25 581.67C1664.92 479.664 1952.18 425.398 2171.94 420.112C2281.83 417.469 2374.8 427.073 2444.38 449.059C2513.97 471.048 2560.05 505.387 2576.34 552.141C2592.63 598.896 2577.66 653.813 2536.41 713.159C2495.16 772.494 2427.72 836.163 2339.28 900.359C2162.42 1028.75 1901.69 1159.17 1599.02 1261.17C1296.36 1363.18 1009.09 1417.44 789.332 1422.73C679.449 1425.37 586.472 1415.77 516.894 1393.78C447.303 1371.79 401.222 1337.45 384.931 1290.7C368.639 1243.95 383.619 1189.03 424.868 1129.68C466.111 1070.35 533.556 1006.68 621.991 942.483C798.856 814.097 1059.58 683.677 1362.25 581.67Z" stroke="url(#paint8_linear_22_246)" stroke-opacity="0.3"/>
<path d="M1370.21 579.046C1674.21 480.999 1961.78 430.611 2180.97 428.395C2290.57 427.287 2383.04 438.223 2451.91 461.248C2520.79 484.277 2565.96 519.36 2581.15 566.475C2596.35 613.59 2580.19 668.454 2537.74 727.388C2495.3 786.313 2426.65 849.216 2337.06 912.352C2157.88 1038.62 1895.06 1165.75 1591.06 1263.8C1287.07 1361.84 999.494 1412.23 780.306 1414.45C670.709 1415.56 578.239 1404.62 509.369 1381.6C440.488 1358.57 395.319 1323.48 380.123 1276.37C364.927 1229.25 381.086 1174.39 423.532 1115.45C465.97 1056.53 534.625 993.627 624.216 930.491C803.394 804.223 1066.22 677.093 1370.21 579.046Z" stroke="url(#paint9_linear_22_246)" stroke-opacity="0.3"/>
<path d="M1378.21 576.526C1683.44 482.468 1971.23 435.974 2189.78 436.828C2299.06 437.256 2391 449.521 2459.13 473.577C2527.28 497.638 2571.53 533.455 2585.62 580.917C2599.72 628.379 2582.39 683.171 2538.76 741.677C2495.14 800.173 2425.29 862.291 2334.57 924.348C2153.14 1048.46 1888.3 1172.26 1583.07 1266.32C1277.84 1360.38 990.042 1406.87 771.493 1406.02C662.215 1405.59 570.279 1393.32 502.141 1369.27C433.99 1345.21 389.746 1309.39 375.65 1261.93C361.554 1214.46 378.888 1159.67 422.517 1101.17C466.138 1042.67 535.982 980.553 626.702 918.496C808.138 794.385 1072.97 670.584 1378.21 576.526Z" stroke="url(#paint10_linear_22_246)" stroke-opacity="0.3"/>
<path d="M1386.23 574.109C1692.6 484.069 1980.53 441.483 2198.38 445.407C2307.3 447.37 2398.68 460.96 2466.06 486.041C2533.46 511.127 2576.77 547.666 2589.76 595.461C2602.75 643.256 2584.25 697.96 2539.45 756.019C2494.66 814.068 2423.65 875.382 2331.83 936.342C2148.19 1058.26 1881.42 1178.69 1575.04 1268.73C1268.67 1358.77 980.74 1401.36 762.896 1397.43C653.97 1395.47 562.597 1381.88 495.21 1356.8C427.811 1331.72 384.506 1295.18 371.514 1247.38C358.522 1199.59 377.025 1144.88 421.824 1086.82C466.615 1028.77 537.627 967.46 629.448 906.5C813.086 784.584 1079.86 664.149 1386.23 574.109Z" stroke="url(#paint11_linear_22_246)" stroke-opacity="0.3"/>
<path d="M1394.28 571.799C1701.71 485.804 1989.68 447.139 2206.76 454.132C2315.3 457.629 2406.08 472.54 2472.69 498.639C2539.32 524.741 2581.67 561.992 2593.56 610.105C2605.44 658.218 2585.77 712.818 2539.82 770.413C2493.87 827.998 2421.71 888.489 2328.82 948.332C2143.04 1068.02 1874.41 1185.05 1566.99 1271.04C1259.57 1357.04 971.59 1395.7 754.517 1388.71C645.978 1385.21 555.195 1370.3 488.58 1344.2C421.953 1318.1 379.599 1280.85 367.716 1232.74C355.832 1184.62 375.499 1130.02 421.454 1072.43C467.4 1014.84 539.559 954.353 632.454 894.509C818.238 774.825 1086.86 657.794 1394.28 571.799Z" stroke="url(#paint12_linear_22_246)" stroke-opacity="0.3"/>
<path d="M1402.36 569.594C1710.74 487.671 1998.68 452.939 2214.91 462.999C2323.03 468.029 2413.2 484.257 2479.02 511.364C2544.86 538.476 2586.25 576.427 2597.02 624.844C2607.79 673.261 2586.96 727.739 2539.87 784.852C2492.78 841.955 2419.5 901.605 2325.56 960.314C2137.68 1077.73 1867.29 1191.32 1558.91 1273.25C1250.53 1355.17 962.595 1389.9 746.36 1379.84C638.24 1374.81 548.075 1358.58 482.252 1331.48C416.417 1304.36 375.028 1266.41 364.257 1218C353.485 1169.58 374.31 1115.1 421.407 1057.99C468.495 1000.89 541.779 941.236 635.718 882.526C823.592 765.111 1093.98 651.518 1402.36 569.594Z" stroke="url(#paint13_linear_22_246)" stroke-opacity="0.3"/>
<path d="M1410.47 567.499C1719.71 489.672 2007.52 458.883 2222.85 472.007C2330.52 478.569 2420.03 496.108 2485.05 524.216C2550.07 552.329 2590.48 590.969 2600.14 639.674C2609.79 688.38 2587.82 742.721 2539.59 799.335C2491.38 855.939 2416.99 914.729 2322.03 972.286C2132.13 1087.4 1860.05 1197.52 1550.81 1275.34C1241.57 1353.17 953.758 1383.96 738.427 1370.84C630.759 1364.27 541.24 1346.73 476.228 1318.63C411.206 1290.51 370.795 1251.87 361.138 1203.17C351.481 1154.46 373.458 1100.12 421.682 1043.51C469.898 986.904 544.284 928.114 639.24 870.557C829.146 755.445 1101.23 645.326 1410.47 567.499Z" stroke="url(#paint14_linear_22_246)" stroke-opacity="0.3"/>
<path d="M1418.59 565.51C1728.6 491.803 2016.19 464.966 2230.55 481.15C2337.74 489.242 2426.58 508.088 2490.76 537.188C2554.95 566.293 2594.38 605.61 2602.91 654.59C2611.45 703.57 2588.33 757.757 2538.99 813.854C2489.67 869.942 2414.2 927.854 2318.26 984.241C2126.38 1097.01 1852.69 1203.63 1542.68 1277.33C1232.68 1351.04 945.082 1377.88 730.721 1361.69C623.537 1353.6 534.691 1334.75 470.511 1305.65C406.321 1276.55 366.899 1237.23 358.361 1188.25C349.822 1139.27 372.944 1085.09 422.281 1028.99C471.61 972.901 547.075 914.989 643.018 858.601C834.899 745.829 1108.59 639.217 1418.59 565.51Z" stroke="url(#paint15_linear_22_246)" stroke-opacity="0.3"/>
<path d="M1426.74 563.629C1737.42 494.065 2024.71 471.189 2238.03 490.428C2344.7 500.047 2432.84 520.194 2496.17 550.277C2559.51 580.365 2597.93 620.347 2605.35 669.587C2612.77 718.826 2588.51 772.843 2538.07 828.406C2487.65 883.96 2411.12 940.977 2314.22 996.178C2120.43 1106.58 1845.22 1209.65 1534.54 1279.21C1223.86 1348.78 936.569 1371.65 723.242 1352.41C616.575 1342.8 528.429 1322.65 465.101 1292.57C401.763 1262.48 363.342 1222.5 355.924 1173.26C348.506 1124.02 372.766 1070 423.201 1014.44C473.628 958.882 550.149 901.865 647.051 846.665C840.848 736.267 1116.06 633.194 1426.74 563.629Z" stroke="url(#paint16_linear_22_246)" stroke-opacity="0.3"/>
<path d="M1434.9 561.858C1746.15 496.457 2033.05 477.549 2245.28 499.836C2351.4 510.98 2438.82 532.421 2501.27 563.479C2563.74 594.541 2601.15 635.175 2607.44 684.66C2613.74 734.144 2588.35 787.974 2536.83 842.986C2485.32 897.99 2407.77 954.095 2309.94 1008.09C2114.28 1116.08 1837.64 1215.58 1526.38 1280.99C1215.12 1346.39 928.222 1365.29 715.994 1343.01C609.878 1331.86 522.458 1310.42 460.001 1279.36C397.534 1248.3 360.126 1207.67 353.831 1158.18C347.536 1108.7 372.927 1054.87 424.445 999.856C475.954 944.852 553.508 888.748 651.338 834.751C846.993 726.76 1123.64 627.258 1434.9 561.858Z" stroke="url(#paint17_linear_22_246)" stroke-opacity="0.3"/>
<path d="M1443.07 560.195C1754.81 498.978 2041.23 484.043 2252.29 509.373C2357.83 522.038 2444.5 544.767 2506.06 576.789C2567.64 608.816 2604.02 650.091 2609.19 699.805C2614.36 749.519 2587.85 803.145 2535.26 857.59C2482.69 912.027 2404.13 967.202 2305.4 1019.98C2107.94 1125.53 1829.95 1221.43 1518.2 1282.65C1206.46 1343.86 920.042 1358.8 708.979 1333.47C603.445 1320.8 516.779 1298.08 455.212 1266.05C393.635 1234.03 357.251 1192.75 352.081 1143.04C346.911 1093.32 373.425 1039.7 426.009 985.251C478.585 930.815 557.149 875.64 655.878 822.863C853.33 717.313 1131.33 621.412 1443.07 560.195Z" stroke="url(#paint18_linear_22_246)" stroke-opacity="0.3"/>
<path d="M1451.26 558.642C1763.39 501.628 2049.24 490.671 2259.07 519.035C2364 533.218 2449.88 557.227 2510.54 590.204C2571.21 623.187 2606.56 665.089 2610.6 715.018C2614.64 764.947 2587.01 818.354 2533.38 872.215C2479.75 926.068 2400.2 980.296 2300.61 1031.84C2101.42 1134.91 1822.15 1227.18 1510.02 1284.2C1197.89 1341.21 912.034 1352.17 702.2 1323.81C597.279 1309.62 511.393 1285.61 450.735 1252.64C390.067 1219.66 354.719 1177.75 350.675 1127.82C346.632 1077.89 374.261 1024.49 427.895 970.627C481.522 916.774 561.072 862.546 660.669 811.006C859.858 707.928 1139.13 615.657 1451.26 558.642Z" stroke="url(#paint19_linear_22_246)" stroke-opacity="0.3"/>
<path d="M1459.45 557.201C1771.87 504.406 2057.08 497.431 2265.62 528.821C2369.89 544.516 2454.97 569.799 2514.7 603.721C2574.44 637.649 2608.75 680.166 2611.66 730.295C2614.58 780.424 2585.84 833.594 2531.17 886.855C2476.51 940.107 2396 993.373 2295.56 1043.66C2094.7 1144.24 1814.25 1232.85 1501.82 1285.64C1189.4 1338.44 904.199 1345.41 695.657 1314.02C591.383 1298.33 506.303 1273.04 446.572 1239.12C386.831 1205.2 352.529 1162.68 349.613 1112.55C346.698 1062.42 375.434 1009.25 430.103 955.989C484.763 902.736 565.274 849.471 665.71 799.182C866.576 698.608 1147.03 609.996 1459.45 557.201Z" stroke="url(#paint20_linear_22_246)" stroke-opacity="0.3"/>
<path d="M1467.65 555.869C1780.27 507.31 2064.73 504.318 2271.92 538.724C2375.52 555.928 2459.76 582.476 2518.55 617.333C2577.35 652.195 2610.59 695.315 2612.38 745.628C2614.17 795.941 2584.33 848.859 2528.64 901.503C2472.97 954.14 2391.52 1006.43 2290.27 1055.45C2087.79 1153.49 1806.24 1238.41 1493.62 1286.97C1181 1335.53 896.539 1338.52 689.353 1304.12C585.758 1286.91 501.51 1260.36 442.723 1225.51C383.929 1190.65 350.683 1147.53 348.896 1097.21C347.109 1046.9 376.943 993.982 432.63 941.338C488.308 888.702 569.756 836.415 670.999 787.394C873.481 689.355 1155.03 604.428 1467.65 555.869Z" stroke="url(#paint21_linear_22_246)" stroke-opacity="0.3"/>
<path d="M1475.86 554.65C1788.58 510.341 2072.22 511.334 2277.98 548.745C2380.87 567.452 2464.26 595.258 2522.08 631.039C2579.91 666.824 2612.09 710.534 2612.75 761.016C2613.41 811.499 2582.48 864.149 2525.8 916.16C2469.12 968.164 2386.76 1019.46 2284.74 1067.19C2080.7 1162.67 1798.14 1243.88 1485.42 1288.19C1172.69 1332.5 889.058 1331.51 683.291 1294.1C580.405 1275.39 497.015 1247.58 439.192 1211.8C381.361 1176.02 349.182 1132.31 348.524 1081.83C347.866 1031.34 378.79 978.694 435.477 926.683C492.156 874.679 574.516 823.387 676.536 775.649C880.571 680.174 1163.13 598.958 1475.86 554.65Z" stroke="url(#paint22_linear_22_246)" stroke-opacity="0.3"/>
<path d="M1484.07 553.541C1796.8 513.496 2079.52 518.473 2283.8 558.879C2385.95 579.083 2468.46 608.139 2525.3 644.832C2582.15 681.531 2613.25 725.816 2612.78 776.452C2612.31 827.089 2580.3 879.455 2522.63 930.817C2464.97 982.173 2381.72 1032.45 2278.96 1078.9C2073.43 1171.78 1789.94 1249.26 1477.21 1289.3C1164.48 1329.35 881.756 1324.37 677.472 1283.96C575.327 1263.76 492.819 1234.7 435.977 1198.01C379.127 1161.31 348.025 1117.03 348.496 1066.39C348.968 1015.75 380.972 963.387 438.642 912.025C496.305 860.669 579.551 810.388 682.317 763.946C887.844 671.065 1171.33 593.586 1484.07 553.541Z" stroke="url(#paint23_linear_22_246)" stroke-opacity="0.3"/>
<path d="M1492.27 552.545C1804.92 516.776 2086.64 525.736 2289.38 569.124C2390.75 590.818 2472.35 621.114 2528.19 658.71C2584.05 696.31 2614.06 741.158 2612.46 791.933C2610.86 842.709 2577.79 894.774 2519.15 945.472C2460.52 996.164 2376.41 1045.42 2272.93 1090.55C2065.98 1180.81 1781.65 1254.53 1469 1290.3C1156.36 1326.07 874.637 1317.11 671.897 1273.72C570.524 1252.02 488.925 1221.73 433.081 1184.13C377.229 1146.53 347.212 1101.68 348.814 1050.91C350.415 1000.13 383.489 948.068 442.125 897.37C500.753 846.678 584.861 797.423 688.342 752.292C895.297 662.033 1179.63 588.313 1492.27 552.545Z" stroke="url(#paint24_linear_22_246)" stroke-opacity="0.3"/>
<path d="M1500.47 551.661C1812.93 520.179 2093.57 533.119 2294.71 579.475C2395.28 602.654 2475.94 634.182 2530.77 672.668C2585.61 711.158 2614.53 756.555 2611.8 807.453C2609.07 858.352 2574.93 910.102 2515.35 960.12C2455.77 1010.13 2370.83 1058.35 2266.67 1102.15C2058.35 1189.76 1773.26 1259.7 1460.8 1291.18C1148.34 1322.66 867.703 1309.72 666.568 1263.37C565.998 1240.19 485.332 1208.66 430.503 1170.17C375.668 1131.68 346.745 1086.29 349.476 1035.39C352.206 984.49 386.34 932.741 445.924 882.722C505.5 832.71 590.444 784.497 694.608 740.69C902.929 653.08 1188.01 583.142 1500.47 551.661Z" stroke="url(#paint25_linear_22_246)" stroke-opacity="0.3"/>
<path d="M1508.67 550.89C1820.85 523.705 2100.32 540.62 2299.79 589.932C2399.52 614.588 2479.23 647.337 2533.03 686.701C2586.83 726.07 2614.65 772.002 2610.79 823.009C2606.93 874.015 2571.75 925.433 2511.24 974.757C2450.73 1024.07 2364.98 1071.23 2260.16 1113.7C2050.54 1198.64 1764.79 1264.77 1452.6 1291.95C1140.42 1319.14 860.955 1302.22 661.487 1252.91C561.751 1228.26 482.043 1195.51 428.246 1156.14C374.442 1116.77 346.624 1070.84 350.483 1019.83C354.342 968.828 389.525 917.41 450.038 868.087C510.545 818.769 596.298 771.611 701.113 729.143C910.737 644.208 1196.49 578.074 1508.67 550.89Z" stroke="url(#paint26_linear_22_246)" stroke-opacity="0.3"/>
<path d="M1516.86 550.23C1828.67 527.35 2106.88 548.236 2304.62 600.487C2403.49 626.613 2482.22 660.574 2534.97 700.805C2587.72 741.04 2614.43 787.493 2609.44 838.592C2604.45 889.692 2568.23 940.762 2506.81 989.376C2445.39 1037.98 2358.85 1084.07 2253.42 1125.19C2042.56 1207.42 1756.23 1269.73 1444.42 1292.61C1132.61 1315.49 854.395 1294.61 656.656 1242.35C557.784 1216.23 479.058 1182.27 426.309 1142.04C373.554 1101.8 346.848 1055.35 351.834 1004.25C356.82 953.15 393.043 902.079 454.467 853.466C515.885 804.858 602.423 758.77 707.856 717.653C918.718 635.42 1205.05 573.11 1516.86 550.23Z" stroke="url(#paint27_linear_22_246)" stroke-opacity="0.3"/>
<path d="M1525.03 549.684C1836.38 531.117 2113.25 555.967 2309.2 611.141C2407.18 638.729 2484.9 673.891 2536.58 714.976C2588.27 756.066 2613.86 803.026 2607.75 854.202C2601.63 905.379 2564.38 956.086 2502.07 1003.98C2439.75 1051.86 2352.46 1096.86 2246.44 1136.62C2034.4 1216.12 1747.58 1274.59 1436.24 1293.16C1124.9 1311.73 848.027 1286.87 652.076 1231.7C554.098 1204.11 476.378 1168.95 424.693 1127.87C373.003 1086.78 347.417 1039.82 353.529 988.639C359.641 937.463 396.892 886.755 459.209 838.867C521.519 790.983 608.814 745.98 714.835 706.226C926.872 626.72 1213.69 568.252 1525.03 549.684Z" stroke="url(#paint28_linear_22_246)" stroke-opacity="0.3"/>
<path d="M1533.2 549.253C1843.98 535.003 2119.42 563.81 2313.53 621.891C2410.58 650.932 2487.27 687.285 2537.88 729.212C2588.48 771.143 2612.94 818.596 2605.71 869.834C2598.47 921.072 2560.2 971.401 2497.01 1018.55C2433.83 1065.69 2345.8 1109.6 2239.23 1147.98C2026.08 1224.73 1738.85 1279.34 1428.08 1293.59C1117.3 1307.84 841.851 1279.03 647.748 1220.95C550.694 1191.91 474.004 1155.56 423.399 1113.63C372.79 1071.7 348.331 1024.25 355.568 973.01C362.804 921.772 401.072 871.443 464.262 824.294C527.446 777.149 615.472 733.244 722.048 694.865C935.193 618.111 1222.42 563.503 1533.2 549.253Z" stroke="url(#paint29_linear_22_246)" stroke-opacity="0.3"/>
<path d="M1541.35 548.933C1851.47 539.005 2125.4 571.76 2317.6 632.73C2413.7 663.216 2489.34 700.748 2538.85 743.504C2588.36 786.264 2611.68 834.195 2603.33 885.479C2594.97 936.763 2555.69 986.698 2491.65 1033.09C2427.61 1079.49 2338.88 1122.28 2231.78 1159.27C2017.59 1233.25 1730.05 1283.98 1419.93 1293.91C1109.81 1303.84 835.87 1271.08 643.674 1210.11C547.574 1179.63 471.936 1142.09 422.427 1099.34C372.913 1056.58 349.59 1008.65 357.949 957.363C366.307 906.079 405.58 856.144 469.625 809.748C533.663 763.357 622.393 720.563 729.491 683.572C943.681 609.592 1231.23 558.861 1541.35 548.933Z" stroke="url(#paint30_linear_22_246)" stroke-opacity="0.3"/>
<path d="M1549.48 548.727C1858.84 543.123 2131.19 579.817 2321.42 643.657C2416.54 675.578 2491.1 714.278 2539.5 757.85C2587.9 801.426 2610.08 849.822 2600.6 901.136C2591.12 952.45 2550.86 1001.98 2485.98 1047.6C2421.11 1093.23 2331.7 1134.9 2224.11 1170.49C2008.94 1241.67 1721.17 1288.51 1411.8 1294.12C1102.43 1299.72 830.085 1263.03 639.855 1199.18C544.737 1167.26 470.175 1128.56 421.777 1084.99C373.374 1041.42 351.194 993.02 360.672 941.706C370.15 890.392 410.417 840.865 475.296 795.238C540.169 749.614 629.576 707.944 737.163 672.352C952.333 601.168 1240.11 554.33 1549.48 548.727Z" stroke="url(#paint31_linear_22_246)" stroke-opacity="0.3"/>
<path d="M1557.58 548.635C1866.11 547.358 2136.78 587.978 2324.98 654.67C2419.09 688.016 2492.55 727.872 2539.82 772.247C2587.1 816.626 2608.13 865.47 2597.54 916.799C2586.94 968.129 2545.69 1017.23 2480 1062.08C2414.31 1106.92 2324.26 1147.45 2216.21 1181.64C2000.13 1250 1712.21 1292.93 1403.69 1294.21C1095.17 1295.48 824.498 1254.86 636.292 1188.17C542.186 1154.83 468.723 1114.97 421.449 1070.6C374.173 1026.22 353.142 977.373 363.737 926.043C374.331 874.714 415.579 825.612 481.273 780.766C546.962 735.923 637.018 695.391 745.063 661.208C961.146 592.843 1249.06 549.911 1557.58 548.635Z" stroke="url(#paint32_linear_22_246)" stroke-opacity="0.3"/>
<path d="M1565.67 548.655C1873.25 551.706 2142.16 596.24 2328.29 665.762C2421.35 700.524 2493.7 741.524 2539.83 786.689C2585.97 831.856 2605.84 881.135 2594.13 932.464C2582.42 983.792 2540.21 1032.46 2473.72 1076.51C2407.23 1120.55 2316.56 1159.94 2208.09 1192.7C1991.16 1258.23 1703.19 1297.24 1395.6 1294.19C1088.02 1291.14 819.111 1246.6 632.985 1177.08C539.92 1142.32 467.578 1101.32 421.444 1056.15C375.307 1010.99 355.432 961.707 367.141 910.378C378.85 859.05 421.066 810.387 487.555 766.336C554.039 722.289 644.717 682.906 753.185 650.142C970.117 584.617 1258.09 545.605 1565.67 548.655Z" stroke="url(#paint33_linear_22_246)" stroke-opacity="0.3"/>
<path d="M1573.73 548.789C1880.28 556.166 2147.35 604.601 2331.34 676.933C2423.33 713.1 2494.53 755.231 2539.51 801.171C2584.49 847.113 2603.21 896.812 2590.39 948.124C2577.57 999.436 2534.4 1047.65 2467.13 1090.89C2399.88 1134.13 2308.6 1172.35 2199.74 1203.68C1982.03 1266.35 1694.09 1301.43 1387.55 1294.05C1081 1286.68 813.925 1238.24 629.937 1165.91C537.941 1129.74 466.742 1087.61 421.762 1041.67C376.779 995.728 358.066 946.029 370.885 894.717C383.704 843.405 426.877 795.195 494.14 751.954C561.398 708.715 652.671 670.493 761.531 639.159C979.244 576.493 1267.18 541.413 1573.73 548.789Z" stroke="url(#paint34_linear_22_246)" stroke-opacity="0.3"/>
<path d="M1581.76 549.038C1887.18 560.739 2152.33 613.06 2334.13 688.179C2425.02 725.739 2495.06 768.99 2538.87 815.691C2582.69 862.395 2600.23 912.498 2586.31 963.778C2572.38 1015.06 2528.27 1062.8 2460.25 1105.22C2392.24 1147.64 2300.4 1184.68 2191.18 1214.58C1972.75 1274.37 1684.93 1305.5 1379.51 1293.8C1074.1 1282.1 808.943 1229.78 627.149 1154.66C536.249 1117.1 466.215 1073.85 422.403 1027.15C378.588 980.448 361.042 930.345 374.967 879.065C388.893 827.785 433.008 780.044 501.025 737.624C569.038 695.207 660.878 658.158 770.095 628.263C988.524 568.476 1276.34 537.338 1581.76 549.038Z" stroke="url(#paint35_linear_22_246)" stroke-opacity="0.3"/>
<path d="M1589.76 549.401C1893.96 565.421 2157.11 621.612 2336.65 699.496C2426.43 738.439 2495.28 782.794 2537.91 830.243C2580.54 877.693 2596.92 928.186 2581.89 979.418C2566.86 1030.65 2521.82 1077.91 2453.06 1119.49C2384.32 1161.08 2291.94 1196.94 2182.4 1225.39C1963.32 1282.28 1675.71 1309.46 1371.51 1293.44C1067.32 1277.42 804.165 1221.23 624.62 1143.35C534.845 1104.41 465.997 1060.05 423.365 1012.6C380.731 965.15 364.359 914.658 379.386 863.426C394.414 812.193 439.459 764.935 508.21 723.35C576.956 681.768 669.335 645.903 778.876 617.457C997.954 560.566 1285.56 533.38 1589.76 549.401Z" stroke="url(#paint36_linear_22_246)" stroke-opacity="0.3"/>
<path d="M1597.73 549.874C1900.61 570.21 2161.68 630.254 2338.92 710.879C2427.55 751.192 2495.19 796.64 2536.62 844.821C2578.06 893.004 2593.26 943.87 2577.13 995.04C2561.01 1046.21 2515.05 1092.97 2445.58 1133.71C2376.12 1174.44 2283.24 1209.11 2173.4 1236.1C1953.74 1290.08 1666.43 1313.3 1363.55 1292.97C1060.66 1272.63 799.593 1212.59 622.351 1131.96C533.728 1091.65 466.088 1046.2 424.65 998.021C383.21 949.838 368.015 898.972 384.141 847.802C400.266 796.633 446.227 749.873 515.69 709.135C585.149 668.4 678.038 633.73 787.871 606.741C1007.53 552.765 1294.84 529.539 1597.73 549.874Z" stroke="url(#paint37_linear_22_246)" stroke-opacity="0.3"/>
<path d="M1605.66 550.462C1907.14 575.107 2166.05 638.986 2340.93 722.327C2428.37 763.998 2494.79 810.523 2535.02 859.423C2575.25 908.324 2589.26 959.548 2572.04 1010.64C2554.83 1061.73 2507.96 1107.98 2437.81 1147.86C2367.66 1187.73 2274.29 1221.2 2164.2 1246.72C1944.02 1297.77 1657.1 1317.02 1355.62 1292.38C1054.14 1267.73 795.228 1203.86 620.344 1120.52C532.901 1078.84 466.487 1032.32 426.256 983.419C386.023 934.518 372.01 883.293 389.229 832.203C406.448 781.112 453.311 734.864 523.464 694.986C593.615 655.11 686.987 621.646 797.077 596.123C1017.25 545.077 1304.18 525.817 1605.66 550.462Z" stroke="url(#paint38_linear_22_246)" stroke-opacity="0.3"/>
<path d="M1613.55 551.164C1913.54 580.11 2170.2 647.804 2342.68 733.835C2428.91 776.852 2494.08 824.442 2533.09 874.044C2572.11 923.648 2584.93 975.215 2566.62 1026.21C2548.32 1077.21 2500.57 1122.93 2429.74 1161.94C2358.92 1200.94 2265.1 1233.19 2154.78 1257.24C1934.16 1305.34 1647.7 1320.63 1347.72 1291.68C1047.74 1262.73 791.072 1195.04 618.6 1109.01C532.362 1065.99 467.196 1018.4 428.183 968.799C389.169 919.194 376.344 867.627 394.65 816.63C412.957 765.634 460.708 719.912 531.531 680.906C602.352 641.902 696.178 609.654 806.492 585.604C1027.11 537.503 1313.57 522.217 1613.55 551.164Z" stroke="url(#paint39_linear_22_246)" stroke-opacity="0.3"/>
<path d="M1621.41 551.977C1919.8 585.216 2174.15 656.705 2344.16 745.401C2429.16 789.75 2493.06 838.389 2530.84 888.679C2568.63 938.971 2580.26 990.866 2560.87 1041.75C2541.48 1092.64 2492.86 1137.82 2421.39 1175.94C2349.92 1214.06 2255.67 1245.09 2145.16 1267.66C1924.16 1312.8 1638.26 1324.1 1339.87 1290.87C1041.48 1257.63 787.126 1186.14 617.117 1097.44C532.111 1053.09 468.214 1004.45 430.431 954.163C392.647 903.871 381.013 851.977 400.402 801.09C419.792 750.203 468.415 705.021 539.887 666.899C611.356 628.779 705.607 597.756 816.112 575.186C1037.12 530.047 1323.01 518.738 1621.41 551.977Z" stroke="url(#paint40_linear_22_246)" stroke-opacity="0.3"/>
<path d="M1629.22 552.903C1925.93 590.424 2177.88 665.686 2345.38 757.019C2429.12 802.687 2491.74 852.36 2528.28 903.323C2564.82 954.288 2575.26 1006.49 2554.79 1057.26C2534.32 1108.02 2484.84 1152.65 2412.75 1189.87C2340.65 1227.1 2246 1256.88 2135.34 1277.97C1914.02 1320.13 1628.77 1327.46 1332.06 1289.94C1035.34 1252.42 783.391 1177.15 615.897 1085.82C532.149 1040.15 469.539 990.48 432.998 939.517C396.457 888.553 386.017 836.347 406.483 785.585C426.949 734.824 476.431 690.195 548.529 652.969C620.625 615.744 715.273 585.957 825.934 564.874C1047.25 522.709 1332.5 515.381 1629.22 552.903Z" stroke="url(#paint41_linear_22_246)" stroke-opacity="0.3"/>
<path d="M1636.98 553.942C1931.93 595.735 2181.41 674.746 2346.33 768.689C2428.8 815.661 2490.1 866.354 2525.39 917.974C2560.68 969.596 2569.92 1022.1 2548.38 1072.72C2526.85 1123.34 2476.52 1167.4 2403.82 1203.72C2331.12 1240.04 2236.1 1268.58 2125.32 1288.17C1903.75 1327.35 1619.24 1330.69 1324.29 1288.9C1029.35 1247.11 779.869 1168.1 614.942 1074.15C532.476 1027.18 471.172 976.488 435.885 924.867C400.597 873.246 391.355 820.744 412.891 770.123C434.428 719.503 484.753 675.441 557.455 639.122C630.157 602.803 725.172 574.261 835.956 554.671C1057.52 515.493 1342.04 512.149 1636.98 553.942Z" stroke="url(#paint42_linear_22_246)" stroke-opacity="0.3"/>
<path d="M1644.7 555.092C1937.78 601.143 2184.71 683.88 2347.03 780.404C2428.18 828.667 2488.16 880.364 2522.18 932.626C2556.21 984.888 2564.25 1037.67 2541.65 1088.13C2519.05 1138.6 2467.9 1182.08 2394.61 1217.48C2321.33 1252.88 2225.97 1280.17 2115.1 1298.26C1893.36 1334.44 1609.66 1333.8 1316.57 1287.75C1023.49 1241.7 776.559 1158.96 614.249 1062.44C533.092 1014.17 473.113 962.477 439.089 910.215C405.065 857.953 397.023 805.171 419.624 754.707C442.225 704.242 493.378 660.762 566.663 625.36C639.947 589.959 735.301 562.669 846.174 544.58C1067.92 508.401 1351.62 509.04 1644.7 555.092Z" stroke="url(#paint43_linear_22_246)" stroke-opacity="0.3"/>
<path d="M1652.37 556.354C1943.5 606.649 2187.81 693.087 2347.45 792.162C2427.28 841.701 2485.91 894.386 2518.66 947.274C2551.41 1000.16 2558.25 1053.21 2534.59 1103.5C2510.93 1153.79 2458.97 1196.68 2385.12 1231.15C2311.28 1265.62 2215.62 1291.65 2104.69 1308.24C1882.83 1341.41 1600.04 1336.78 1308.91 1286.49C1017.77 1236.19 773.465 1149.75 613.82 1050.68C533.996 1001.14 475.36 948.455 442.611 895.567C409.861 842.679 403.023 789.634 426.681 739.341C450.339 689.048 502.305 646.162 576.15 611.689C649.994 577.217 745.658 551.188 856.586 534.603C1078.44 501.434 1361.23 506.058 1652.37 556.354Z" stroke="url(#paint44_linear_22_246)" stroke-opacity="0.3"/>
<path d="M1659.98 557.728C1949.08 612.253 2190.69 702.364 2347.62 803.961C2426.09 854.76 2483.36 908.418 2514.83 961.915C2546.29 1015.41 2551.92 1068.7 2527.22 1118.81C2502.51 1168.92 2449.74 1211.2 2375.36 1244.73C2300.98 1278.26 2205.04 1303.02 2094.09 1318.1C1872.19 1348.25 1590.39 1339.64 1301.29 1285.11C1012.19 1230.59 770.585 1140.48 613.656 1038.88C535.189 988.083 477.914 934.425 446.449 880.928C414.984 827.431 409.35 774.139 434.059 724.033C458.768 673.927 511.529 631.648 585.912 598.114C660.294 564.58 756.238 539.82 867.189 524.746C1089.09 494.597 1370.89 503.203 1659.98 557.728Z" stroke="url(#paint45_linear_22_246)" stroke-opacity="0.3"/>
<path d="M1667.54 559.212C1954.51 617.949 2193.35 711.707 2347.52 815.794C2424.6 867.839 2480.5 922.452 2510.67 976.542C2540.84 1030.63 2545.27 1084.16 2519.52 1134.06C2493.77 1183.96 2440.23 1225.62 2365.33 1258.21C2290.43 1290.79 2194.23 1314.27 2083.3 1327.83C1861.42 1354.95 1580.7 1342.37 1293.73 1283.63C1006.76 1224.89 767.922 1131.14 613.755 1027.05C536.67 975.004 480.773 920.391 450.602 866.301C420.43 812.211 416.004 758.687 441.756 708.783C467.507 658.879 521.049 617.22 595.947 584.636C670.844 552.051 767.04 528.568 877.978 515.008C1099.85 487.889 1380.57 500.475 1667.54 559.212Z" stroke="url(#paint46_linear_22_246)" stroke-opacity="0.3"/>
<path d="M1675.05 560.807C1959.81 623.739 2195.8 721.114 2347.16 827.66C2422.84 880.934 2477.34 936.487 2506.21 991.153C2535.07 1045.82 2538.29 1099.56 2511.51 1149.25C2484.72 1198.93 2430.41 1239.96 2355.02 1271.58C2279.63 1303.21 2183.22 1325.41 2072.32 1337.45C1850.54 1361.53 1570.98 1344.97 1286.23 1282.04C1001.47 1219.1 765.476 1121.73 614.118 1015.18C538.438 961.909 483.937 906.357 455.068 851.69C426.2 797.024 422.982 743.285 449.768 693.598C476.555 643.912 530.862 602.886 606.251 571.261C681.641 539.635 778.059 517.436 888.951 505.395C1110.73 481.313 1390.29 497.875 1675.05 560.807Z" stroke="url(#paint47_linear_22_246)" stroke-opacity="0.3"/>
<path d="M1682.49 562.51C1964.95 629.617 2198.03 730.581 2346.53 839.553C2420.78 894.04 2473.87 950.515 2501.43 1005.74C2528.98 1060.97 2530.99 1114.91 2503.18 1164.36C2475.37 1213.81 2420.31 1254.19 2344.45 1284.85C2268.59 1315.51 2171.98 1336.42 2061.17 1346.93C1839.55 1367.97 1561.24 1347.44 1278.78 1280.33C996.324 1213.22 763.248 1112.26 614.745 1003.29C540.493 948.801 487.404 892.326 459.847 837.1C432.29 781.873 430.282 727.936 458.096 678.482C485.909 629.028 540.964 588.648 616.822 557.991C692.681 527.334 789.292 506.426 900.104 495.907C1121.73 474.87 1400.04 495.403 1682.49 562.51Z" stroke="url(#paint48_linear_22_246)" stroke-opacity="0.3"/>
<path d="M1689.88 564.326C1969.95 635.587 2200.04 740.109 2345.64 851.474C2418.44 907.157 2470.1 964.537 2496.34 1020.31C2522.58 1076.08 2523.37 1130.2 2494.54 1179.4C2465.71 1228.61 2409.92 1268.33 2333.62 1298.01C2257.31 1327.69 2160.54 1347.3 2049.84 1356.29C1828.45 1374.28 1551.47 1349.78 1271.4 1278.52C991.327 1207.26 761.238 1102.74 615.636 991.371C542.834 935.687 491.174 878.308 464.937 822.537C438.701 766.768 437.903 712.648 466.735 663.442C495.567 614.237 551.352 574.514 627.657 544.835C703.962 515.156 800.736 495.545 911.435 486.552C1132.83 468.566 1409.81 493.064 1689.88 564.326Z" stroke="url(#paint49_linear_22_246)" stroke-opacity="0.3"/>
<path d="M1697.2 566.248C1974.8 641.643 2201.83 749.69 2344.48 863.414C2415.81 920.277 2466.03 978.544 2490.94 1034.84C2515.85 1091.14 2515.43 1145.42 2485.59 1194.36C2455.75 1243.31 2399.25 1282.36 2322.52 1311.05C2245.8 1339.74 2148.89 1358.05 2038.34 1365.52C1817.24 1380.45 1541.67 1351.99 1264.08 1276.6C986.478 1201.2 759.447 1093.15 616.79 979.43C545.46 922.567 495.244 864.3 470.335 808.004C445.427 751.708 445.839 697.422 475.681 648.479C505.523 599.537 562.023 560.483 638.75 531.792C715.479 503.1 812.386 484.791 922.938 477.327C1144.04 462.398 1419.6 490.853 1697.2 566.248Z" stroke="url(#paint50_linear_22_246)" stroke-opacity="0.3"/>
<path d="M1704.45 568.278C1979.49 647.783 2203.4 759.323 2343.07 875.372C2412.9 933.397 2461.66 992.534 2485.23 1049.34C2508.81 1106.14 2507.18 1160.58 2476.34 1209.24C2445.5 1257.91 2388.3 1296.28 2311.17 1323.98C2234.05 1351.67 2137.03 1368.67 2026.66 1374.61C1805.92 1386.47 1531.86 1354.07 1256.82 1274.56C981.78 1195.06 757.875 1083.52 618.207 967.472C548.372 909.447 499.615 850.31 476.042 793.504C452.469 736.7 454.092 682.265 484.935 633.6C515.778 584.935 572.974 546.564 650.101 518.868C727.23 491.172 824.241 474.172 934.612 468.238C1155.35 456.37 1429.41 488.774 1704.45 568.278Z" stroke="url(#paint51_linear_22_246)" stroke-opacity="0.3"/>
<path d="M1711.64 570.417C1984.04 654.008 2204.75 769.006 2341.39 887.344C2409.71 946.513 2456.99 1006.5 2479.22 1063.8C2501.45 1121.09 2498.62 1175.66 2466.78 1224.04C2434.95 1272.41 2377.07 1310.09 2299.57 1336.78C2222.07 1363.47 2124.98 1379.16 2014.82 1383.56C1794.51 1392.36 1522.04 1356.02 1249.64 1272.43C977.234 1188.84 756.524 1073.84 619.887 955.5C551.568 896.331 504.284 836.342 482.054 779.045C459.824 721.749 462.657 667.181 494.492 618.808C526.326 570.436 584.202 532.758 661.705 506.067C739.21 479.375 836.296 463.688 946.452 459.287C1166.76 450.484 1439.24 486.826 1711.64 570.417Z" stroke="url(#paint52_linear_22_246)" stroke-opacity="0.3"/>
<path d="M1718.75 572.662C1988.43 660.313 2205.88 778.736 2339.45 899.326C2406.23 959.621 2452.02 1020.44 2472.9 1078.22C2493.78 1135.98 2489.74 1190.67 2456.93 1238.73C2424.11 1286.8 2365.57 1323.77 2287.72 1349.45C2209.86 1375.13 2112.73 1389.5 2002.82 1392.37C1783.01 1398.1 1512.2 1357.83 1242.52 1270.18C972.84 1182.53 755.393 1064.11 621.829 943.517C555.045 883.222 509.251 822.399 488.37 764.628C467.49 706.858 471.532 652.174 504.349 604.109C537.165 556.044 595.702 519.071 673.557 493.392C751.415 467.713 848.546 453.344 958.455 450.477C1178.27 444.742 1449.07 485.011 1718.75 572.662Z" stroke="url(#paint53_linear_22_246)" stroke-opacity="0.3"/>
<path d="M1725.8 575.014C1992.67 666.699 2206.79 788.509 2337.24 911.315C2402.47 972.719 2446.76 1034.36 2466.29 1092.58C2485.81 1150.81 2480.56 1205.59 2446.77 1253.34C2412.98 1301.08 2353.8 1337.34 2275.62 1361.99C2197.43 1386.65 2100.28 1399.7 1990.66 1401.03C1771.41 1403.7 1502.35 1359.51 1235.48 1267.83C968.602 1176.14 754.484 1054.33 624.032 931.529C558.806 870.125 514.514 808.488 494.989 750.259C475.465 692.033 480.715 637.249 514.504 589.506C548.292 541.764 607.473 505.507 685.657 480.849C763.843 456.189 860.99 443.144 970.617 441.811C1189.87 439.145 1458.92 483.329 1725.8 575.014Z" stroke="url(#paint54_linear_22_246)" stroke-opacity="0.3"/>
<path d="M1732.77 577.471C1996.75 673.162 2207.48 798.322 2334.78 923.307C2398.43 985.8 2441.2 1048.23 2459.37 1106.9C2477.53 1165.57 2471.07 1220.43 2436.32 1267.84C2401.57 1315.24 2341.76 1350.77 2263.28 1374.4C2184.78 1398.04 2087.65 1409.76 1978.34 1409.55C1759.72 1409.15 1492.5 1361.06 1228.51 1265.37C964.52 1169.68 753.795 1044.52 626.496 919.537C562.847 857.044 520.07 794.61 501.907 735.943C483.745 677.278 490.202 622.411 524.952 575.005C559.703 527.599 619.509 492.07 697.998 468.439C776.49 444.807 873.623 433.089 982.934 433.291C1201.56 433.695 1468.78 481.781 1732.77 577.471Z" stroke="url(#paint55_linear_22_246)" stroke-opacity="0.3"/>
<path d="M1739.66 580.033C2000.68 679.7 2207.95 808.173 2332.05 935.298C2394.11 998.862 2435.36 1062.07 2452.15 1121.16C2468.95 1180.25 2461.28 1235.18 2425.58 1282.23C2389.88 1329.29 2329.47 1364.08 2250.7 1386.68C2171.92 1409.27 2074.83 1419.66 1965.87 1417.92C1747.95 1414.45 1482.64 1362.48 1221.62 1262.81C960.595 1163.14 753.328 1034.67 629.221 907.545C567.167 843.982 525.92 780.771 509.124 721.683C492.329 662.597 499.991 607.664 535.693 560.609C571.394 513.554 631.809 478.764 710.578 456.168C789.351 433.571 886.441 423.182 995.404 424.919C1213.33 428.393 1478.64 480.366 1739.66 580.033Z" stroke="url(#paint56_linear_22_246)" stroke-opacity="0.3"/>
<path d="M1746.47 582.699C2004.45 686.312 2208.19 818.057 2329.07 947.285C2389.51 1011.9 2429.22 1075.87 2444.64 1135.36C2460.06 1194.85 2451.2 1249.83 2414.55 1296.52C2377.91 1343.21 2316.91 1377.25 2237.88 1398.8C2158.85 1420.36 2061.84 1429.41 1953.25 1426.14C1736.09 1419.6 1472.78 1363.76 1214.8 1260.14C956.827 1156.53 753.081 1024.78 632.204 895.557C571.765 830.943 532.059 766.975 516.636 707.483C501.214 647.994 510.078 593.011 546.72 546.322C583.362 499.634 644.366 465.592 723.392 444.038C802.423 422.482 899.439 413.427 1008.02 416.698C1225.18 423.241 1488.5 479.086 1746.47 582.699Z" stroke="url(#paint57_linear_22_246)" stroke-opacity="0.3"/>
<path d="M1753.2 585.469C2008.05 692.996 2208.22 827.975 2325.83 959.265C2384.63 1024.91 2422.79 1089.62 2436.83 1149.49C2450.88 1209.37 2440.81 1264.38 2403.24 1310.69C2365.67 1357 2304.1 1390.28 2224.84 1410.79C2145.57 1431.3 2048.66 1439.02 1940.49 1434.21C1724.16 1424.6 1462.92 1364.9 1208.07 1257.37C953.22 1149.85 753.057 1014.87 635.446 883.579C576.641 817.933 538.488 753.227 524.442 693.35C510.397 633.476 520.461 578.461 558.032 532.152C595.604 485.843 657.178 452.561 736.438 432.055C815.701 411.548 912.614 403.829 1020.78 408.633C1237.11 418.243 1498.35 477.941 1753.2 585.469Z" stroke="url(#paint58_linear_22_246)" stroke-opacity="0.3"/>
<path d="M1759.85 588.34C2011.5 699.749 2208.02 837.92 2322.33 971.232C2379.48 1037.89 2416.07 1103.31 2428.74 1163.56C2441.4 1223.8 2430.14 1278.83 2391.65 1324.74C2353.16 1370.66 2291.03 1403.17 2211.57 1422.62C2132.09 1442.08 2035.31 1448.46 1927.59 1442.12C1712.15 1429.45 1453.07 1365.91 1201.42 1254.5C949.773 1143.09 753.254 1004.92 638.945 871.611C581.791 804.954 545.203 739.529 532.539 679.285C519.875 619.045 531.136 564.013 569.625 518.099C608.115 472.184 670.24 439.672 749.709 420.22C829.182 400.767 925.963 394.387 1033.68 400.723C1249.12 413.396 1508.21 476.931 1759.85 588.34Z" stroke="url(#paint59_linear_22_246)" stroke-opacity="0.3"/>
<path d="M1766.42 591.314C2014.79 706.571 2207.6 847.891 2318.57 983.185C2374.06 1050.83 2409.07 1116.96 2420.35 1177.55C2431.63 1238.14 2419.17 1293.17 2379.78 1338.67C2340.38 1384.18 2277.72 1415.91 2198.07 1434.31C2118.41 1452.7 2021.79 1457.74 1914.55 1449.87C1700.08 1434.14 1443.22 1366.79 1194.86 1251.53C946.488 1136.27 753.673 994.953 642.701 859.659C587.215 792.011 552.204 725.887 540.925 665.295C529.646 604.706 542.1 549.676 581.496 504.169C620.892 458.663 683.55 426.93 763.204 408.539C842.861 390.146 939.48 385.106 1046.72 392.973C1261.2 408.706 1518.05 476.057 1766.42 591.314Z" stroke="url(#paint60_linear_22_246)" stroke-opacity="0.3"/>
<path d="M1772.9 594.388C2017.91 713.458 2206.96 857.884 2314.56 995.119C2368.36 1063.74 2401.79 1130.54 2411.68 1191.46C2421.57 1252.38 2407.92 1307.39 2367.63 1352.48C2327.34 1397.56 2264.17 1428.51 2184.36 1445.83C2104.54 1463.16 2008.11 1466.85 1901.39 1457.46C1687.93 1438.67 1433.39 1367.53 1188.38 1248.46C943.366 1129.39 754.313 984.96 646.712 847.725C592.911 779.107 559.487 712.305 549.597 651.383C539.707 590.464 553.35 535.451 593.641 490.367C633.931 445.282 697.103 414.339 776.917 397.013C856.735 379.687 953.163 375.989 1059.89 385.383C1273.34 404.171 1527.88 475.318 1772.9 594.388Z" stroke="url(#paint61_linear_22_246)" stroke-opacity="0.3"/>
<path d="M1779.28 597.561C2020.87 720.407 2206.1 867.896 2310.3 1007.03C2414.52 1146.2 2437.57 1276.85 2355.22 1366.15C2272.87 1455.45 2100.51 1486.73 1888.09 1464.89C1675.73 1443.05 1423.58 1368.13 1181.99 1245.28C940.407 1122.44 755.174 974.947 650.977 835.814C546.752 696.643 523.71 565.993 606.055 476.695C688.401 387.397 860.77 356.113 1073.19 377.957C1285.55 399.794 1537.7 474.715 1779.28 597.561Z" stroke="url(#paint62_linear_22_246)" stroke-opacity="0.3"/>
<path d="M1785.58 600.834C2023.66 727.419 2205.02 877.926 2305.78 1018.92C2406.57 1159.94 2426.62 1291.29 2342.54 1379.68C2258.45 1468.08 2085.93 1497.03 1874.67 1472.15C1663.46 1447.27 1413.78 1368.59 1175.69 1242.01C937.613 1115.42 756.256 964.918 655.494 823.929C554.706 682.903 534.652 551.558 618.736 463.159C702.821 374.761 875.349 345.81 1086.61 370.696C1297.81 395.576 1547.5 474.249 1785.58 600.834Z" stroke="url(#paint63_linear_22_246)" stroke-opacity="0.3"/>
<path d="M1791.79 604.204C2026.29 734.489 2203.72 887.967 2301.01 1030.77C2398.33 1173.61 2415.39 1305.61 2329.6 1393.08C2243.8 1480.55 2071.16 1507.16 1861.12 1479.24C1651.14 1451.33 1404 1368.92 1169.49 1238.64C934.984 1108.35 757.559 954.876 660.262 812.073C562.942 669.234 545.882 537.234 631.68 449.763C717.477 362.292 890.112 335.681 1100.15 363.603C1310.14 391.518 1557.28 473.918 1791.79 604.204Z" stroke="url(#paint64_linear_22_246)" stroke-opacity="0.3"/>
<path d="M1797.9 607.67C2028.75 741.616 2202.19 898.02 2295.99 1042.59C2389.82 1187.2 2403.88 1319.82 2316.39 1406.33C2228.91 1492.85 2056.22 1517.11 1847.47 1486.16C1638.76 1455.22 1394.24 1369.12 1163.38 1235.17C932.521 1101.23 759.082 944.824 665.281 800.251C571.457 655.643 557.397 523.028 644.881 436.511C732.366 349.993 905.055 325.732 1113.81 356.681C1322.51 387.622 1567.04 473.725 1797.9 607.67Z" stroke="url(#paint65_linear_22_246)" stroke-opacity="0.3"/>
<path d="M1803.91 611.233C2031.05 748.798 2200.45 908.079 2290.73 1054.38C2381.03 1200.71 2392.08 1333.9 2302.94 1419.44C2213.79 1504.97 2041.1 1526.88 1833.7 1492.91C1626.34 1458.95 1384.51 1369.18 1157.37 1231.61C930.225 1094.04 760.824 934.764 670.547 788.465C580.249 642.132 569.193 508.943 658.338 423.406C747.483 337.869 920.174 315.963 1127.58 349.93C1334.93 383.888 1576.77 473.667 1803.91 611.233Z" stroke="url(#paint66_linear_22_246)" stroke-opacity="0.3"/>
<path d="M1809.82 614.89C2033.18 756.033 2198.49 918.143 2285.21 1066.12C2371.96 1214.14 2380.01 1347.86 2289.23 1432.39C2198.45 1516.92 2025.81 1536.46 1819.82 1499.49C1613.88 1462.52 1374.81 1369.1 1151.45 1227.95C928.096 1086.81 762.786 924.7 676.06 776.721C589.315 628.707 581.267 494.984 672.045 410.453C762.823 325.922 935.463 306.38 1141.45 343.354C1347.4 380.319 1586.47 473.746 1809.82 614.89Z" stroke="url(#paint67_linear_22_246)" stroke-opacity="0.3"/>
<path d="M1815.64 618.64C2035.14 763.318 2196.31 928.207 2279.46 1077.82C2362.62 1227.47 2367.66 1361.69 2275.28 1445.19C2182.89 1528.69 2010.36 1545.86 1805.84 1505.89C1601.37 1465.93 1365.14 1368.88 1145.64 1224.2C926.136 1079.52 764.966 914.636 681.818 765.02C598.652 615.371 593.614 481.155 685.998 397.656C778.382 314.157 950.918 296.984 1155.43 336.954C1359.91 376.914 1596.14 473.962 1815.64 618.64Z" stroke="url(#paint68_linear_22_246)" stroke-opacity="0.3"/>
<path d="M1821.35 622.483C2036.93 770.652 2193.91 938.27 2273.45 1089.48C2353.02 1240.72 2355.04 1375.38 2261.08 1457.83C2167.12 1540.27 1994.74 1555.06 1791.76 1512.11C1588.83 1469.17 1355.51 1368.53 1139.93 1220.36C924.346 1072.19 767.365 904.574 687.82 753.367C608.259 602.129 606.232 467.46 700.193 385.019C794.155 302.578 966.535 287.78 1169.51 330.733C1372.45 373.676 1605.77 474.314 1821.35 622.483Z" stroke="url(#paint69_linear_22_246)" stroke-opacity="0.3"/>
<path d="M1826.96 626.416C2038.55 778.03 2191.29 948.326 2267.21 1101.08C2343.14 1253.86 2342.16 1388.94 2246.65 1470.3C2151.14 1551.66 1978.97 1564.08 1777.59 1518.15C1576.25 1472.24 1345.91 1368.04 1134.32 1216.43C922.724 1064.81 769.98 894.515 694.063 741.764C618.13 588.982 619.116 453.902 714.626 372.544C810.136 291.186 982.307 278.766 1183.69 324.69C1385.03 370.603 1615.36 474.801 1826.96 626.416Z" stroke="url(#paint70_linear_22_246)" stroke-opacity="0.3"/>
<path d="M1832.46 630.439C2040 785.453 2188.46 958.376 2260.73 1112.62C2333.01 1266.9 2329.01 1402.35 2231.98 1482.6C2134.95 1562.85 1963.04 1572.89 1763.32 1524.01C1563.64 1475.14 1336.36 1367.42 1128.81 1212.4C921.272 1057.39 772.812 884.466 700.545 730.217C628.263 575.937 632.262 440.487 729.292 360.237C826.322 279.987 998.231 269.95 1197.95 318.83C1397.63 367.7 1624.92 475.426 1832.46 630.439Z" stroke="url(#paint71_linear_22_246)" stroke-opacity="0.3"/>
<path d="M1837.86 634.553C2041.28 792.919 2185.42 968.414 2254.01 1124.11C2322.62 1279.84 2315.61 1415.62 2217.09 1494.74C2118.57 1573.86 1946.97 1581.51 1748.97 1529.69C1551.01 1477.88 1326.85 1366.66 1123.42 1208.29C919.991 1049.92 775.86 874.429 707.265 718.729C638.657 562.999 645.667 427.22 744.187 348.102C842.707 268.984 1014.3 261.333 1212.3 313.154C1410.26 364.965 1634.43 476.187 1837.86 634.553Z" stroke="url(#paint72_linear_22_246)" stroke-opacity="0.3"/>
<path d="M1843.14 638.752C2042.39 800.422 2182.15 978.438 2247.05 1135.54C2311.97 1292.67 2301.95 1428.74 2201.97 1506.7C2101.99 1584.66 1930.76 1589.93 1734.54 1535.18C1538.36 1480.44 1317.38 1365.76 1118.13 1204.09C918.88 1042.42 779.122 864.404 714.22 707.301C649.306 550.168 659.325 414.101 759.306 336.14C859.286 258.179 1030.51 252.916 1226.73 307.663C1422.91 362.399 1643.89 477.082 1843.14 638.752Z" stroke="url(#paint73_linear_22_246)" stroke-opacity="0.3"/>
<path d="M1848.32 643.038C2043.33 807.963 2178.68 988.444 2239.87 1146.9C2301.07 1305.39 2288.04 1441.7 2186.63 1518.48C2085.22 1595.26 1914.41 1598.14 1720.03 1540.48C1525.69 1482.84 1307.97 1364.73 1112.95 1199.8C917.94 1034.88 782.597 854.398 721.409 695.939C660.209 537.451 673.234 401.138 774.644 324.357C876.055 247.577 1046.86 244.704 1241.24 302.359C1435.58 360.004 1653.31 478.113 1848.32 643.038Z" stroke="url(#paint74_linear_22_246)" stroke-opacity="0.3"/>
<path d="M1853.39 647.41C2044.1 815.538 2174.99 998.431 2232.45 1158.2C2289.91 1317.99 2273.89 1454.51 2171.08 1530.09C2068.27 1605.66 1897.93 1606.14 1705.45 1545.6C1513.01 1485.06 1298.61 1363.56 1107.89 1195.43C917.172 1027.3 786.286 844.412 728.829 684.646C671.362 524.851 687.389 388.333 790.198 312.757C893.007 237.181 1063.35 236.698 1255.82 297.245C1448.27 357.781 1662.67 479.281 1853.39 647.41Z" stroke="url(#paint75_linear_22_246)" stroke-opacity="0.3"/>
<path d="M1858.34 651.864C2044.7 823.146 2171.09 1008.39 2224.8 1169.42C2278.51 1330.47 2259.49 1467.15 2155.31 1541.5C2051.14 1615.85 1881.32 1613.94 1690.8 1550.52C1500.31 1487.11 1289.3 1362.26 1102.94 1190.98C916.575 1019.7 790.185 834.45 736.477 673.424C682.76 512.372 701.785 375.691 805.962 301.341C910.138 226.992 1079.96 228.901 1270.47 292.32C1460.96 355.729 1671.97 480.582 1858.34 651.864Z" stroke="url(#paint76_linear_22_246)" stroke-opacity="0.3"/>
<path d="M1863.17 656.402C2045.12 830.785 2166.98 1018.33 2216.92 1180.57C2266.87 1342.83 2244.86 1479.63 2139.34 1552.73C2033.83 1625.83 1864.59 1621.53 1676.09 1555.26C1487.62 1488.99 1280.05 1360.83 1098.1 1186.44C916.152 1012.06 794.296 824.515 744.354 662.28C694.403 500.018 716.419 363.215 821.932 290.116C927.444 217.017 1096.69 221.316 1285.19 287.589C1473.66 353.851 1681.22 482.019 1863.17 656.402Z" stroke="url(#paint77_linear_22_246)" stroke-opacity="0.3"/>
<path d="M1867.89 661.018C2045.38 838.449 2162.66 1028.24 2208.82 1191.63C2254.99 1355.05 2229.99 1491.94 2123.17 1563.76C2016.36 1635.59 1847.74 1628.9 1661.31 1559.8C1474.91 1490.7 1270.87 1359.26 1093.38 1181.82C915.898 1004.39 798.615 814.607 752.452 651.212C706.283 487.79 731.285 350.908 838.101 279.081C944.917 207.254 1113.53 213.941 1299.96 283.048C1486.36 352.143 1690.41 483.587 1867.89 661.018Z" stroke="url(#paint78_linear_22_246)" stroke-opacity="0.3"/>
<path d="M1872.49 665.716C2045.46 846.14 2158.13 1038.11 2200.5 1202.62C2242.88 1367.15 2214.9 1504.07 2106.81 1574.6C1998.72 1645.13 1830.78 1636.06 1646.49 1564.14C1462.22 1492.23 1261.75 1357.55 1088.78 1177.13C915.818 996.704 803.142 804.733 760.774 640.228C718.4 475.696 746.379 338.775 854.466 268.243C962.553 197.71 1130.49 206.785 1314.79 278.703C1499.06 350.61 1699.53 485.291 1872.49 665.716Z" stroke="url(#paint79_linear_22_246)" stroke-opacity="0.3"/>
<path d="M1876.98 670.49C2045.37 853.853 2153.4 1047.95 2191.96 1213.52C2230.53 1379.11 2199.58 1516.02 2090.25 1585.24C1980.93 1654.46 1813.72 1643 1631.61 1568.29C1449.52 1493.59 1252.69 1355.72 1084.3 1172.35C915.909 988.99 807.874 794.894 769.314 629.328C730.748 463.737 761.697 326.819 871.022 257.603C980.347 188.386 1147.56 199.845 1329.67 274.553C1511.75 349.25 1708.58 487.127 1876.98 670.49Z" stroke="url(#paint80_linear_22_246)" stroke-opacity="0.3"/>
<path d="M1881.34 675.342C2045.1 861.588 2148.46 1057.75 2183.2 1224.33C2217.95 1390.93 2184.04 1527.8 2073.51 1595.68C1962.98 1663.56 1796.55 1649.72 1616.68 1572.24C1436.84 1494.78 1243.7 1353.75 1079.94 1167.5C916.172 981.256 812.813 785.095 778.072 618.518C743.325 451.918 777.234 315.045 887.764 247.166C998.294 179.287 1164.72 193.126 1344.59 270.601C1524.44 348.066 1717.57 489.096 1881.34 675.342Z" stroke="url(#paint81_linear_22_246)" stroke-opacity="0.3"/>
<path d="M1885.58 680.268C2044.67 869.341 2143.32 1067.51 2174.23 1235.04C2205.15 1402.6 2168.29 1539.39 2056.59 1605.91C1944.89 1672.43 1779.29 1656.22 1601.72 1576C1424.17 1495.79 1234.79 1351.65 1075.7 1162.58C916.607 973.504 817.954 775.336 787.042 607.8C756.127 440.241 792.985 303.455 904.686 236.934C1016.39 170.412 1181.99 186.628 1359.56 266.847C1537.11 347.056 1726.48 491.196 1885.58 680.268Z" stroke="url(#paint82_linear_22_246)" stroke-opacity="0.3"/>
<path d="M1889.69 685.268C2044.06 877.109 2137.98 1077.22 2165.05 1245.67C2192.13 1414.13 2152.33 1550.79 2039.49 1615.93C1926.65 1681.08 1761.94 1662.49 1586.71 1579.55C1411.51 1496.62 1225.95 1349.42 1071.58 1157.58C917.214 965.735 823.297 765.621 796.224 597.177C769.148 428.71 808.945 292.053 921.783 226.91C1034.62 161.767 1199.34 180.354 1374.56 263.293C1549.76 346.22 1735.32 493.427 1889.69 685.268Z" stroke="url(#paint83_linear_22_246)" stroke-opacity="0.3"/>
<path d="M1893.68 690.339C2043.28 884.891 2132.43 1086.89 2155.66 1256.19C2178.89 1425.51 2136.16 1562 2022.22 1625.75C1908.28 1689.49 1744.5 1668.54 1571.68 1582.91C1398.88 1497.28 1217.19 1347.06 1067.59 1152.5C917.992 957.953 828.84 755.954 805.615 586.653C782.386 417.329 825.11 280.843 939.05 217.098C1052.99 153.353 1216.78 174.305 1389.6 259.939C1562.39 345.56 1744.08 495.788 1893.68 690.339Z" stroke="url(#paint84_linear_22_246)" stroke-opacity="0.3"/>
<path d="M1897.55 695.482C2042.33 892.684 2126.69 1096.51 2146.06 1266.61C2165.44 1436.74 2119.8 1573.02 2004.79 1635.34C1889.78 1697.67 1726.98 1674.36 1556.62 1586.06C1386.28 1497.77 1208.51 1344.56 1063.73 1147.36C918.943 950.16 834.582 746.338 815.211 576.231C795.838 406.103 841.475 269.828 956.483 207.501C1071.49 145.174 1234.3 168.485 1404.66 256.787C1575 345.076 1752.76 498.28 1897.55 695.482Z" stroke="url(#paint85_linear_22_246)" stroke-opacity="0.3"/>
<path d="M1901.29 700.693C2041.21 900.486 2120.75 1106.07 2136.26 1276.93C2151.78 1447.81 2103.24 1583.83 1987.2 1644.72C1871.16 1705.61 1709.39 1679.95 1541.53 1589.01C1373.7 1498.08 1199.91 1341.94 1059.99 1142.15C920.064 942.358 840.52 736.774 825.01 565.914C809.497 395.032 858.034 259.011 974.075 198.12C1090.11 137.23 1251.89 162.894 1419.74 253.836C1587.58 344.767 1761.36 500.899 1901.29 700.693Z" stroke="url(#paint86_linear_22_246)" stroke-opacity="0.3"/>
<path d="M1904.9 705.97C2039.92 908.293 2114.62 1115.58 2126.27 1287.14C2137.91 1458.72 2086.49 1594.45 1969.45 1653.88C1852.42 1713.32 1691.72 1685.31 1526.43 1591.75C1361.15 1498.21 1191.4 1339.19 1056.38 1136.87C921.356 934.548 846.654 727.265 835.008 555.704C823.361 384.121 874.783 248.394 991.821 188.959C1108.86 129.525 1269.55 157.533 1434.85 251.088C1600.12 344.633 1769.87 503.647 1904.9 705.97Z" stroke="url(#paint87_linear_22_246)" stroke-opacity="0.3"/>
<path d="M1908.38 711.315C2038.46 916.106 2108.29 1125.03 2116.07 1297.24C2123.85 1469.47 2069.56 1604.86 1951.56 1662.82C1833.56 1720.78 1674 1690.44 1511.31 1594.3C1348.64 1498.17 1182.98 1336.32 1052.9 1131.53C922.818 926.737 852.98 717.818 845.203 545.607C837.425 373.375 891.717 237.985 1009.72 180.023C1127.71 122.062 1287.28 152.406 1449.96 248.547C1612.63 344.676 1778.3 506.523 1908.38 711.315Z" stroke="url(#paint88_linear_22_246)" stroke-opacity="0.3"/>
<path d="M1911.73 716.723C2036.82 923.921 2101.78 1134.41 2105.68 1307.22C2109.59 1480.05 2052.45 1615.06 1933.52 1671.53C1814.6 1728 1656.21 1695.33 1496.18 1596.63C1336.17 1497.95 1174.64 1333.32 1049.55 1126.12C924.45 918.923 859.498 708.432 855.592 535.624C851.685 362.795 908.83 227.783 1027.75 171.313C1146.68 114.843 1305.06 147.513 1465.09 246.21C1625.1 344.895 1786.63 509.526 1911.73 716.723Z" stroke="url(#paint89_linear_22_246)" stroke-opacity="0.3"/>
<path d="M1914.95 722.193C2035.02 931.734 2095.07 1143.73 2095.1 1317.08C2095.14 1490.46 2035.16 1625.05 1915.34 1680.01C1795.53 1734.97 1638.37 1699.99 1481.05 1598.76C1323.75 1497.55 1166.4 1330.19 1046.33 1120.65C926.251 911.108 866.205 699.11 866.17 525.757C866.135 352.384 926.117 217.791 1045.93 162.83C1165.74 107.869 1322.9 142.855 1480.22 244.077C1637.52 345.287 1794.87 512.652 1914.95 722.193Z" stroke="url(#paint90_linear_22_246)" stroke-opacity="0.3"/>
<path d="M1918.03 727.725C2033.05 939.545 2088.18 1152.99 2084.34 1326.83C2080.5 1500.7 2017.7 1634.83 1897.04 1688.26C1776.37 1741.7 1620.49 1704.41 1465.92 1600.69C1311.37 1496.99 1158.26 1326.94 1043.24 1115.12C928.222 903.299 873.099 689.857 876.937 516.013C880.774 342.148 943.573 208.014 1064.24 154.579C1184.9 101.143 1340.79 138.436 1495.35 242.153C1649.9 345.858 1803.01 515.905 1918.03 727.725Z" stroke="url(#paint91_linear_22_246)" stroke-opacity="0.3"/>
<path d="M1920.99 733.314C2030.91 947.349 2081.1 1162.17 2073.39 1336.45C2065.68 1510.76 2000.08 1644.39 1878.6 1696.28C1757.12 1748.18 1602.56 1708.59 1450.79 1602.41C1299.05 1496.24 1150.21 1323.56 1040.29 1109.53C930.361 895.493 880.178 680.672 887.886 506.39C895.595 332.087 961.192 198.454 1082.67 146.56C1204.15 94.6663 1358.72 134.253 1510.48 240.433C1662.23 346.601 1811.06 519.28 1920.99 733.314Z" stroke="url(#paint92_linear_22_246)" stroke-opacity="0.3"/>
<path d="M1923.81 738.963C2028.61 955.147 2073.83 1171.28 2062.26 1345.95C2050.68 1520.64 1982.3 1653.73 1860.04 1704.06C1737.79 1754.4 1584.59 1712.53 1435.68 1603.92C1286.78 1495.32 1142.27 1320.06 1037.47 1103.88C932.667 887.696 887.441 671.563 899.017 496.894C910.595 322.206 978.97 189.114 1101.23 138.779C1223.49 88.4426 1376.68 130.312 1525.6 238.923C1674.49 347.521 1819.01 522.779 1923.81 738.963Z" stroke="url(#paint93_linear_22_246)" stroke-opacity="0.3"/>
<path d="M1926.49 744.667C2026.13 962.934 2066.39 1180.32 2050.95 1355.32C2035.51 1530.34 1964.37 1662.85 1841.37 1711.61C1718.37 1760.37 1566.6 1716.23 1420.58 1605.22C1274.57 1494.23 1134.43 1316.45 1034.78 1098.18C935.141 879.91 894.884 662.529 910.325 487.528C925.768 312.508 996.901 179.999 1119.9 131.236C1242.9 82.473 1394.68 126.611 1540.7 237.62C1686.7 348.617 1826.85 526.399 1926.49 744.667Z" stroke="url(#paint94_linear_22_246)" stroke-opacity="0.3"/>
<path d="M1929.04 750.424C2023.5 970.709 2058.77 1189.27 2039.47 1364.55C2020.17 1539.85 1946.3 1671.74 1822.59 1718.91C1698.89 1766.09 1548.57 1719.69 1405.49 1606.32C1262.42 1492.96 1126.69 1312.71 1032.24 1092.42C937.781 872.136 902.505 653.574 921.806 478.294C941.11 302.995 1014.98 171.108 1138.68 123.933C1262.39 76.7582 1412.7 123.152 1555.79 236.526C1698.85 349.886 1834.58 530.139 1929.04 750.424Z" stroke="url(#paint95_linear_22_246)" stroke-opacity="0.3"/>
<path d="M1931.45 756.232C2020.69 978.467 2050.97 1198.14 2027.82 1373.65C2004.66 1549.17 1928.08 1680.4 1803.71 1725.97C1679.34 1771.54 1530.53 1722.91 1390.43 1607.21C1250.34 1491.51 1119.06 1308.85 1029.82 1086.61C940.585 864.376 910.302 644.699 933.457 469.193C956.616 293.668 1033.2 162.443 1157.57 116.871C1281.94 71.299 1430.75 119.935 1570.85 235.638C1710.93 351.328 1842.21 533.997 1931.45 756.232Z" stroke="url(#paint96_linear_22_246)" stroke-opacity="0.3"/>
<path d="M1933.72 762.091C2017.72 986.209 2043 1206.93 2016 1382.61C1988.99 1558.31 1909.72 1688.83 1784.72 1732.79C1659.72 1776.74 1512.47 1725.88 1375.39 1607.88C1238.33 1489.9 1111.54 1304.87 1027.55 1080.75C943.554 856.633 918.273 635.908 945.275 460.23C972.281 284.533 1051.56 154.011 1176.55 110.055C1301.55 66.0996 1448.8 116.962 1585.88 234.959C1722.94 352.944 1849.73 537.974 1933.72 762.091Z" stroke="url(#paint97_linear_22_246)" stroke-opacity="0.3"/>
<path d="M1935.86 767.999C2014.59 993.931 2034.86 1215.64 2004.02 1391.43C1973.17 1567.25 1891.23 1697.03 1765.65 1739.35C1640.06 1781.68 1494.4 1728.61 1360.39 1608.35C1226.4 1488.11 1104.14 1300.77 1025.41 1074.84C946.687 848.91 926.415 627.205 957.257 451.408C988.102 275.592 1070.04 145.813 1195.63 103.487C1321.22 61.1611 1466.87 114.235 1600.88 234.491C1734.88 354.733 1857.14 542.067 1935.86 767.999Z" stroke="url(#paint98_linear_22_246)" stroke-opacity="0.3"/>
<path d="M1937.86 773.954C2011.29 1001.63 2026.55 1224.25 1991.88 1400.11C1957.2 1575.99 1872.62 1704.99 1746.48 1745.67C1620.34 1786.36 1476.33 1731.09 1345.43 1608.61C1214.54 1486.15 1096.85 1296.56 1023.42 1068.89C949.983 841.21 934.726 618.592 969.398 442.729C1004.07 266.848 1088.65 137.851 1214.79 97.1679C1340.93 56.4848 1484.94 111.754 1615.85 234.231C1746.74 356.696 1864.43 546.277 1937.86 773.954Z" stroke="url(#paint99_linear_22_246)" stroke-opacity="0.3"/>
</g>
<defs>
<linearGradient id="paint0_linear_22_246" x1="1588.31" y1="1104.54" x2="1408.68" y2="712.951" gradientUnits="userSpaceOnUse">
<stop stop-color="#0D446C"/>
<stop offset="1" stop-color="#8B9798"/>
</linearGradient>
<linearGradient id="paint1_linear_22_246" x1="1583.88" y1="1106.57" x2="1409.63" y2="713.089" gradientUnits="userSpaceOnUse">
<stop stop-color="#0D446C"/>
<stop offset="1" stop-color="#8B9798"/>
</linearGradient>
<linearGradient id="paint2_linear_22_246" x1="1579.42" y1="1108.55" x2="1410.54" y2="713.197" gradientUnits="userSpaceOnUse">
<stop stop-color="#0D446C"/>
<stop offset="1" stop-color="#8B9798"/>
</linearGradient>
<linearGradient id="paint3_linear_22_246" x1="1574.93" y1="1110.46" x2="1411.4" y2="713.272" gradientUnits="userSpaceOnUse">
<stop stop-color="#0D446C"/>
<stop offset="1" stop-color="#8B9798"/>
</linearGradient>
<linearGradient id="paint4_linear_22_246" x1="1570.41" y1="1112.32" x2="1412.23" y2="713.312" gradientUnits="userSpaceOnUse">
<stop stop-color="#0D446C"/>
<stop offset="1" stop-color="#8B9798"/>
</linearGradient>
<linearGradient id="paint5_linear_22_246" x1="1565.87" y1="1114.12" x2="1413.02" y2="713.315" gradientUnits="userSpaceOnUse">
<stop stop-color="#0D446C"/>
<stop offset="1" stop-color="#8B9798"/>
</linearGradient>
<linearGradient id="paint6_linear_22_246" x1="1561.3" y1="1115.87" x2="1413.78" y2="713.278" gradientUnits="userSpaceOnUse">
<stop stop-color="#0D446C"/>
<stop offset="1" stop-color="#8B9798"/>
</linearGradient>
<linearGradient id="paint7_linear_22_246" x1="1556.7" y1="1117.55" x2="1414.51" y2="713.201" gradientUnits="userSpaceOnUse">
<stop stop-color="#0D446C"/>
<stop offset="1" stop-color="#8B9798"/>
</linearGradient>
<linearGradient id="paint8_linear_22_246" x1="1552.08" y1="1119.17" x2="1415.22" y2="713.081" gradientUnits="userSpaceOnUse">
<stop stop-color="#0D446C"/>
<stop offset="1" stop-color="#8B9798"/>
</linearGradient>
<linearGradient id="paint9_linear_22_246" x1="1547.44" y1="1120.74" x2="1415.91" y2="712.917" gradientUnits="userSpaceOnUse">
<stop stop-color="#0D446C"/>
<stop offset="1" stop-color="#8B9798"/>
</linearGradient>
<linearGradient id="paint10_linear_22_246" x1="1542.78" y1="1122.24" x2="1416.58" y2="712.708" gradientUnits="userSpaceOnUse">
<stop stop-color="#0D446C"/>
<stop offset="1" stop-color="#8B9798"/>
</linearGradient>
<linearGradient id="paint11_linear_22_246" x1="1538.1" y1="1123.68" x2="1417.24" y2="712.451" gradientUnits="userSpaceOnUse">
<stop stop-color="#0D446C"/>
<stop offset="1" stop-color="#8B9798"/>
</linearGradient>
<linearGradient id="paint12_linear_22_246" x1="1533.4" y1="1125.06" x2="1417.89" y2="712.146" gradientUnits="userSpaceOnUse">
<stop stop-color="#0D446C"/>
<stop offset="1" stop-color="#8B9798"/>
</linearGradient>
<linearGradient id="paint13_linear_22_246" x1="1528.68" y1="1126.38" x2="1418.55" y2="711.793" gradientUnits="userSpaceOnUse">
<stop stop-color="#0D446C"/>
<stop offset="1" stop-color="#8B9798"/>
</linearGradient>
<linearGradient id="paint14_linear_22_246" x1="1523.96" y1="1127.63" x2="1419.2" y2="711.391" gradientUnits="userSpaceOnUse">
<stop stop-color="#0D446C"/>
<stop offset="1" stop-color="#8B9798"/>
</linearGradient>
<linearGradient id="paint15_linear_22_246" x1="1519.21" y1="1128.83" x2="1419.86" y2="710.938" gradientUnits="userSpaceOnUse">
<stop stop-color="#0D446C"/>
<stop offset="1" stop-color="#8B9798"/>
</linearGradient>
<linearGradient id="paint16_linear_22_246" x1="1514.46" y1="1129.96" x2="1420.53" y2="710.434" gradientUnits="userSpaceOnUse">
<stop stop-color="#0D446C"/>
<stop offset="1" stop-color="#8B9798"/>
</linearGradient>
<linearGradient id="paint17_linear_22_246" x1="1509.7" y1="1131.02" x2="1421.21" y2="709.879" gradientUnits="userSpaceOnUse">
<stop stop-color="#0D446C"/>
<stop offset="1" stop-color="#8B9798"/>
</linearGradient>
<linearGradient id="paint18_linear_22_246" x1="1504.92" y1="1132.02" x2="1421.91" y2="709.271" gradientUnits="userSpaceOnUse">
<stop stop-color="#0D446C"/>
<stop offset="1" stop-color="#8B9798"/>
</linearGradient>
<linearGradient id="paint19_linear_22_246" x1="1500.14" y1="1132.96" x2="1422.63" y2="708.613" gradientUnits="userSpaceOnUse">
<stop stop-color="#0D446C"/>
<stop offset="1" stop-color="#8B9798"/>
</linearGradient>
<linearGradient id="paint20_linear_22_246" x1="1495.36" y1="1133.84" x2="1423.38" y2="707.903" gradientUnits="userSpaceOnUse">
<stop stop-color="#0D446C"/>
<stop offset="1" stop-color="#8B9798"/>
</linearGradient>
<linearGradient id="paint21_linear_22_246" x1="1490.57" y1="1134.64" x2="1424.16" y2="707.14" gradientUnits="userSpaceOnUse">
<stop stop-color="#0D446C"/>
<stop offset="1" stop-color="#8B9798"/>
</linearGradient>
<linearGradient id="paint22_linear_22_246" x1="1485.77" y1="1135.39" x2="1424.98" y2="706.328" gradientUnits="userSpaceOnUse">
<stop stop-color="#0D446C"/>
<stop offset="1" stop-color="#8B9798"/>
</linearGradient>
<linearGradient id="paint23_linear_22_246" x1="1480.98" y1="1136.07" x2="1425.84" y2="705.464" gradientUnits="userSpaceOnUse">
<stop stop-color="#0D446C"/>
<stop offset="1" stop-color="#8B9798"/>
</linearGradient>
<linearGradient id="paint24_linear_22_246" x1="1476.18" y1="1136.68" x2="1426.75" y2="704.551" gradientUnits="userSpaceOnUse">
<stop stop-color="#0D446C"/>
<stop offset="1" stop-color="#8B9798"/>
</linearGradient>
<linearGradient id="paint25_linear_22_246" x1="1471.39" y1="1137.23" x2="1427.7" y2="703.589" gradientUnits="userSpaceOnUse">
<stop stop-color="#0D446C"/>
<stop offset="1" stop-color="#8B9798"/>
</linearGradient>
<linearGradient id="paint26_linear_22_246" x1="1466.6" y1="1137.71" x2="1428.71" y2="702.579" gradientUnits="userSpaceOnUse">
<stop stop-color="#0D446C"/>
<stop offset="1" stop-color="#8B9798"/>
</linearGradient>
<linearGradient id="paint27_linear_22_246" x1="1461.81" y1="1138.13" x2="1429.78" y2="701.521" gradientUnits="userSpaceOnUse">
<stop stop-color="#0D446C"/>
<stop offset="1" stop-color="#8B9798"/>
</linearGradient>
<linearGradient id="paint28_linear_22_246" x1="1457.03" y1="1138.48" x2="1430.91" y2="700.419" gradientUnits="userSpaceOnUse">
<stop stop-color="#0D446C"/>
<stop offset="1" stop-color="#8B9798"/>
</linearGradient>
<linearGradient id="paint29_linear_22_246" x1="1452.26" y1="1138.76" x2="1432.11" y2="699.274" gradientUnits="userSpaceOnUse">
<stop stop-color="#0D446C"/>
<stop offset="1" stop-color="#8B9798"/>
</linearGradient>
<linearGradient id="paint30_linear_22_246" x1="1447.49" y1="1138.98" x2="1433.38" y2="698.085" gradientUnits="userSpaceOnUse">
<stop stop-color="#0D446C"/>
<stop offset="1" stop-color="#8B9798"/>
</linearGradient>
<linearGradient id="paint31_linear_22_246" x1="1442.74" y1="1139.13" x2="1434.73" y2="696.857" gradientUnits="userSpaceOnUse">
<stop stop-color="#0D446C"/>
<stop offset="1" stop-color="#8B9798"/>
</linearGradient>
<linearGradient id="paint32_linear_22_246" x1="1437.99" y1="1139.21" x2="1436.16" y2="695.592" gradientUnits="userSpaceOnUse">
<stop stop-color="#0D446C"/>
<stop offset="1" stop-color="#8B9798"/>
</linearGradient>
<linearGradient id="paint33_linear_22_246" x1="1433.26" y1="1139.23" x2="1437.68" y2="694.291" gradientUnits="userSpaceOnUse">
<stop stop-color="#0D446C"/>
<stop offset="1" stop-color="#8B9798"/>
</linearGradient>
<linearGradient id="paint34_linear_22_246" x1="1428.55" y1="1139.19" x2="1439.28" y2="692.956" gradientUnits="userSpaceOnUse">
<stop stop-color="#0D446C"/>
<stop offset="1" stop-color="#8B9798"/>
</linearGradient>
<linearGradient id="paint35_linear_22_246" x1="1423.85" y1="1139.07" x2="1440.99" y2="691.594" gradientUnits="userSpaceOnUse">
<stop stop-color="#0D446C"/>
<stop offset="1" stop-color="#8B9798"/>
</linearGradient>
<linearGradient id="paint36_linear_22_246" x1="1419.16" y1="1138.89" x2="1442.79" y2="690.205" gradientUnits="userSpaceOnUse">
<stop stop-color="#0D446C"/>
<stop offset="1" stop-color="#8B9798"/>
</linearGradient>
<linearGradient id="paint37_linear_22_246" x1="1414.5" y1="1138.65" x2="1444.7" y2="688.791" gradientUnits="userSpaceOnUse">
<stop stop-color="#0D446C"/>
<stop offset="1" stop-color="#8B9798"/>
</linearGradient>
<linearGradient id="paint38_linear_22_246" x1="1409.86" y1="1138.33" x2="1446.72" y2="687.358" gradientUnits="userSpaceOnUse">
<stop stop-color="#0D446C"/>
<stop offset="1" stop-color="#8B9798"/>
</linearGradient>
<linearGradient id="paint39_linear_22_246" x1="1405.23" y1="1137.95" x2="1448.85" y2="685.909" gradientUnits="userSpaceOnUse">
<stop stop-color="#0D446C"/>
<stop offset="1" stop-color="#8B9798"/>
</linearGradient>
<linearGradient id="paint40_linear_22_246" x1="1400.63" y1="1137.51" x2="1451.1" y2="684.449" gradientUnits="userSpaceOnUse">
<stop stop-color="#0D446C"/>
<stop offset="1" stop-color="#8B9798"/>
</linearGradient>
<linearGradient id="paint41_linear_22_246" x1="1396.06" y1="1137" x2="1453.47" y2="682.98" gradientUnits="userSpaceOnUse">
<stop stop-color="#0D446C"/>
<stop offset="1" stop-color="#8B9798"/>
</linearGradient>
<linearGradient id="paint42_linear_22_246" x1="1391.51" y1="1136.42" x2="1455.97" y2="681.511" gradientUnits="userSpaceOnUse">
<stop stop-color="#0D446C"/>
<stop offset="1" stop-color="#8B9798"/>
</linearGradient>
<linearGradient id="paint43_linear_22_246" x1="1386.99" y1="1135.78" x2="1458.6" y2="680.043" gradientUnits="userSpaceOnUse">
<stop stop-color="#0D446C"/>
<stop offset="1" stop-color="#8B9798"/>
</linearGradient>
<linearGradient id="paint44_linear_22_246" x1="1382.49" y1="1135.07" x2="1461.36" y2="678.582" gradientUnits="userSpaceOnUse">
<stop stop-color="#0D446C"/>
<stop offset="1" stop-color="#8B9798"/>
</linearGradient>
<linearGradient id="paint45_linear_22_246" x1="1378.03" y1="1134.3" x2="1464.25" y2="677.136" gradientUnits="userSpaceOnUse">
<stop stop-color="#0D446C"/>
<stop offset="1" stop-color="#8B9798"/>
</linearGradient>
<linearGradient id="paint46_linear_22_246" x1="1373.6" y1="1133.47" x2="1467.29" y2="675.708" gradientUnits="userSpaceOnUse">
<stop stop-color="#0D446C"/>
<stop offset="1" stop-color="#8B9798"/>
</linearGradient>
<linearGradient id="paint47_linear_22_246" x1="1369.2" y1="1132.57" x2="1470.47" y2="674.306" gradientUnits="userSpaceOnUse">
<stop stop-color="#0D446C"/>
<stop offset="1" stop-color="#8B9798"/>
</linearGradient>
<linearGradient id="paint48_linear_22_246" x1="1364.83" y1="1131.6" x2="1473.8" y2="672.934" gradientUnits="userSpaceOnUse">
<stop stop-color="#0D446C"/>
<stop offset="1" stop-color="#8B9798"/>
</linearGradient>
<linearGradient id="paint49_linear_22_246" x1="1360.5" y1="1130.57" x2="1477.28" y2="671.603" gradientUnits="userSpaceOnUse">
<stop stop-color="#0D446C"/>
<stop offset="1" stop-color="#8B9798"/>
</linearGradient>
<linearGradient id="paint50_linear_22_246" x1="1356.21" y1="1129.48" x2="1480.91" y2="670.315" gradientUnits="userSpaceOnUse">
<stop stop-color="#0D446C"/>
<stop offset="1" stop-color="#8B9798"/>
</linearGradient>
<linearGradient id="paint51_linear_22_246" x1="1351.95" y1="1128.32" x2="1484.7" y2="669.08" gradientUnits="userSpaceOnUse">
<stop stop-color="#0D446C"/>
<stop offset="1" stop-color="#8B9798"/>
</linearGradient>
<linearGradient id="paint52_linear_22_246" x1="1347.73" y1="1127.1" x2="1488.64" y2="667.907" gradientUnits="userSpaceOnUse">
<stop stop-color="#0D446C"/>
<stop offset="1" stop-color="#8B9798"/>
</linearGradient>
<linearGradient id="paint53_linear_22_246" x1="1343.56" y1="1125.82" x2="1492.74" y2="666.801" gradientUnits="userSpaceOnUse">
<stop stop-color="#0D446C"/>
<stop offset="1" stop-color="#8B9798"/>
</linearGradient>
<linearGradient id="paint54_linear_22_246" x1="1339.42" y1="1124.47" x2="1497.01" y2="665.773" gradientUnits="userSpaceOnUse">
<stop stop-color="#0D446C"/>
<stop offset="1" stop-color="#8B9798"/>
</linearGradient>
<linearGradient id="paint55_linear_22_246" x1="1335.33" y1="1123.07" x2="1501.43" y2="664.831" gradientUnits="userSpaceOnUse">
<stop stop-color="#0D446C"/>
<stop offset="1" stop-color="#8B9798"/>
</linearGradient>
<linearGradient id="paint56_linear_22_246" x1="1331.28" y1="1121.6" x2="1506.02" y2="663.982" gradientUnits="userSpaceOnUse">
<stop stop-color="#0D446C"/>
<stop offset="1" stop-color="#8B9798"/>
</linearGradient>
<linearGradient id="paint57_linear_22_246" x1="1327.28" y1="1120.07" x2="1510.76" y2="663.237" gradientUnits="userSpaceOnUse">
<stop stop-color="#0D446C"/>
<stop offset="1" stop-color="#8B9798"/>
</linearGradient>
<linearGradient id="paint58_linear_22_246" x1="1323.32" y1="1118.48" x2="1515.67" y2="662.606" gradientUnits="userSpaceOnUse">
<stop stop-color="#0D446C"/>
<stop offset="1" stop-color="#8B9798"/>
</linearGradient>
<linearGradient id="paint59_linear_22_246" x1="1319.42" y1="1116.83" x2="1520.74" y2="662.096" gradientUnits="userSpaceOnUse">
<stop stop-color="#0D446C"/>
<stop offset="1" stop-color="#8B9798"/>
</linearGradient>
<linearGradient id="paint60_linear_22_246" x1="1315.56" y1="1115.12" x2="1525.96" y2="661.72" gradientUnits="userSpaceOnUse">
<stop stop-color="#0D446C"/>
<stop offset="1" stop-color="#8B9798"/>
</linearGradient>
<linearGradient id="paint61_linear_22_246" x1="1311.75" y1="1113.35" x2="1531.35" y2="661.486" gradientUnits="userSpaceOnUse">
<stop stop-color="#0D446C"/>
<stop offset="1" stop-color="#8B9798"/>
</linearGradient>
<linearGradient id="paint62_linear_22_246" x1="1307.99" y1="1111.53" x2="1536.88" y2="661.405" gradientUnits="userSpaceOnUse">
<stop stop-color="#0D446C"/>
<stop offset="1" stop-color="#8B9798"/>
</linearGradient>
<linearGradient id="paint63_linear_22_246" x1="1304.29" y1="1109.64" x2="1542.57" y2="661.488" gradientUnits="userSpaceOnUse">
<stop stop-color="#0D446C"/>
<stop offset="1" stop-color="#8B9798"/>
</linearGradient>
<linearGradient id="paint64_linear_22_246" x1="1300.64" y1="1107.7" x2="1548.4" y2="661.743" gradientUnits="userSpaceOnUse">
<stop stop-color="#0D446C"/>
<stop offset="1" stop-color="#8B9798"/>
</linearGradient>
<linearGradient id="paint65_linear_22_246" x1="1297.04" y1="1105.7" x2="1554.38" y2="662.183" gradientUnits="userSpaceOnUse">
<stop stop-color="#0D446C"/>
<stop offset="1" stop-color="#8B9798"/>
</linearGradient>
<linearGradient id="paint66_linear_22_246" x1="1293.5" y1="1103.65" x2="1560.49" y2="662.818" gradientUnits="userSpaceOnUse">
<stop stop-color="#0D446C"/>
<stop offset="1" stop-color="#8B9798"/>
</linearGradient>
<linearGradient id="paint67_linear_22_246" x1="1290.02" y1="1101.54" x2="1566.73" y2="663.658" gradientUnits="userSpaceOnUse">
<stop stop-color="#0D446C"/>
<stop offset="1" stop-color="#8B9798"/>
</linearGradient>
<linearGradient id="paint68_linear_22_246" x1="1286.6" y1="1099.37" x2="1573.09" y2="664.713" gradientUnits="userSpaceOnUse">
<stop stop-color="#0D446C"/>
<stop offset="1" stop-color="#8B9798"/>
</linearGradient>
<linearGradient id="paint69_linear_22_246" x1="1283.23" y1="1097.15" x2="1579.57" y2="665.995" gradientUnits="userSpaceOnUse">
<stop stop-color="#0D446C"/>
<stop offset="1" stop-color="#8B9798"/>
</linearGradient>
<linearGradient id="paint70_linear_22_246" x1="1279.93" y1="1094.88" x2="1586.15" y2="667.51" gradientUnits="userSpaceOnUse">
<stop stop-color="#0D446C"/>
<stop offset="1" stop-color="#8B9798"/>
</linearGradient>
<linearGradient id="paint71_linear_22_246" x1="1276.68" y1="1092.55" x2="1592.83" y2="669.273" gradientUnits="userSpaceOnUse">
<stop stop-color="#0D446C"/>
<stop offset="1" stop-color="#8B9798"/>
</linearGradient>
<linearGradient id="paint72_linear_22_246" x1="1273.5" y1="1090.18" x2="1599.6" y2="671.291" gradientUnits="userSpaceOnUse">
<stop stop-color="#0D446C"/>
<stop offset="1" stop-color="#8B9798"/>
</linearGradient>
<linearGradient id="paint73_linear_22_246" x1="1270.38" y1="1087.75" x2="1606.44" y2="673.571" gradientUnits="userSpaceOnUse">
<stop stop-color="#0D446C"/>
<stop offset="1" stop-color="#8B9798"/>
</linearGradient>
<linearGradient id="paint74_linear_22_246" x1="1267.33" y1="1085.27" x2="1613.34" y2="676.124" gradientUnits="userSpaceOnUse">
<stop stop-color="#0D446C"/>
<stop offset="1" stop-color="#8B9798"/>
</linearGradient>
<linearGradient id="paint75_linear_22_246" x1="1264.34" y1="1082.74" x2="1620.29" y2="678.958" gradientUnits="userSpaceOnUse">
<stop stop-color="#0D446C"/>
<stop offset="1" stop-color="#8B9798"/>
</linearGradient>
<linearGradient id="paint76_linear_22_246" x1="1261.41" y1="1080.16" x2="1627.28" y2="682.078" gradientUnits="userSpaceOnUse">
<stop stop-color="#0D446C"/>
<stop offset="1" stop-color="#8B9798"/>
</linearGradient>
<linearGradient id="paint77_linear_22_246" x1="1258.56" y1="1077.53" x2="1634.29" y2="685.494" gradientUnits="userSpaceOnUse">
<stop stop-color="#0D446C"/>
<stop offset="1" stop-color="#8B9798"/>
</linearGradient>
<linearGradient id="paint78_linear_22_246" x1="1255.77" y1="1074.86" x2="1641.3" y2="689.205" gradientUnits="userSpaceOnUse">
<stop stop-color="#0D446C"/>
<stop offset="1" stop-color="#8B9798"/>
</linearGradient>
<linearGradient id="paint79_linear_22_246" x1="1253.05" y1="1072.14" x2="1648.3" y2="693.223" gradientUnits="userSpaceOnUse">
<stop stop-color="#0D446C"/>
<stop offset="1" stop-color="#8B9798"/>
</linearGradient>
<linearGradient id="paint80_linear_22_246" x1="1250.39" y1="1069.37" x2="1655.28" y2="697.546" gradientUnits="userSpaceOnUse">
<stop stop-color="#0D446C"/>
<stop offset="1" stop-color="#8B9798"/>
</linearGradient>
<linearGradient id="paint81_linear_22_246" x1="1247.81" y1="1066.56" x2="1662.21" y2="702.18" gradientUnits="userSpaceOnUse">
<stop stop-color="#0D446C"/>
<stop offset="1" stop-color="#8B9798"/>
</linearGradient>
<linearGradient id="paint82_linear_22_246" x1="1245.3" y1="1063.7" x2="1669.07" y2="707.125" gradientUnits="userSpaceOnUse">
<stop stop-color="#0D446C"/>
<stop offset="1" stop-color="#8B9798"/>
</linearGradient>
<linearGradient id="paint83_linear_22_246" x1="1242.86" y1="1060.8" x2="1675.86" y2="712.382" gradientUnits="userSpaceOnUse">
<stop stop-color="#0D446C"/>
<stop offset="1" stop-color="#8B9798"/>
</linearGradient>
<linearGradient id="paint84_linear_22_246" x1="1240.5" y1="1057.86" x2="1682.54" y2="717.948" gradientUnits="userSpaceOnUse">
<stop stop-color="#0D446C"/>
<stop offset="1" stop-color="#8B9798"/>
</linearGradient>
<linearGradient id="paint85_linear_22_246" x1="1238.2" y1="1054.87" x2="1689.11" y2="723.823" gradientUnits="userSpaceOnUse">
<stop stop-color="#0D446C"/>
<stop offset="1" stop-color="#8B9798"/>
</linearGradient>
<linearGradient id="paint86_linear_22_246" x1="1235.98" y1="1051.85" x2="1695.54" y2="730.001" gradientUnits="userSpaceOnUse">
<stop stop-color="#0D446C"/>
<stop offset="1" stop-color="#8B9798"/>
</linearGradient>
<linearGradient id="paint87_linear_22_246" x1="1233.84" y1="1048.78" x2="1701.81" y2="736.477" gradientUnits="userSpaceOnUse">
<stop stop-color="#0D446C"/>
<stop offset="1" stop-color="#8B9798"/>
</linearGradient>
<linearGradient id="paint88_linear_22_246" x1="1231.77" y1="1045.68" x2="1707.91" y2="743.247" gradientUnits="userSpaceOnUse">
<stop stop-color="#0D446C"/>
<stop offset="1" stop-color="#8B9798"/>
</linearGradient>
<linearGradient id="paint89_linear_22_246" x1="1229.78" y1="1042.54" x2="1713.81" y2="750.3" gradientUnits="userSpaceOnUse">
<stop stop-color="#0D446C"/>
<stop offset="1" stop-color="#8B9798"/>
</linearGradient>
<linearGradient id="paint90_linear_22_246" x1="1227.86" y1="1039.36" x2="1719.5" y2="757.627" gradientUnits="userSpaceOnUse">
<stop stop-color="#0D446C"/>
<stop offset="1" stop-color="#8B9798"/>
</linearGradient>
<linearGradient id="paint91_linear_22_246" x1="1226.02" y1="1036.15" x2="1724.96" y2="765.218" gradientUnits="userSpaceOnUse">
<stop stop-color="#0D446C"/>
<stop offset="1" stop-color="#8B9798"/>
</linearGradient>
<linearGradient id="paint92_linear_22_246" x1="1224.25" y1="1032.9" x2="1730.18" y2="773.059" gradientUnits="userSpaceOnUse">
<stop stop-color="#0D446C"/>
<stop offset="1" stop-color="#8B9798"/>
</linearGradient>
<linearGradient id="paint93_linear_22_246" x1="1222.57" y1="1029.62" x2="1735.13" y2="781.138" gradientUnits="userSpaceOnUse">
<stop stop-color="#0D446C"/>
<stop offset="1" stop-color="#8B9798"/>
</linearGradient>
<linearGradient id="paint94_linear_22_246" x1="1220.96" y1="1026.3" x2="1739.81" y2="789.44" gradientUnits="userSpaceOnUse">
<stop stop-color="#0D446C"/>
<stop offset="1" stop-color="#8B9798"/>
</linearGradient>
<linearGradient id="paint95_linear_22_246" x1="1219.44" y1="1022.95" x2="1744.19" y2="797.947" gradientUnits="userSpaceOnUse">
<stop stop-color="#0D446C"/>
<stop offset="1" stop-color="#8B9798"/>
</linearGradient>
<linearGradient id="paint96_linear_22_246" x1="1217.99" y1="1019.57" x2="1748.27" y2="806.641" gradientUnits="userSpaceOnUse">
<stop stop-color="#0D446C"/>
<stop offset="1" stop-color="#8B9798"/>
</linearGradient>
<linearGradient id="paint97_linear_22_246" x1="1216.62" y1="1016.17" x2="1752.03" y2="815.506" gradientUnits="userSpaceOnUse">
<stop stop-color="#0D446C"/>
<stop offset="1" stop-color="#8B9798"/>
</linearGradient>
<linearGradient id="paint98_linear_22_246" x1="1215.33" y1="1012.73" x2="1755.46" y2="824.522" gradientUnits="userSpaceOnUse">
<stop stop-color="#0D446C"/>
<stop offset="1" stop-color="#8B9798"/>
</linearGradient>
<linearGradient id="paint99_linear_22_246" x1="1214.13" y1="1009.26" x2="1758.55" y2="833.67" gradientUnits="userSpaceOnUse">
<stop stop-color="#0D446C"/>
<stop offset="1" stop-color="#8B9798"/>
</linearGradient>
</defs>
</svg>
