<svg width="1440" height="962" viewBox="0 0 1440 962" fill="none" xmlns="http://www.w3.org/2000/svg">
<g opacity="0.05">
<path d="M694.116 257.308C893.049 174.53 1084.38 115.775 1232.88 87.6939C1307.14 73.6526 1370.67 67.2863 1419.07 69.4093C1443.28 70.4709 1463.67 73.6539 1479.72 79.0444C1495.77 84.4335 1507.45 92.0155 1514.29 101.865C1521.13 111.714 1522.87 123.433 1519.82 136.767C1516.78 150.104 1508.96 165.026 1496.76 181.236C1472.35 213.657 1430.45 251.158 1374.37 291.355C1262.19 371.746 1093.35 462.862 894.416 545.64C695.483 628.418 504.157 687.172 355.648 715.253C281.389 729.295 217.864 735.661 169.459 733.538C145.256 732.476 124.863 729.293 108.81 723.903C92.7599 718.514 81.0841 710.932 74.242 701.083C67.3999 691.234 65.6673 679.514 68.7104 666.18C71.7543 652.843 79.5707 637.922 91.7747 621.711C116.182 589.29 158.079 551.79 214.167 511.592C326.338 431.202 495.183 340.086 694.116 257.308Z" stroke="url(#paint0_linear_442_705)"/>
<path d="M699.346 255.163C899.413 174.074 1091.18 117.088 1239.48 90.5032C1313.64 77.2098 1376.9 71.5226 1424.89 74.2119C1448.88 75.5566 1469.03 78.9941 1484.79 84.6051C1500.56 90.2146 1511.91 97.9819 1518.4 107.976C1524.88 117.969 1526.23 129.789 1522.8 143.181C1519.36 156.577 1511.13 171.513 1498.51 187.698C1473.27 220.067 1430.51 257.353 1373.58 297.192C1259.71 376.866 1089.25 466.695 889.187 547.784C689.12 628.874 497.353 685.859 349.049 712.444C274.893 725.738 211.631 731.425 163.645 728.736C139.652 727.391 119.506 723.953 103.738 718.342C87.9733 712.733 76.6208 704.966 70.1372 694.972C63.6536 684.978 62.2989 673.158 65.7359 659.766C69.1737 646.371 77.3988 631.435 90.0198 615.249C115.261 582.88 158.023 545.595 214.957 505.756C328.82 426.082 499.279 336.253 699.346 255.163Z" stroke="url(#paint1_linear_442_705)"/>
<path d="M704.603 253.063C905.743 173.687 1097.89 118.488 1245.95 93.4066C1319.98 80.8652 1382.96 75.8589 1430.51 79.1137C1454.29 80.7411 1474.18 84.4321 1489.66 90.2618C1505.13 96.09 1516.16 104.04 1522.28 114.176C1528.4 124.311 1529.38 136.227 1525.55 149.674C1521.72 163.124 1513.09 178.071 1500.05 194.225C1473.99 226.533 1430.37 263.591 1372.61 303.06C1257.09 381.993 1085.07 470.507 883.928 549.884C682.788 629.26 490.64 684.459 342.586 709.54C268.555 722.082 205.576 727.088 158.023 723.833C134.246 722.206 114.355 718.515 98.8764 712.685C83.4018 706.857 72.3758 698.907 66.2524 688.771C60.129 678.636 59.1525 666.719 62.9824 653.273C66.8131 639.823 75.4442 624.876 88.4785 608.722C114.546 576.414 158.16 539.356 215.923 499.887C331.442 420.954 503.463 332.44 704.603 253.063Z" stroke="url(#paint2_linear_442_705)"/>
<path d="M709.889 251.008C912.041 173.369 1104.51 119.974 1252.27 96.404C1326.15 84.6183 1388.83 80.2945 1435.94 84.1137C1459.49 86.0234 1479.12 89.9668 1494.3 96.0134C1509.48 102.059 1520.18 110.19 1525.94 120.464C1531.7 130.738 1532.3 142.747 1528.08 156.244C1523.86 169.744 1514.82 184.697 1501.38 200.816C1474.49 233.052 1430.04 269.873 1371.47 308.959C1254.33 387.127 1080.8 474.299 878.644 551.939C676.492 629.578 484.021 682.973 336.262 706.543C262.378 718.329 199.702 722.652 152.597 718.833C129.043 716.923 109.412 712.98 94.2284 706.933C79.0483 700.888 68.352 692.757 62.5904 682.483C56.8288 672.209 56.2309 660.199 60.4523 646.703C64.6748 633.203 73.7095 618.25 87.1529 602.131C114.039 569.895 158.492 533.074 217.066 493.988C334.207 415.82 507.736 328.647 709.889 251.008Z" stroke="url(#paint3_linear_442_705)"/>
<path d="M715.199 248.999C918.301 173.121 1111.04 121.546 1258.45 99.4945C1332.17 88.4682 1394.52 84.8282 1441.17 89.2107C1464.49 91.402 1483.85 95.5966 1498.74 101.858C1513.62 108.119 1523.98 116.428 1529.38 126.838C1534.78 137.248 1535 149.347 1530.39 162.89C1525.77 176.435 1516.34 191.39 1502.49 207.468C1474.79 239.624 1429.52 276.195 1370.15 314.887C1251.42 392.266 1076.44 478.07 873.333 553.948C670.231 629.827 477.495 681.402 330.077 703.453C256.364 714.479 194.009 718.119 147.366 713.737C124.043 711.546 104.678 707.351 89.7934 701.089C74.9125 694.829 64.5489 686.52 59.1506 676.11C53.7523 665.7 53.5332 653.601 58.145 640.058C62.7578 626.512 72.1933 611.558 86.0419 595.479C113.738 563.324 159.016 526.753 218.383 488.061C337.11 410.681 512.096 324.877 715.199 248.999Z" stroke="url(#paint4_linear_442_705)"/>
<path d="M720.533 247.036C924.524 172.942 1117.47 123.202 1264.5 102.676C1338.02 92.4126 1400.03 89.4575 1446.2 94.4019C1469.28 96.8742 1488.38 101.319 1502.96 107.794C1517.54 114.267 1527.56 122.752 1532.6 133.295C1537.63 143.838 1537.47 156.023 1532.47 169.608C1527.47 183.195 1517.64 198.147 1503.39 214.18C1474.89 246.244 1428.8 282.555 1368.66 320.841C1248.38 397.408 1071.99 481.817 868 555.911C664.009 630.005 471.068 679.745 324.035 700.271C250.514 710.534 188.5 713.49 142.333 708.545C119.248 706.073 100.155 701.628 85.5743 695.153C70.9972 688.68 60.9692 680.195 55.9357 669.652C50.9021 659.109 51.0617 646.924 56.0625 633.339C61.0644 619.752 70.8977 604.8 85.1472 588.768C113.645 556.703 159.735 520.392 219.877 482.107C340.154 405.539 516.542 321.13 720.533 247.036Z" stroke="url(#paint5_linear_442_705)"/>
<path d="M725.889 245.119C930.706 172.832 1123.79 124.943 1270.4 105.949C1343.7 96.451 1405.36 94.1816 1451.03 99.6865C1473.87 102.439 1492.69 107.132 1506.96 113.818C1521.23 120.503 1530.92 129.161 1535.59 139.834C1540.25 150.507 1539.72 162.774 1534.33 176.397C1528.94 190.022 1518.71 204.966 1504.06 220.949C1474.77 252.912 1427.89 288.951 1366.99 326.819C1245.2 402.551 1067.46 485.54 862.643 557.828C657.826 630.115 464.738 678.004 318.135 696.998C244.83 706.496 183.175 708.765 137.498 703.26C114.659 700.508 95.8428 695.815 81.5707 689.128C67.3017 682.444 57.6122 673.786 52.9447 663.113C48.2772 652.44 48.8156 640.172 54.2038 626.55C59.5932 612.924 69.8215 597.981 84.4675 581.998C113.758 550.034 160.645 513.995 221.544 476.127C343.334 400.396 521.072 317.407 725.889 245.119Z" stroke="url(#paint6_linear_442_705)"/>
<path d="M731.266 243.25C936.847 172.791 1130.02 126.768 1276.15 109.311C1349.22 100.582 1410.5 98.9991 1455.67 105.063C1478.25 108.095 1496.79 113.035 1510.75 119.93C1524.7 126.824 1534.05 135.653 1538.35 146.453C1542.65 157.252 1541.73 169.599 1535.96 183.255C1530.19 196.914 1519.57 211.846 1504.53 227.773C1474.45 259.626 1426.78 295.383 1365.15 332.821C1241.88 407.694 1062.85 489.238 857.266 559.697C651.685 630.155 458.509 676.179 312.381 693.636C239.313 702.365 178.036 703.947 132.864 697.884C110.277 694.852 91.7446 689.912 77.7851 683.016C63.8286 676.122 54.4803 667.294 50.1801 656.494C45.8799 645.694 46.7969 633.348 52.571 619.691C58.3462 606.032 68.9662 591.101 84.0043 575.173C114.079 543.32 161.749 507.564 223.386 470.125C346.652 395.252 525.685 313.709 731.266 243.25Z" stroke="url(#paint7_linear_442_705)"/>
<path d="M736.662 241.429C942.944 172.82 1136.15 128.676 1281.76 112.762C1354.56 104.804 1415.44 103.909 1460.1 110.529C1482.43 113.84 1500.67 119.025 1514.31 126.128C1527.95 133.229 1536.96 142.225 1540.89 153.149C1544.82 164.073 1543.53 176.495 1537.37 190.181C1531.21 203.869 1520.2 218.784 1504.77 234.651C1473.92 266.384 1425.49 301.847 1363.13 338.845C1238.42 412.836 1058.15 492.909 851.87 561.518C645.588 630.126 452.383 674.271 306.775 690.185C233.966 698.142 173.086 699.038 128.432 692.417C106.104 689.107 87.8609 683.921 74.2182 676.819C60.5785 669.717 51.574 660.721 47.6423 649.797C43.7106 638.874 45.006 626.452 51.1641 612.766C57.3235 599.077 68.332 584.162 83.7575 568.295C114.607 536.562 163.046 501.099 225.402 464.102C350.106 390.111 530.38 310.037 736.662 241.429Z" stroke="url(#paint8_linear_442_705)"/>
<path d="M742.075 239.656C948.996 172.918 1142.17 130.667 1287.21 116.301C1359.74 109.117 1420.21 108.909 1464.33 116.084C1486.39 119.672 1504.34 125.102 1517.66 132.409C1530.98 139.715 1539.64 148.877 1543.2 159.921C1546.76 170.966 1545.09 183.46 1538.55 197.171C1532.01 210.885 1520.61 225.779 1504.8 241.581C1473.19 273.184 1424 308.343 1360.94 344.888C1234.84 417.975 1053.38 496.553 846.457 563.291C639.537 630.029 446.361 672.28 301.317 686.646C228.791 693.83 168.327 694.038 124.204 686.863C102.142 683.275 84.1933 677.845 70.8716 670.538C57.5528 663.232 48.8947 654.07 45.3325 643.025C41.7703 631.981 43.4439 619.487 49.9841 605.776C56.5257 592.062 67.9195 577.168 83.7278 561.366C115.343 529.763 164.535 494.604 227.591 458.059C353.696 384.972 535.155 306.393 742.075 239.656Z" stroke="url(#paint9_linear_442_705)"/>
<path d="M747.504 237.932C955 173.086 1148.09 132.74 1292.52 119.926C1364.74 113.518 1424.77 113.997 1468.35 121.725C1490.14 125.59 1507.79 131.262 1520.79 138.772C1533.78 146.281 1542.09 155.605 1545.28 166.768C1548.47 177.93 1546.42 190.492 1539.5 204.224C1532.58 217.96 1520.8 232.827 1504.62 248.559C1472.25 280.023 1422.32 314.867 1358.58 350.949C1231.11 423.109 1048.52 500.169 841.027 565.015C633.532 629.861 440.445 670.207 296.009 683.021C223.787 689.429 163.757 688.95 120.179 681.222C98.3899 677.358 80.7415 671.685 67.7449 664.175C54.751 656.666 46.4418 647.342 43.2501 636.18C40.0584 625.017 42.1096 612.455 49.03 598.723C55.9519 584.988 67.7274 570.12 83.9136 554.388C116.285 522.924 166.216 488.081 229.953 451.998C357.42 379.838 540.009 302.778 747.504 237.932Z" stroke="url(#paint10_linear_442_705)"/>
<path d="M752.947 236.257C960.955 173.322 1153.89 134.894 1297.68 123.636C1369.57 118.007 1429.15 119.172 1472.17 127.451C1493.68 131.59 1511.02 137.503 1523.69 145.214C1536.36 152.923 1544.31 162.407 1547.13 173.684C1549.95 184.962 1547.53 197.588 1540.23 211.338C1532.93 225.09 1520.77 239.927 1504.22 255.585C1471.1 286.899 1420.44 321.417 1356.05 357.025C1227.26 428.237 1043.59 503.754 835.584 566.689C627.577 629.624 434.638 668.052 290.854 679.31C218.958 684.94 159.38 683.774 116.361 675.495C94.8509 671.356 77.508 665.443 64.8403 657.732C52.1754 650.023 44.2173 640.539 41.3971 629.262C38.5768 617.985 41.0052 605.358 48.3037 591.609C55.6037 577.857 67.7573 563.019 84.3165 547.362C117.434 516.047 168.088 481.529 232.487 445.921C361.277 374.71 544.94 299.192 752.947 236.257Z" stroke="url(#paint11_linear_442_705)"/>
<path d="M758.403 234.632C966.859 173.627 1159.59 137.13 1302.68 127.431C1374.23 122.581 1433.34 124.434 1475.78 133.26C1497.01 137.673 1514.04 143.825 1526.37 151.734C1538.71 159.641 1546.31 169.282 1548.76 180.671C1551.21 192.06 1548.4 204.747 1540.73 218.51C1533.05 232.275 1520.52 247.077 1503.6 262.655C1469.74 293.811 1418.38 327.993 1353.34 363.115C1223.27 433.357 1038.58 507.309 830.128 568.314C621.672 629.319 428.94 665.816 285.852 675.515C214.304 680.365 155.196 678.512 112.749 669.686C91.525 665.273 74.4929 659.121 62.1581 651.212C49.8259 643.305 42.2213 633.664 39.7733 622.275C37.3253 610.886 40.1303 598.199 47.8046 584.436C55.4806 570.671 68.0086 555.869 84.9356 540.291C118.788 509.135 170.151 474.953 235.191 439.831C365.265 369.589 549.947 295.637 758.403 234.632Z" stroke="url(#paint12_linear_442_705)"/>
<path d="M763.87 233.058C972.711 174.002 1165.18 139.445 1307.53 131.308C1378.7 127.24 1437.32 129.779 1479.19 139.15C1500.12 143.836 1516.83 150.224 1528.83 158.329C1540.83 166.432 1548.08 176.228 1550.15 187.725C1552.23 199.222 1549.05 211.967 1541 225.738C1532.95 239.511 1520.05 254.274 1502.76 269.768C1468.18 300.755 1416.13 334.591 1350.46 369.218C1219.15 438.468 1033.5 510.832 824.662 569.888C615.821 628.944 423.353 663.501 281.005 671.637C209.827 675.706 151.208 673.167 109.346 663.795C88.4138 659.109 71.6978 652.721 59.6995 644.616C47.7039 636.513 40.4549 626.718 38.3799 615.221C36.3048 603.723 39.4857 590.979 47.5335 577.208C55.5831 563.434 68.4817 548.671 85.7714 533.177C120.35 502.19 172.404 468.355 238.067 433.728C369.385 364.478 555.029 292.113 763.87 233.058Z" stroke="url(#paint13_linear_442_705)"/>
<path d="M769.346 231.535C978.509 174.446 1170.65 141.84 1312.22 135.268C1383 131.982 1441.12 135.207 1482.38 145.121C1503.01 150.078 1519.41 156.701 1531.07 164.999C1542.72 173.295 1549.61 183.242 1551.32 194.845C1553.02 206.447 1549.46 219.245 1541.04 233.021C1532.62 246.799 1519.36 261.518 1501.71 276.923C1466.42 307.732 1413.68 341.211 1347.42 375.331C1214.9 443.568 1028.35 514.323 819.186 571.412C610.023 628.501 417.879 661.106 276.315 667.678C205.528 670.964 147.415 667.74 106.15 657.826C85.5175 652.869 69.1225 646.245 57.4644 637.947C45.809 629.651 38.9177 619.704 37.2164 608.102C35.515 596.499 39.0708 583.701 47.4897 569.926C55.9105 556.148 69.1758 541.429 86.8229 526.024C122.116 495.214 174.847 461.736 241.112 427.615C373.634 359.378 560.183 288.623 769.346 231.535Z" stroke="url(#paint14_linear_442_705)"/>
<path d="M774.83 230.063C984.25 174.958 1176.01 144.314 1316.75 139.309C1387.12 136.806 1444.71 140.715 1485.37 151.168C1505.69 156.395 1521.76 163.251 1533.08 171.74C1544.39 180.227 1550.92 190.322 1552.25 202.027C1553.58 213.731 1549.65 226.58 1540.86 240.355C1532.07 254.134 1518.44 268.804 1500.44 284.116C1464.44 314.738 1411.05 347.849 1344.21 381.453C1210.52 448.656 1023.12 517.78 813.702 572.884C604.282 627.988 412.521 658.633 271.782 663.638C201.409 666.14 143.82 662.231 103.165 651.778C82.8375 646.552 66.7687 639.695 55.4543 631.207C44.1426 622.72 37.6111 612.624 36.2839 600.92C34.9568 589.215 38.8867 576.367 47.6741 562.592C56.4635 548.813 70.0914 534.143 88.0906 518.831C124.088 488.209 177.479 455.098 244.326 421.494C378.011 354.291 565.41 285.167 774.83 230.063Z" stroke="url(#paint15_linear_442_705)"/>
<path d="M780.319 228.642C989.934 175.539 1181.25 146.865 1321.12 143.429C1391.06 141.71 1448.11 146.303 1488.14 157.292C1508.16 162.786 1523.9 169.873 1534.86 178.55C1545.83 187.225 1552 197.466 1552.95 209.27C1553.9 221.073 1549.6 233.967 1540.45 247.739C1531.29 261.513 1517.3 276.131 1498.96 291.344C1462.27 321.77 1408.23 354.504 1340.83 387.58C1206.02 453.73 1017.83 521.201 808.213 574.304C598.598 627.407 407.278 656.081 267.409 659.518C197.47 661.236 140.423 656.644 100.391 645.655C80.3739 640.16 64.6361 633.073 53.6689 624.396C42.7044 615.721 36.5345 605.48 35.582 593.677C34.6295 581.874 38.9325 568.979 48.0858 555.208C57.2412 541.433 71.2276 526.815 89.5732 511.602C126.263 481.177 180.299 448.443 247.707 415.366C382.515 349.217 570.705 281.746 780.319 228.642Z" stroke="url(#paint16_linear_442_705)"/>
<path d="M785.813 227.275C995.558 176.189 1186.38 149.494 1325.34 147.627C1394.82 146.693 1451.31 151.968 1490.7 163.489C1510.4 169.25 1525.81 176.566 1536.42 185.428C1547.04 194.289 1552.84 204.672 1553.42 216.571C1554 228.47 1549.32 241.406 1539.81 255.17C1530.29 268.937 1515.95 283.497 1497.26 298.607C1459.89 328.827 1405.23 361.173 1337.28 393.713C1201.39 458.788 1012.46 524.586 802.718 575.672C592.974 626.758 402.153 653.452 263.196 655.32C193.713 656.253 137.225 650.979 97.8273 639.458C78.1282 633.697 62.7261 626.381 52.1095 617.518C41.4954 608.658 35.689 598.274 35.1116 586.375C34.5343 574.477 39.2092 561.54 48.7255 547.777C58.2441 534.01 72.5847 519.45 91.2711 504.34C128.643 474.12 183.306 441.773 251.255 409.234C387.145 344.158 576.069 278.36 785.813 227.275Z" stroke="url(#paint17_linear_442_705)"/>
<path d="M791.31 225.959C1001.12 176.906 1191.38 152.199 1329.39 151.902C1398.39 151.753 1454.3 157.708 1493.06 169.758C1512.43 175.784 1527.49 183.326 1537.76 192.372C1548.02 201.415 1553.46 211.938 1553.66 223.929C1553.86 235.92 1548.82 248.895 1538.94 262.646C1529.06 276.4 1514.37 290.899 1495.35 305.901C1457.31 335.906 1402.03 367.855 1333.56 399.848C1196.63 463.829 1007.03 527.934 797.222 576.987C587.411 626.04 397.147 650.747 259.144 651.044C190.139 651.193 134.227 645.238 95.4763 633.188C76.1005 627.162 61.0389 619.62 50.776 610.575C40.5157 601.531 35.0745 591.008 34.8725 579.017C34.6706 567.027 39.7162 554.052 49.5926 540.3C59.4716 526.546 74.162 512.048 93.1836 497.045C131.226 467.04 186.5 435.091 254.969 403.098C391.899 339.117 581.5 275.012 791.31 225.959Z" stroke="url(#paint18_linear_442_705)"/>
<path d="M796.808 224.697C1006.62 177.692 1196.27 154.98 1333.28 156.253C1401.78 156.889 1457.1 163.522 1495.19 176.098C1514.24 182.386 1528.96 190.153 1538.86 199.378C1548.77 208.601 1553.84 219.261 1553.67 231.341C1553.49 243.42 1548.08 256.43 1537.84 270.165C1527.61 283.903 1512.57 298.335 1493.22 313.225C1454.52 343.006 1398.65 374.548 1329.68 405.984C1191.76 468.852 1001.54 531.244 791.724 578.249C581.911 625.255 392.263 647.966 255.256 646.694C186.749 646.057 131.43 639.424 93.338 626.848C74.2917 620.56 59.5751 612.793 49.6691 603.568C39.7656 594.345 34.6912 583.685 34.8649 571.606C35.0386 559.526 40.4535 546.516 50.6871 532.782C60.9234 519.044 75.9592 504.611 95.3101 489.721C134.011 459.941 189.879 428.398 258.847 396.962C396.776 334.095 586.996 271.702 796.808 224.697Z" stroke="url(#paint19_linear_442_705)"/>
<path d="M802.306 223.489C1012.06 178.546 1201.03 157.836 1337 160.678C1404.99 162.099 1459.7 169.409 1497.12 182.506C1515.83 189.055 1530.2 197.044 1539.74 206.447C1549.29 215.847 1553.99 226.64 1553.44 238.805C1552.89 250.97 1547.11 264.01 1536.52 277.724C1525.93 291.442 1510.56 305.803 1490.88 320.577C1451.53 350.124 1395.09 381.25 1325.64 412.119C1186.76 473.855 995.977 534.515 786.226 579.458C576.476 624.401 387.5 645.111 251.531 642.269C183.543 640.848 128.835 633.538 91.4131 620.441C72.7019 613.892 58.3349 605.903 48.7887 596.5C39.2451 587.1 34.539 576.307 35.0885 564.142C35.638 551.978 41.4207 538.937 52.0084 525.223C62.5989 511.505 77.9755 497.144 97.6498 482.37C136.998 452.823 193.442 421.697 262.889 390.828C401.775 329.093 592.555 268.432 802.306 223.489Z" stroke="url(#paint20_linear_442_705)"/>
<path d="M807.801 222.334C1017.43 179.466 1205.67 160.765 1340.56 165.176C1408.01 167.381 1462.09 175.365 1498.83 188.98C1517.2 195.788 1531.21 203.995 1540.4 213.573C1549.58 223.148 1553.91 234.071 1552.99 246.318C1552.06 258.564 1545.91 271.632 1534.97 285.321C1524.03 299.014 1508.32 313.3 1488.33 327.953C1448.35 357.257 1391.34 387.957 1321.44 418.251C1181.64 478.834 990.355 537.745 780.731 580.612C571.106 623.48 382.861 642.181 247.972 637.77C180.524 635.565 126.442 627.581 89.7022 613.966C71.3319 607.158 57.3188 598.95 48.1354 589.373C38.9545 579.798 34.6182 568.875 35.5435 556.628C36.4688 544.382 42.6177 531.314 53.5563 517.625C64.4979 503.932 80.2105 489.646 100.202 474.993C140.185 445.688 197.189 414.988 267.093 384.695C406.893 324.111 598.176 265.201 807.801 222.334Z" stroke="url(#paint21_linear_442_705)"/>
<path d="M813.292 221.233C1022.73 180.455 1210.18 163.768 1343.95 169.746C1410.84 172.735 1464.28 181.391 1500.33 195.519C1518.35 202.583 1532 211.008 1540.82 220.757C1549.64 230.503 1553.6 241.554 1552.3 253.878C1551 266.203 1544.49 279.294 1533.2 292.954C1521.91 306.618 1505.87 320.825 1485.56 335.352C1444.96 364.405 1387.41 394.67 1317.07 424.379C1176.4 483.792 984.675 540.935 775.24 581.713C565.805 622.492 378.348 639.179 244.579 633.201C177.691 630.211 124.254 621.556 88.2062 607.427C70.1824 600.363 56.5275 591.939 47.7096 582.189C38.8942 572.443 34.9292 561.393 36.2302 549.068C37.5312 536.744 44.0446 523.653 55.3308 509.993C66.6201 496.329 82.6641 482.121 102.967 467.595C143.573 438.541 201.119 408.276 271.459 378.568C412.13 319.154 603.857 262.012 813.292 221.233Z" stroke="url(#paint22_linear_442_705)"/>
<path d="M818.778 220.188C1027.96 181.51 1214.57 166.842 1347.18 174.386C1413.49 178.158 1466.26 187.482 1501.61 202.12C1536.99 216.773 1554.74 236.68 1551.38 261.484C1548.03 286.287 1523.85 313.948 1482.59 342.771C1441.37 371.565 1383.3 401.385 1312.55 430.499C1171.05 488.725 978.936 544.082 769.754 582.759C560.573 621.436 373.961 636.104 241.354 628.56C175.047 624.788 122.269 615.464 86.9252 600.826C51.5445 586.173 33.7941 566.266 37.1478 541.462C40.5015 516.659 64.6838 488.998 105.943 460.175C147.159 431.382 205.23 401.562 275.984 372.447C417.484 314.222 609.597 258.865 818.778 220.188Z" stroke="url(#paint23_linear_442_705)"/>
<path d="M824.257 219.197C1033.12 182.633 1218.83 169.988 1350.24 179.095C1415.94 183.649 1468.04 193.639 1502.67 208.782C1537.34 223.939 1554.34 244.188 1550.24 269.132C1546.13 294.076 1521.26 321.656 1479.4 350.209C1437.59 378.733 1379.01 408.1 1307.87 436.611C1165.58 493.631 973.139 547.185 764.275 583.749C555.411 620.314 369.701 632.958 238.296 623.851C172.59 619.298 120.488 609.307 85.8587 594.165C51.195 579.007 34.1912 558.759 38.2955 533.814C42.3997 508.87 67.2729 481.29 109.128 452.737C150.942 424.213 209.52 394.847 280.667 366.335C422.952 309.316 615.392 255.761 824.257 219.197Z" stroke="url(#paint24_linear_442_705)"/>
<path d="M829.727 218.261C1038.21 183.822 1222.96 173.204 1353.12 183.872C1418.21 189.206 1469.62 199.859 1503.52 215.502C1537.46 231.159 1553.71 251.742 1548.86 276.82C1544 301.898 1518.45 329.389 1476.01 357.662C1433.61 385.909 1374.54 414.813 1303.03 442.713C1160 498.509 967.289 550.245 758.805 584.685C550.322 619.125 365.571 629.742 235.408 619.075C170.323 613.741 118.912 603.087 85.0084 587.445C51.0723 571.788 34.8203 551.204 39.6742 526.126C44.528 501.048 70.0848 473.558 112.524 445.284C154.922 417.037 213.989 388.133 285.507 360.234C428.534 304.437 621.243 252.701 829.727 218.261Z" stroke="url(#paint25_linear_442_705)"/>
<path d="M835.186 217.382C1043.23 185.077 1226.96 176.49 1355.84 188.714C1420.29 194.827 1470.99 206.141 1504.16 222.278C1537.36 238.43 1552.85 259.343 1547.25 284.547C1541.65 309.751 1515.41 337.144 1472.41 365.13C1429.43 393.09 1369.9 421.522 1298.03 448.802C1154.3 503.358 961.385 553.26 753.346 585.565C545.307 617.87 361.571 626.457 232.689 614.233C168.245 608.12 117.542 596.806 84.3736 580.669C51.1752 564.517 35.6799 543.604 41.2823 518.4C46.8847 493.196 73.1175 465.803 116.127 437.817C159.097 409.857 218.635 381.425 290.502 354.145C434.228 299.589 627.147 249.687 835.186 217.382Z" stroke="url(#paint26_linear_442_705)"/>
<path d="M840.633 216.558C1048.16 186.397 1230.83 179.843 1358.39 193.621C1422.17 200.511 1472.15 212.481 1504.58 229.108C1537.03 245.75 1551.76 266.986 1545.41 292.309C1539.06 317.631 1512.16 344.918 1468.59 372.607C1425.06 400.273 1365.07 428.225 1292.88 454.876C1148.5 508.176 955.43 556.228 747.898 586.388C540.367 616.549 357.702 623.103 230.142 609.325C166.358 602.435 116.378 590.465 83.955 573.838C51.5046 557.196 36.7706 535.96 43.1203 510.637C49.4699 485.315 76.3708 458.028 119.937 430.339C163.467 402.673 223.457 374.721 295.651 348.07C440.031 294.77 633.102 246.718 840.633 216.558Z" stroke="url(#paint27_linear_442_705)"/>
<path d="M846.067 215.79C1053.03 187.783 1234.57 183.265 1360.77 198.592C1423.87 206.256 1473.11 218.879 1504.78 235.991C1536.47 253.118 1550.44 274.67 1543.34 300.104C1536.25 325.538 1508.69 352.71 1464.58 380.094C1420.5 407.457 1360.08 434.921 1287.58 460.935C1142.59 512.961 949.425 559.149 742.465 587.156C535.505 615.163 353.967 619.682 227.766 604.354C164.662 596.69 115.42 584.067 83.7527 566.955C52.06 549.828 38.0919 528.276 45.1873 502.842C52.2827 477.409 79.8437 450.236 123.954 422.852C168.029 395.489 228.454 368.026 300.953 342.011C445.944 289.985 639.107 243.797 846.067 215.79Z" stroke="url(#paint28_linear_442_705)"/>
<path d="M851.485 215.079C1057.81 189.235 1238.17 186.753 1362.97 203.624C1425.37 212.06 1473.86 225.332 1504.77 242.925C1535.69 260.531 1548.89 282.393 1541.05 307.93C1533.21 333.467 1505 360.517 1460.36 387.588C1415.75 414.639 1354.91 441.606 1282.13 466.976C1136.57 517.713 943.373 562.023 737.047 587.868C530.721 613.712 350.365 616.194 225.562 599.323C163.158 590.887 114.669 577.615 83.7664 560.022C52.8409 542.416 39.643 520.554 47.4824 495.017C55.3217 469.48 83.5345 442.43 128.175 415.359C172.782 388.308 233.623 361.341 306.406 335.971C451.963 285.234 645.159 240.924 851.485 215.079Z" stroke="url(#paint29_linear_442_705)"/>
<path d="M856.886 214.424C1062.51 190.75 1241.63 190.305 1365 208.716C1426.69 217.922 1474.41 231.839 1504.54 249.906C1534.68 267.986 1547.11 290.152 1538.53 315.785C1529.95 341.417 1501.09 368.336 1455.93 395.086C1410.81 421.817 1349.57 448.279 1276.52 472.997C1130.45 522.429 937.275 564.847 731.646 588.522C526.017 612.197 346.898 612.641 223.532 594.23C161.846 585.024 114.125 571.108 83.9966 553.041C53.8476 534.961 41.424 512.795 50.0053 487.162C58.5866 461.529 87.4428 434.61 132.6 407.86C177.725 381.129 238.964 354.668 312.007 329.95C458.086 280.517 651.257 238.099 856.886 214.424Z" stroke="url(#paint30_linear_442_705)"/>
<path d="M862.268 213.827C1067.14 192.329 1244.96 193.922 1366.86 213.867C1427.81 223.84 1474.75 238.397 1504.09 256.933C1533.45 275.481 1545.1 297.944 1535.78 323.665C1526.46 349.386 1496.97 376.165 1451.31 402.586C1405.68 428.989 1344.06 454.938 1270.78 478.996C1124.22 527.109 931.134 567.622 726.264 589.12C521.395 610.617 343.567 609.024 221.675 589.08C160.725 579.107 113.787 564.549 84.4426 546.013C55.0792 527.465 43.4337 505.002 52.7547 479.281C62.0758 453.56 91.5667 426.781 137.226 400.36C182.857 373.957 244.474 348.009 317.756 323.951C464.312 275.837 657.399 235.324 862.268 213.827Z" stroke="url(#paint31_linear_442_705)"/>
<path d="M867.63 213.286C1071.68 193.973 1248.16 197.602 1368.54 219.075C1428.73 229.811 1474.88 245.005 1503.43 264.004C1532 283.015 1542.86 305.769 1532.8 331.569C1522.74 357.37 1492.63 384.003 1446.48 410.086C1400.36 436.153 1338.38 461.58 1264.88 484.971C1117.89 531.75 924.949 570.347 720.902 589.66C516.855 608.974 340.373 605.344 219.992 583.872C159.798 573.135 113.656 557.942 85.1046 538.942C56.5357 519.931 45.6719 497.178 55.7302 471.377C65.7886 445.576 95.9052 418.944 142.054 392.861C188.175 366.793 250.152 341.366 323.651 317.975C470.639 271.196 663.582 232.6 867.63 213.286Z" stroke="url(#paint32_linear_442_705)"/>
<path d="M872.969 212.803C1076.13 195.679 1251.21 201.345 1370.05 224.338C1429.47 235.835 1474.8 251.66 1502.55 271.117C1530.32 290.585 1540.39 313.622 1529.6 339.495C1518.81 365.368 1488.07 391.845 1441.45 417.582C1394.85 443.306 1332.54 468.204 1258.84 490.921C1111.47 536.352 918.725 573.019 715.562 590.143C512.399 607.267 337.318 601.602 218.484 578.608C159.064 567.111 113.733 551.286 85.9824 531.829C58.2165 512.361 48.1379 489.324 58.9308 463.451C69.7237 437.578 100.457 411.102 147.08 385.364C193.678 359.64 255.997 334.742 329.689 312.025C477.066 266.594 669.806 229.927 872.969 212.803Z" stroke="url(#paint33_linear_442_705)"/>
<path d="M878.286 212.377C1080.5 197.448 1254.13 205.148 1371.38 229.655C1430.01 241.909 1474.52 258.361 1501.46 278.269C1528.41 298.188 1537.7 321.501 1526.18 347.439C1514.65 373.376 1483.31 399.69 1436.23 425.074C1389.17 450.446 1326.53 474.808 1252.66 496.843C1104.94 540.912 912.463 575.64 710.246 590.569C508.03 605.497 334.401 597.798 217.151 573.291C158.523 561.037 114.017 544.585 87.0757 524.677C60.1211 504.758 50.8309 481.444 62.3555 455.507C73.8801 429.569 105.221 403.256 152.305 377.872C199.365 352.5 262.005 328.138 335.869 306.102C483.589 262.034 676.069 227.306 878.286 212.377Z" stroke="url(#paint34_linear_442_705)"/>
<path d="M883.576 212.01C1084.79 199.28 1256.91 209.011 1372.54 235.025C1430.36 248.032 1474.02 265.105 1500.15 285.46C1526.28 305.823 1534.78 329.406 1522.53 355.4C1510.28 381.394 1478.34 407.535 1430.81 432.559C1383.3 457.572 1320.35 481.39 1246.34 502.737C1098.33 545.43 906.164 578.208 704.955 590.937C503.746 603.667 331.624 593.936 215.993 567.922C158.176 554.914 114.507 537.841 88.384 517.487C62.2489 497.124 53.75 473.54 66.0031 447.547C78.2562 421.553 110.195 395.411 157.725 370.387C205.233 345.375 268.177 321.557 342.189 300.209C490.207 257.516 682.367 224.739 883.576 212.01Z" stroke="url(#paint35_linear_442_705)"/>
<path d="M888.84 211.699C1088.98 201.173 1259.54 212.933 1373.52 240.445C1430.51 254.202 1473.33 271.891 1498.62 292.685C1523.93 313.487 1531.64 337.333 1518.66 363.375C1505.68 389.417 1473.15 415.379 1425.19 440.035C1377.25 464.68 1314.02 487.947 1239.88 508.6C1091.61 549.905 899.831 580.722 699.691 591.248C499.552 601.774 328.987 590.014 215.012 562.502C158.022 548.745 115.205 531.056 89.9072 510.262C64.5993 489.46 56.8945 465.614 69.8727 439.572C82.8509 413.53 115.377 387.568 163.339 362.912C211.281 338.267 274.509 315 348.648 294.347C496.918 253.042 688.7 222.225 888.84 211.699Z" stroke="url(#paint36_linear_442_705)"/>
<path d="M894.076 211.447C1093.09 203.127 1262.04 216.912 1374.33 245.914C1430.47 260.416 1472.42 278.716 1496.89 299.943C1521.36 321.177 1528.27 345.278 1514.57 371.361C1500.87 397.443 1467.76 423.218 1419.39 447.498C1371.02 471.768 1307.53 494.477 1233.29 514.43C1084.81 554.333 893.466 583.18 694.456 591.5C495.447 599.819 326.492 586.035 214.207 557.032C158.061 542.531 116.109 524.23 91.645 503.004C67.1719 481.769 60.2638 457.668 73.9634 431.585C87.6629 405.503 120.768 379.729 169.147 355.449C217.508 331.178 281 308.469 355.242 288.517C503.72 248.613 695.066 219.766 894.076 211.447Z" stroke="url(#paint37_linear_442_705)"/>
<path d="M899.281 211.252C1097.1 205.141 1264.39 220.947 1374.95 251.43C1430.24 266.673 1471.31 285.579 1494.94 307.232C1518.57 328.892 1524.68 353.241 1510.26 379.356C1495.84 405.471 1462.17 431.05 1413.39 454.947C1364.62 478.836 1300.88 500.979 1226.56 520.225C1077.92 558.715 887.07 585.584 689.251 591.694C491.432 597.805 324.14 581.999 213.578 551.516C158.295 536.273 117.219 517.368 93.5961 495.715C69.9651 474.055 63.856 449.705 78.2731 423.59C92.6902 397.475 126.363 371.897 175.145 348C223.91 324.111 287.647 301.967 361.971 282.721C510.611 244.231 701.462 217.362 899.281 211.252Z" stroke="url(#paint38_linear_442_705)"/>
<path d="M904.455 211.116C1101.02 207.216 1266.6 225.037 1375.41 256.993C1429.81 272.971 1470 292.476 1492.77 314.549C1515.55 336.629 1520.86 361.219 1505.73 387.358C1490.6 413.498 1456.37 438.873 1407.2 462.379C1358.05 485.879 1294.08 507.451 1219.7 525.984C1070.94 563.049 880.646 587.931 684.078 591.831C487.51 595.731 321.931 577.909 213.126 545.954C158.722 529.975 118.536 510.47 95.761 488.397C72.9792 466.318 67.671 441.727 82.8016 415.588C97.9321 389.449 132.163 364.074 181.332 340.567C230.487 317.067 294.45 295.496 368.832 276.962C517.588 239.897 707.887 215.015 904.455 211.116Z" stroke="url(#paint39_linear_442_705)"/>
<path d="M909.594 211.037C1104.85 209.349 1268.67 229.181 1375.68 262.599C1429.19 279.308 1468.47 299.407 1490.39 321.893C1512.32 344.385 1516.83 369.209 1500.99 395.365C1485.15 421.52 1450.37 446.684 1400.83 469.793C1351.3 492.897 1287.13 513.89 1212.71 531.705C1063.88 567.334 874.194 590.222 678.938 591.909C483.681 593.597 319.864 573.765 212.851 540.348C159.342 523.638 120.058 503.539 98.1378 481.053C76.212 458.561 71.7066 433.737 87.5462 407.582C103.386 381.427 138.164 356.263 187.706 333.153C237.236 310.05 301.405 289.056 375.822 271.241C524.65 235.612 714.338 212.725 909.594 211.037Z" stroke="url(#paint40_linear_442_705)"/>
<path d="M914.699 211.016C1108.59 211.541 1270.59 233.378 1375.78 268.247C1428.38 285.682 1466.75 306.369 1487.8 329.261C1508.87 352.158 1512.57 377.209 1496.03 403.372C1479.48 429.536 1444.17 454.481 1394.27 477.186C1344.38 499.886 1280.02 520.295 1205.59 537.386C1056.74 571.568 867.718 592.454 673.832 591.929C479.946 591.405 317.943 569.568 212.752 534.699C160.155 517.263 121.785 496.577 100.727 473.685C79.6632 450.787 75.9622 425.737 92.5064 399.573C109.051 373.41 144.366 348.465 194.266 325.76C244.154 303.06 308.51 282.651 382.94 265.56C531.795 231.378 720.813 210.492 914.699 211.016Z" stroke="url(#paint41_linear_442_705)"/>
<path d="M919.769 211.054C1112.23 213.791 1272.37 237.625 1375.7 273.936C1427.37 292.092 1464.81 313.36 1485.01 336.651C1505.2 359.947 1508.1 385.217 1490.85 411.38C1473.61 437.543 1437.77 462.261 1387.52 484.556C1337.29 506.846 1272.77 526.663 1198.35 543.026C1049.51 575.75 861.221 594.629 668.764 591.892C476.307 589.155 316.167 565.32 212.832 529.01C161.162 510.854 123.718 489.586 103.527 466.295C83.3324 442.999 80.4372 417.729 97.681 391.566C114.925 365.403 150.766 340.685 201.009 318.39C251.241 296.1 315.764 276.283 390.185 259.92C539.02 227.196 727.312 208.317 919.769 211.054Z" stroke="url(#paint42_linear_442_705)"/>
<path d="M924.799 211.15C1115.77 216.099 1274 241.923 1375.44 279.664C1426.17 298.535 1462.68 320.377 1481.99 344.061C1501.31 367.749 1503.4 393.229 1485.46 419.384C1467.53 445.539 1431.17 470.023 1380.6 491.9C1330.04 513.773 1265.37 532.993 1190.98 548.622C1042.21 579.879 854.701 596.744 663.733 591.796C472.764 586.847 314.535 561.023 213.087 523.282C162.36 504.411 125.853 482.568 106.536 458.885C87.2166 435.197 85.1282 409.717 103.067 383.562C121.005 357.407 157.362 332.923 207.931 311.046C258.493 289.173 323.163 269.953 397.552 254.324C546.322 223.067 733.83 206.201 924.799 211.15Z" stroke="url(#paint43_linear_442_705)"/>
<path d="M929.79 211.304C1119.21 218.462 1275.48 246.269 1375.01 285.429C1424.78 305.009 1460.34 327.419 1478.78 351.488C1497.22 375.56 1498.5 401.244 1479.87 427.383C1461.24 453.521 1424.38 477.764 1373.5 499.216C1322.62 520.665 1257.82 539.283 1183.49 554.173C1034.83 583.953 848.164 598.8 658.742 591.642C469.32 584.483 313.05 556.676 213.52 517.517C163.752 497.936 128.193 475.526 109.756 451.457C91.3172 427.385 90.0365 401.702 108.664 375.563C127.292 349.424 164.153 325.182 215.035 303.73C265.91 282.28 330.708 263.663 405.041 248.772C553.701 218.992 740.368 204.145 929.79 211.304Z" stroke="url(#paint44_linear_442_705)"/>
<path d="M934.74 211.516C1122.56 220.882 1276.82 250.664 1374.4 291.23C1423.2 311.513 1457.8 334.485 1475.35 358.931C1492.9 383.38 1493.37 409.26 1474.06 435.374C1454.75 461.488 1417.4 485.481 1366.22 506.503C1315.04 527.522 1250.14 545.531 1175.88 559.679C1027.38 587.972 841.61 600.797 653.792 591.43C465.974 582.064 311.712 552.283 214.129 511.717C165.336 491.433 130.735 468.462 113.184 444.015C95.6308 419.566 95.1584 393.687 114.47 367.573C133.782 341.458 171.135 317.465 222.314 296.444C273.487 275.425 338.393 257.415 412.648 243.268C561.153 214.974 746.922 202.15 934.74 211.516Z" stroke="url(#paint45_linear_442_705)"/>
<path d="M939.647 211.786C1125.8 223.357 1278.01 255.103 1373.62 297.064C1421.42 318.044 1455.05 341.57 1471.71 366.387C1488.37 391.205 1488.04 417.273 1468.05 443.354C1448.06 469.436 1410.22 493.172 1358.76 513.757C1307.31 534.34 1242.31 551.735 1168.16 565.135C1019.86 591.934 835.041 602.732 648.884 591.16C462.728 579.589 310.52 547.843 214.915 505.883C167.11 484.902 133.479 461.377 116.819 436.56C100.157 411.741 100.493 385.674 120.483 359.592C140.473 333.511 178.307 309.774 229.767 289.19C281.223 268.607 346.217 251.212 420.372 237.812C568.676 211.013 753.491 200.215 939.647 211.786Z" stroke="url(#paint46_linear_442_705)"/>
<path d="M944.511 212.114C1128.95 225.887 1279.06 259.588 1372.65 302.929C1419.46 324.601 1452.11 348.673 1467.87 373.853C1483.64 399.034 1482.49 425.281 1461.83 451.322C1441.17 477.363 1402.86 500.835 1351.14 520.977C1299.42 541.117 1234.35 557.892 1160.32 570.541C1012.26 595.838 828.459 604.605 644.021 590.833C459.583 577.06 309.475 543.359 215.877 500.017C169.076 478.346 136.424 454.274 120.66 429.094C104.895 403.913 106.04 377.666 126.702 351.625C147.364 325.584 185.668 302.111 237.394 281.97C289.116 261.83 354.179 245.054 428.21 232.406C576.269 207.109 760.073 198.342 944.511 212.114Z" stroke="url(#paint47_linear_442_705)"/>
<path d="M949.329 212.499C1131.99 228.469 1279.95 264.115 1371.52 308.825C1417.3 331.18 1448.96 355.792 1463.83 381.327C1478.69 406.862 1476.74 433.281 1455.41 459.274C1434.08 485.266 1395.32 508.467 1343.34 528.159C1291.37 547.85 1226.26 564.002 1152.37 575.895C1004.6 599.681 821.868 606.416 639.204 590.447C456.54 574.477 308.578 538.831 217.015 494.121C171.232 471.766 139.57 447.154 124.706 421.619C109.842 396.084 111.795 369.665 133.123 343.672C154.451 317.68 193.214 294.479 245.189 274.787C297.163 255.096 362.274 238.944 436.16 227.051C583.928 203.265 766.665 196.53 949.329 212.499Z" stroke="url(#paint48_linear_442_705)"/>
<path d="M954.099 212.944C1134.93 231.105 1280.7 268.685 1370.2 314.749C1414.95 337.782 1445.62 362.926 1459.58 388.808C1473.54 414.69 1470.77 441.273 1448.79 467.209C1426.8 493.144 1387.59 516.067 1335.38 535.304C1283.17 554.54 1218.03 570.062 1144.31 581.197C996.882 603.465 815.267 608.165 634.433 590.004C453.599 571.842 307.83 534.262 218.33 488.198C173.578 465.165 142.915 440.021 128.956 414.14C114.997 388.258 117.759 361.674 139.747 335.739C161.735 309.803 200.943 286.88 253.153 267.644C305.362 248.407 370.502 232.885 444.22 221.751C591.651 199.482 773.265 194.782 954.099 212.944Z" stroke="url(#paint49_linear_442_705)"/>
<path d="M958.821 213.444C1137.77 233.793 1281.3 273.295 1368.71 320.7C1412.42 344.403 1442.07 370.071 1455.12 396.292C1468.17 422.513 1464.6 449.252 1441.96 475.123C1419.32 500.993 1379.68 523.631 1327.25 542.407C1274.82 561.182 1209.67 576.07 1136.15 586.443C989.096 607.187 808.66 609.851 629.711 589.503C450.762 569.155 307.228 529.652 219.819 482.247C176.113 458.545 146.458 432.876 133.408 406.655C120.359 380.434 123.929 353.695 146.569 327.824C169.21 301.954 208.853 279.316 261.281 260.541C313.71 241.765 378.858 226.877 452.385 216.504C599.436 195.76 779.872 193.096 958.821 213.444Z" stroke="url(#paint50_linear_442_705)"/>
<path d="M963.493 214.002C1140.5 236.531 1281.76 277.944 1367.05 326.674C1409.7 351.04 1438.33 377.225 1450.47 403.778C1462.61 430.33 1458.23 457.217 1434.94 483.014C1411.66 508.812 1371.59 531.157 1318.96 549.466C1266.33 567.775 1201.19 582.025 1127.88 591.632C981.252 610.846 802.048 611.473 625.039 588.944C448.03 566.416 306.775 525.003 221.483 476.272C178.835 451.907 150.198 425.722 138.061 399.169C125.926 372.617 130.302 345.73 153.589 319.932C176.876 294.135 216.941 271.79 269.572 253.481C322.204 235.172 387.341 220.922 460.655 211.315C607.28 192.101 786.484 191.474 963.493 214.002Z" stroke="url(#paint51_linear_442_705)"/>
<path d="M968.113 214.618C1143.13 239.32 1282.06 282.631 1365.21 332.672C1406.79 357.693 1434.4 384.387 1445.62 411.263C1456.84 438.137 1451.65 465.165 1427.73 490.881C1403.8 516.598 1363.33 538.644 1310.51 556.48C1257.69 574.318 1192.58 587.925 1119.5 596.763C973.35 614.44 795.434 613.031 620.419 588.329C445.403 563.627 306.471 520.316 223.321 470.275C181.746 445.253 154.134 418.56 142.915 391.684C131.696 364.809 136.878 337.782 160.805 312.066C184.731 286.349 225.205 264.303 278.023 246.466C330.842 228.629 395.949 215.022 469.028 206.183C615.182 188.506 793.098 189.916 968.113 214.618Z" stroke="url(#paint52_linear_442_705)"/>
<path d="M972.681 215.291C1145.65 242.159 1282.22 287.354 1363.2 338.691C1403.69 364.36 1430.27 391.554 1440.57 418.745C1450.86 445.934 1444.88 473.093 1420.32 498.721C1395.76 524.348 1354.89 546.088 1301.9 563.447C1248.91 580.807 1183.85 593.767 1111.03 601.835C965.394 617.97 788.819 614.524 615.851 587.656C442.882 560.788 306.315 515.593 225.334 464.256C184.842 438.587 158.265 411.393 147.966 384.202C137.668 357.012 143.654 329.854 168.213 304.226C192.771 278.599 233.643 256.859 286.631 239.5C339.622 222.14 404.678 209.18 477.499 201.112C623.138 184.977 799.712 188.423 972.681 215.291Z" stroke="url(#paint53_linear_442_705)"/>
<path d="M977.194 216.02C1148.06 245.046 1282.22 292.112 1361.01 344.729C1400.41 371.038 1425.94 398.724 1435.32 426.221C1444.69 453.718 1437.9 481 1412.72 506.53C1387.54 532.061 1346.28 553.488 1293.14 570.364C1239.99 587.242 1175.01 599.551 1102.46 606.845C957.385 621.434 782.207 615.952 611.338 586.927C440.469 557.901 306.308 510.835 227.52 458.218C188.124 431.909 162.589 404.223 153.214 376.726C143.839 349.229 150.629 321.947 175.812 296.417C200.995 270.886 242.251 249.459 295.394 232.583C348.541 215.705 413.526 203.396 486.067 196.102C631.147 181.513 806.325 186.995 977.194 216.02Z" stroke="url(#paint54_linear_442_705)"/>
<path d="M981.652 216.807C1150.37 247.981 1282.08 296.903 1358.65 350.784C1396.94 377.725 1421.43 405.894 1429.87 433.691C1438.32 461.485 1430.73 488.882 1404.93 514.308C1379.13 539.734 1337.5 560.841 1284.22 577.23C1230.94 593.619 1166.04 605.274 1093.8 611.793C949.327 624.83 775.597 617.315 606.88 586.141C438.163 554.966 306.45 506.044 229.878 452.163C191.591 425.222 167.106 397.053 158.657 369.257C150.209 341.462 157.799 314.065 183.599 288.639C209.399 263.214 251.028 242.106 304.31 225.717C357.595 209.328 422.49 197.673 494.729 191.155C639.205 178.117 812.935 185.632 981.652 216.807Z" stroke="url(#paint55_linear_442_705)"/>
<path d="M986.053 217.649C1152.57 250.962 1281.79 301.726 1356.12 356.854C1393.29 384.419 1416.72 413.063 1424.24 441.15C1431.76 469.234 1423.37 496.738 1396.96 522.051C1370.55 547.363 1328.56 568.145 1275.16 584.041C1221.75 599.938 1156.96 610.934 1085.05 616.675C941.221 628.158 768.993 618.611 602.479 585.298C435.966 551.985 306.74 501.221 232.408 446.093C195.242 418.528 171.814 389.884 164.294 361.797C156.774 333.713 165.164 306.209 191.573 280.896C217.982 255.583 259.97 234.802 313.374 218.906C366.783 203.009 431.568 192.013 503.483 186.271C647.311 174.789 819.539 184.335 986.053 217.649Z" stroke="url(#paint56_linear_442_705)"/>
<path d="M990.395 218.547C1154.65 253.989 1281.35 306.579 1353.42 362.938C1389.46 391.117 1411.82 420.228 1418.41 448.596C1425 476.962 1415.81 504.564 1388.8 529.756C1361.79 554.948 1319.46 575.398 1265.95 590.796C1212.43 606.195 1147.78 616.53 1076.21 621.492C933.071 631.416 762.397 619.841 598.137 584.399C433.877 548.957 307.178 496.367 235.109 440.008C199.074 411.829 176.711 382.718 170.123 354.35C163.534 325.984 172.72 298.382 199.73 273.19C226.74 247.998 269.075 227.548 322.586 212.15C376.101 196.751 440.756 186.416 512.325 181.454C655.462 171.53 826.135 183.105 990.395 218.547Z" stroke="url(#paint57_linear_442_705)"/>
<path d="M994.677 219.502C1156.63 257.063 1280.77 311.461 1350.55 369.034C1420.37 426.631 1435.67 487.295 1380.46 537.424C1325.26 587.552 1209.74 617.877 1067.28 626.243C924.877 634.605 755.811 621.006 593.855 583.445C431.899 545.885 307.765 491.486 237.98 433.913C168.166 376.316 152.86 315.652 208.068 265.524C263.276 215.395 378.791 185.071 521.253 176.704C663.655 168.342 832.721 181.942 994.677 219.502Z" stroke="url(#paint58_linear_442_705)"/>
<path d="M998.899 220.512C1158.5 260.179 1280.03 316.371 1347.51 375.139C1415.02 433.931 1428.32 495.194 1371.95 545.048C1315.57 594.903 1199.95 624.122 1058.27 630.924C916.645 637.722 749.236 622.102 589.633 582.435C430.03 542.767 308.5 486.576 241.021 427.808C173.515 369.016 160.208 307.753 216.585 257.898C272.961 208.043 388.585 178.824 530.265 172.023C671.887 165.224 839.296 180.845 998.899 220.512Z" stroke="url(#paint59_linear_442_705)"/>
<path d="M1003.06 221.577C1160.26 263.339 1279.15 321.307 1344.3 381.253C1409.48 441.221 1420.78 503.065 1363.25 552.63C1305.73 602.196 1190.03 630.3 1049.18 635.535C908.374 640.768 742.674 623.131 585.474 581.37C428.273 539.608 309.383 481.64 244.23 421.694C179.053 361.726 167.75 299.883 225.277 250.317C282.804 200.751 398.503 172.647 539.357 167.412C680.157 162.18 845.857 179.816 1003.06 221.577Z" stroke="url(#paint60_linear_442_705)"/>
<path d="M1007.15 222.698C1161.9 266.541 1278.12 326.267 1340.93 387.372C1403.75 448.499 1413.05 510.904 1354.39 560.165C1295.73 609.427 1179.99 636.408 1040.01 640.074C900.069 643.739 736.129 624.093 581.378 580.249C426.627 536.406 310.413 476.68 247.607 415.575C184.778 354.448 175.482 292.043 234.143 242.782C292.804 193.521 408.541 166.54 548.526 162.873C688.462 159.208 852.403 178.854 1007.15 222.698Z" stroke="url(#paint61_linear_442_705)"/>
<path d="M1011.19 223.872C1163.44 269.784 1276.94 331.249 1337.38 393.496C1397.84 455.762 1405.13 518.71 1345.35 567.652C1285.58 616.593 1169.84 642.443 1030.76 644.54C891.733 646.637 729.602 624.986 577.348 579.075C425.094 533.163 311.592 471.697 251.15 409.451C190.689 347.185 183.403 284.237 243.18 235.295C302.957 186.353 418.697 160.504 557.771 158.407C696.8 156.31 858.931 177.961 1011.19 223.872Z" stroke="url(#paint62_linear_442_705)"/>
<path d="M1015.15 225.102C1164.86 273.067 1275.62 336.254 1333.67 399.622C1391.75 463.009 1397.02 526.48 1336.15 575.088C1275.27 623.695 1159.57 648.405 1021.44 648.932C883.366 649.46 723.093 625.811 573.383 577.846C423.672 529.88 312.917 466.693 254.858 403.325C196.783 339.938 191.51 276.467 252.384 227.86C313.258 179.252 428.967 154.543 567.088 154.015C705.167 153.487 865.439 177.136 1015.15 225.102Z" stroke="url(#paint63_linear_442_705)"/>
<path d="M1019.05 226.384C1166.17 276.39 1274.14 341.278 1329.8 405.748C1385.47 470.237 1388.73 534.213 1326.78 582.47C1264.83 630.728 1149.18 654.29 1012.06 653.248C874.971 652.207 716.607 626.568 569.485 576.563C422.363 526.557 314.388 461.669 258.731 397.198C203.058 332.71 199.8 268.734 261.753 220.477C323.707 172.219 439.348 148.656 576.473 149.698C713.561 150.74 871.926 176.379 1019.05 226.384Z" stroke="url(#paint64_linear_442_705)"/>
<path d="M1022.88 227.721C1167.36 279.75 1272.53 346.32 1325.77 411.874C1379.02 477.444 1380.26 541.904 1317.25 589.798C1254.23 637.691 1138.7 660.099 1002.61 657.488C866.553 654.877 710.144 627.256 565.656 575.226C421.168 523.197 316.005 456.627 262.766 391.073C209.514 325.503 208.271 261.042 271.285 213.149C334.299 165.256 449.837 142.848 585.925 145.459C721.98 148.07 878.388 175.691 1022.88 227.721Z" stroke="url(#paint65_linear_442_705)"/>
<path d="M1026.64 229.11C1168.45 283.148 1270.76 351.379 1321.57 417.995C1372.39 484.627 1371.61 549.553 1307.56 597.067C1243.5 644.581 1128.1 665.828 993.091 661.648C858.112 657.47 703.706 627.875 561.896 573.837C420.086 519.799 317.768 451.567 266.963 384.951C216.147 318.32 216.92 253.393 280.975 205.879C345.03 158.366 460.43 137.119 595.441 141.298C730.42 145.477 884.825 175.072 1026.64 229.11Z" stroke="url(#paint66_linear_442_705)"/>
<path d="M1030.32 230.552C1169.41 286.582 1268.85 356.454 1317.21 424.112C1365.58 491.785 1362.79 557.158 1297.71 604.277C1232.63 651.397 1117.41 671.476 983.515 665.73C849.651 659.984 697.297 628.424 558.208 572.395C419.119 516.365 319.677 446.493 271.321 378.834C222.955 311.162 225.745 245.789 290.822 198.67C355.899 151.55 471.125 131.471 605.017 137.217C738.88 142.962 891.235 174.522 1030.32 230.552Z" stroke="url(#paint67_linear_442_705)"/>
<path d="M1033.94 232.046C1170.27 290.05 1266.8 361.542 1312.69 430.222C1358.59 498.915 1353.79 564.714 1287.71 611.425C1221.63 658.137 1106.61 677.042 973.881 669.73C841.175 662.42 690.917 628.905 554.591 570.901C418.266 512.896 321.73 441.405 275.838 372.725C229.938 304.031 234.744 238.233 300.822 191.521C366.901 144.81 481.919 125.905 614.65 133.216C747.357 140.527 897.615 174.042 1033.94 232.046Z" stroke="url(#paint68_linear_442_705)"/>
<path d="M1037.48 233.592C1171 293.553 1264.61 366.642 1308.02 436.323C1351.44 506.016 1344.62 572.221 1277.56 618.509C1210.5 664.798 1095.73 682.523 964.193 673.649C832.684 664.776 684.569 629.316 551.048 569.355C417.527 509.394 323.927 436.305 280.513 366.624C237.092 296.931 243.913 230.726 310.973 184.438C378.033 138.15 492.807 120.424 624.339 129.298C755.849 138.171 903.964 173.631 1037.48 233.592Z" stroke="url(#paint69_linear_442_705)"/>
<path d="M1040.95 235.189C1171.63 297.088 1262.27 371.752 1303.19 442.413C1344.12 513.084 1335.28 579.675 1267.26 625.526C1199.24 671.377 1084.75 687.918 954.453 677.484C824.181 667.051 678.254 629.657 547.578 567.757C416.903 505.858 326.266 431.194 285.344 360.533C244.416 289.862 253.249 223.271 321.27 177.42C389.292 131.569 503.786 115.028 634.079 125.463C764.351 135.895 910.279 173.289 1040.95 235.189Z" stroke="url(#paint70_linear_442_705)"/>
<path d="M1044.35 236.837C1172.14 300.656 1259.78 376.872 1298.2 448.49C1336.63 520.119 1325.78 587.076 1256.82 632.475C1187.86 677.875 1073.68 693.225 944.664 681.234C815.669 669.245 671.974 629.928 544.184 566.109C416.394 502.29 328.748 426.074 290.33 354.455C251.906 282.827 262.749 215.87 331.711 170.47C400.673 125.071 514.853 109.721 643.867 121.712C772.863 133.701 916.558 173.018 1044.35 236.837Z" stroke="url(#paint71_linear_442_705)"/>
<path d="M1047.67 238.535C1172.53 304.254 1257.16 381.999 1293.06 454.554C1328.97 527.118 1316.12 594.42 1246.24 639.354C1176.36 684.289 1062.53 698.444 934.83 684.9C807.151 671.358 665.732 630.13 540.866 564.411C416 498.692 331.373 420.947 295.469 348.393C259.561 275.829 272.412 208.527 342.294 163.592C412.175 118.658 526.006 104.503 653.701 118.047C781.381 131.589 922.8 172.816 1047.67 238.535Z" stroke="url(#paint72_linear_442_705)"/>
<path d="M1050.91 240.283C1172.81 307.882 1254.39 387.132 1287.77 460.601C1321.15 534.077 1306.3 601.705 1235.52 646.16C1164.74 690.615 1051.29 703.571 924.954 688.478C798.629 673.387 659.528 630.262 537.625 562.663C415.721 495.064 334.138 415.814 300.76 342.345C267.379 268.869 282.233 201.241 353.013 156.786C423.793 112.331 537.239 99.3756 663.578 114.468C789.903 129.559 929.003 172.684 1050.91 240.283Z" stroke="url(#paint73_linear_442_705)"/>
<path d="M1054.07 242.08C1172.97 311.538 1251.49 392.269 1282.33 466.63C1313.18 540.997 1296.32 608.929 1224.66 652.891C1153.01 696.853 1039.98 708.605 915.037 691.969C790.105 675.334 653.367 630.324 534.462 560.866C415.558 491.408 337.043 410.677 306.201 336.317C275.357 261.949 292.211 194.017 363.867 150.055C435.523 106.093 548.551 94.3409 673.495 110.977C798.426 127.612 935.165 172.622 1054.07 242.08Z" stroke="url(#paint74_linear_442_705)"/>
<path d="M1057.15 243.926C1173.02 315.222 1248.44 397.409 1276.74 472.639C1305.04 547.874 1286.19 616.091 1213.68 659.546C1141.17 703.001 1028.6 713.546 905.084 695.371C781.584 677.197 647.248 630.316 531.379 559.02C415.51 487.724 340.087 405.537 311.791 330.308C283.492 255.072 302.341 186.856 374.852 143.401C447.362 99.9454 559.937 89.4002 683.448 107.576C806.948 125.749 941.284 172.63 1057.15 243.926Z" stroke="url(#paint75_linear_442_705)"/>
<path d="M1060.16 245.82C1172.95 318.932 1245.26 402.551 1271 478.626C1296.75 554.707 1275.91 623.186 1202.57 666.121C1129.23 709.057 1017.14 718.392 895.098 698.683C773.066 678.976 641.174 630.239 528.376 557.126C415.577 484.014 343.27 400.396 317.527 324.321C291.783 248.24 312.621 179.761 385.964 136.825C459.307 93.8898 571.394 84.5548 693.434 104.263C815.466 123.971 947.358 172.708 1060.16 245.82Z" stroke="url(#paint76_linear_442_705)"/>
<path d="M1063.08 247.762C1172.77 322.668 1241.94 407.692 1265.12 484.59C1288.31 561.493 1265.49 630.215 1191.33 672.617C1117.18 715.019 1005.61 723.141 885.081 701.905C764.555 680.671 635.147 630.092 525.454 555.186C415.76 480.28 346.59 395.256 323.409 318.358C300.226 241.455 323.047 172.733 397.2 130.331C471.354 87.9288 582.918 79.8069 703.451 101.043C823.977 122.277 953.386 172.856 1063.08 247.762Z" stroke="url(#paint77_linear_442_705)"/>
<path d="M1065.92 249.75C1172.47 326.427 1238.49 412.83 1259.1 490.528C1279.71 568.229 1254.92 637.173 1179.98 679.028C1105.03 720.884 994.027 727.791 875.037 705.034C756.054 682.279 629.168 629.874 522.613 553.197C416.058 476.52 350.045 390.117 329.433 312.419C308.819 234.718 333.616 165.774 408.557 123.918C483.497 82.0626 594.506 75.1562 713.495 97.9126C832.479 120.668 959.364 173.073 1065.92 249.75Z" stroke="url(#paint78_linear_442_705)"/>
<path d="M1068.68 251.785C1172.06 330.209 1234.9 417.966 1252.93 496.439C1270.97 574.916 1244.21 644.06 1168.5 685.356C1092.8 726.653 982.379 732.341 864.969 708.071C747.564 683.802 623.24 629.587 519.856 551.163C416.471 472.738 353.636 384.982 335.599 306.508C317.56 228.032 344.326 158.888 420.031 117.591C495.736 76.2948 606.154 70.6061 723.563 94.8762C840.968 119.145 965.292 173.361 1068.68 251.785Z" stroke="url(#paint79_linear_442_705)"/>
<path d="M1071.35 253.865C1171.53 334.012 1231.17 423.096 1246.63 502.321C1262.09 581.549 1233.36 650.872 1156.91 691.597C1080.47 732.321 970.674 736.79 854.879 711.014C739.089 685.238 617.365 629.23 517.182 549.082C416.999 468.934 357.361 379.851 341.904 300.626C326.446 221.398 355.173 152.075 431.619 111.35C508.065 70.6257 617.858 66.1565 733.653 91.9329C849.444 117.708 971.168 173.717 1071.35 253.865Z" stroke="url(#paint80_linear_442_705)"/>
<path d="M1073.94 255.99C1170.89 337.837 1227.31 428.22 1240.19 508.173C1253.06 588.128 1222.38 657.609 1145.22 697.749C1068.05 737.889 958.916 741.138 844.772 713.863C730.63 686.589 611.543 628.804 514.593 546.957C417.642 465.11 361.219 374.728 348.347 294.775C335.473 214.82 366.153 145.338 443.317 105.198C520.481 65.0583 629.616 61.8099 743.761 89.0846C857.902 116.359 976.99 174.144 1073.94 255.99Z" stroke="url(#paint81_linear_442_705)"/>
<path d="M1076.44 258.16C1170.13 341.681 1223.32 433.335 1233.61 513.991C1243.89 594.649 1211.27 664.268 1133.41 703.811C1055.55 743.354 947.109 745.381 834.649 716.616C722.192 687.852 605.777 628.308 512.089 544.787C418.4 461.267 365.209 369.612 354.925 288.956C344.64 208.298 377.263 138.679 455.121 99.1361C532.979 59.5933 641.424 57.5667 753.883 86.3314C866.341 115.096 982.755 174.64 1076.44 258.16Z" stroke="url(#paint82_linear_442_705)"/>
<path d="M1078.86 260.374C1169.26 345.543 1219.2 438.441 1226.9 519.776C1234.59 601.112 1200.03 670.847 1121.5 709.781C1042.98 748.715 935.255 749.519 824.514 719.273C713.775 689.027 600.069 627.743 509.67 542.574C419.272 457.405 369.329 364.506 361.636 283.171C353.944 201.835 388.5 132.1 467.029 93.1663C545.557 54.2326 653.277 53.4284 764.018 83.6744C874.757 113.92 988.463 175.205 1078.86 260.374Z" stroke="url(#paint83_linear_442_705)"/>
<path d="M1081.19 262.63C1168.27 349.421 1214.95 443.535 1220.05 525.524C1225.15 607.514 1188.67 677.344 1109.5 715.657C1030.32 753.969 923.36 753.551 814.371 721.833C705.384 690.115 594.419 627.108 507.339 540.317C420.258 453.526 373.578 359.412 368.479 277.423C363.381 195.432 399.86 125.603 479.035 87.2903C558.21 48.9779 665.172 49.3963 774.16 81.1143C883.147 112.832 994.112 175.839 1081.19 262.63Z" stroke="url(#paint84_linear_442_705)"/>
<path d="M1083.44 264.929C1167.17 353.317 1210.58 448.617 1213.08 531.236C1215.58 613.854 1177.19 683.758 1097.39 721.437C1017.6 759.116 911.426 757.475 804.223 724.295C697.02 691.115 588.832 626.406 505.095 538.018C421.358 449.631 377.956 354.33 375.452 271.712C372.949 189.093 411.341 119.19 491.138 81.5104C570.934 43.8311 677.106 45.472 784.309 78.6523C891.512 111.832 999.7 176.542 1083.44 264.929Z" stroke="url(#paint85_linear_442_705)"/>
<path d="M1085.59 267.269C1165.96 357.226 1206.07 453.684 1205.98 536.907C1205.89 620.129 1165.59 690.085 1085.2 727.119C1004.81 764.154 899.457 761.291 794.071 726.659C688.686 692.026 583.307 625.634 502.939 535.677C422.572 445.721 382.459 349.262 382.552 266.04C382.645 182.817 422.938 112.862 503.332 75.8275C583.726 38.7927 689.075 41.6557 794.46 76.2882C899.845 110.921 1005.22 177.313 1085.59 267.269Z" stroke="url(#paint86_linear_442_705)"/>
<path d="M1087.66 269.651C1164.63 361.149 1201.44 458.736 1198.75 542.537C1196.07 626.338 1153.88 696.324 1072.92 732.702C991.951 769.081 887.457 764.997 783.921 728.923C680.386 692.849 577.847 624.794 500.873 533.295C423.899 441.797 387.089 344.21 389.777 260.409C392.466 176.608 434.648 106.622 515.615 70.2435C596.582 33.8649 701.076 37.9489 804.611 74.0231C908.147 110.097 1010.69 178.152 1087.66 269.651Z" stroke="url(#paint87_linear_442_705)"/>
<path d="M1089.64 272.073C1163.19 365.085 1196.69 463.77 1191.41 548.125C1186.12 632.479 1142.06 702.474 1060.55 738.186C979.035 773.897 875.428 768.593 773.774 731.088C672.119 693.583 572.452 623.886 498.895 530.874C425.338 437.862 391.841 339.176 397.125 254.822C402.409 170.468 446.467 100.472 527.981 64.7611C609.496 29.0498 713.103 34.3536 814.758 71.8585C916.413 109.364 1016.08 179.061 1089.64 272.073Z" stroke="url(#paint88_linear_442_705)"/>
<path d="M1091.52 274.534C1161.64 369.032 1191.82 468.786 1183.94 553.668C1176.06 638.55 1130.14 708.533 1048.1 743.566C966.065 778.599 863.377 772.077 763.634 733.153C663.891 694.228 567.126 622.91 497.008 528.413C426.89 433.916 396.717 334.161 404.594 249.279C412.471 164.397 458.392 94.4142 540.43 59.3812C622.467 24.3483 725.155 30.8702 824.898 69.7944C924.641 108.719 1021.41 180.037 1091.52 274.534Z" stroke="url(#paint89_linear_442_705)"/>
<path d="M1093.32 277.034C1159.98 372.988 1186.82 473.781 1176.35 559.165C1165.88 644.548 1118.11 714.498 1035.58 748.842C953.042 783.185 851.304 775.447 753.504 735.116C655.702 694.784 561.869 621.867 495.211 525.913C428.553 429.958 401.713 329.165 412.181 243.781C422.649 158.398 470.419 88.4485 552.954 54.1047C635.49 19.7609 737.227 27.4989 835.028 67.8306C932.829 108.162 1026.66 181.079 1093.32 277.034Z" stroke="url(#paint90_linear_442_705)"/>
<path d="M1095.03 279.572C1221.41 474.381 1188.98 686.73 1022.98 754.013C856.979 821.295 619.891 718.184 493.506 523.375C367.121 328.566 399.551 116.217 565.552 48.9347C731.553 -18.3475 968.641 84.763 1095.03 279.572Z" stroke="url(#paint91_linear_442_705)"/>
<path d="M1096.64 282.147C1216.02 479.751 1177.21 693.213 1010.31 759.075C843.418 824.937 611.276 718.404 491.892 520.8C372.509 323.195 411.325 109.733 578.219 43.871C745.114 -21.9911 977.257 84.5424 1096.64 282.147Z" stroke="url(#paint92_linear_442_705)"/>
<path d="M1098.16 284.758C1210.51 485.098 1165.32 699.608 997.58 764.03C829.843 828.452 602.717 718.528 490.37 518.188C378.024 317.849 423.215 103.338 590.952 38.9166C758.689 -25.505 985.815 84.4187 1098.16 284.758Z" stroke="url(#paint93_linear_442_705)"/>
<path d="M1099.59 287.406C1204.87 490.42 1153.31 705.914 984.786 768.875C816.258 831.836 594.217 718.556 488.942 515.542C383.667 312.527 435.218 97.0341 603.746 34.0727C772.274 -28.8886 994.315 84.3914 1099.59 287.406Z" stroke="url(#paint94_linear_442_705)"/>
<path d="M1100.93 290.088C1199.1 495.716 1141.2 712.126 971.934 773.608C802.667 835.09 585.779 718.488 487.606 512.86C389.433 307.232 447.331 90.8218 616.598 29.3401C785.866 -32.1416 1002.75 84.4601 1100.93 290.088Z" stroke="url(#paint95_linear_442_705)"/>
<path d="M1102.17 292.803C1193.21 500.982 1128.98 718.244 959.028 778.227C789.074 838.21 577.405 718.323 486.364 510.143C395.323 301.964 459.55 84.7029 629.504 24.7197C799.458 -35.2634 1011.13 84.6239 1102.17 292.803Z" stroke="url(#paint96_linear_442_705)"/>
<path d="M1103.32 295.552C1187.2 506.22 1116.66 724.266 946.072 782.732C775.483 841.198 569.097 718.062 485.215 507.394C401.333 296.726 471.871 78.6803 642.46 20.2142C813.049 -38.2519 1019.43 84.8843 1103.32 295.552Z" stroke="url(#paint97_linear_442_705)"/>
<path d="M1104.37 298.333C1181.07 511.426 1104.24 730.19 933.07 787.121C761.898 844.052 560.858 717.705 484.161 504.613C407.464 291.52 484.29 72.7557 655.462 15.8247C826.633 -41.1064 1027.67 85.2407 1104.37 298.333Z" stroke="url(#paint98_linear_442_705)"/>
<path d="M1105.33 301.146C1174.82 516.599 1091.73 736.015 920.026 791.394C748.324 846.772 552.691 717.253 483.201 501.8C413.711 286.347 496.804 66.9308 668.505 11.5523C840.207 -43.8263 1035.84 85.693 1105.33 301.146Z" stroke="url(#paint99_linear_442_705)"/>
</g>
<defs>
<linearGradient id="paint0_linear_442_705" x1="854.361" y1="485.212" x2="775.73" y2="296.246" gradientUnits="userSpaceOnUse">
<stop stop-color="#0D446C"/>
<stop offset="1" stop-color="#8B9798"/>
</linearGradient>
<linearGradient id="paint1_linear_442_705" x1="851.311" y1="486.481" x2="774.574" y2="297.155" gradientUnits="userSpaceOnUse">
<stop stop-color="#0D446C"/>
<stop offset="1" stop-color="#8B9798"/>
</linearGradient>
<linearGradient id="paint2_linear_442_705" x1="848.242" y1="487.724" x2="773.377" y2="298.016" gradientUnits="userSpaceOnUse">
<stop stop-color="#0D446C"/>
<stop offset="1" stop-color="#8B9798"/>
</linearGradient>
<linearGradient id="paint3_linear_442_705" x1="845.158" y1="488.941" x2="772.143" y2="298.828" gradientUnits="userSpaceOnUse">
<stop stop-color="#0D446C"/>
<stop offset="1" stop-color="#8B9798"/>
</linearGradient>
<linearGradient id="paint4_linear_442_705" x1="842.058" y1="490.131" x2="770.873" y2="299.591" gradientUnits="userSpaceOnUse">
<stop stop-color="#0D446C"/>
<stop offset="1" stop-color="#8B9798"/>
</linearGradient>
<linearGradient id="paint5_linear_442_705" x1="838.944" y1="491.294" x2="769.572" y2="300.303" gradientUnits="userSpaceOnUse">
<stop stop-color="#0D446C"/>
<stop offset="1" stop-color="#8B9798"/>
</linearGradient>
<linearGradient id="paint6_linear_442_705" x1="835.816" y1="492.43" x2="768.24" y2="300.963" gradientUnits="userSpaceOnUse">
<stop stop-color="#0D446C"/>
<stop offset="1" stop-color="#8B9798"/>
</linearGradient>
<linearGradient id="paint7_linear_442_705" x1="832.675" y1="493.538" x2="766.882" y2="301.57" gradientUnits="userSpaceOnUse">
<stop stop-color="#0D446C"/>
<stop offset="1" stop-color="#8B9798"/>
</linearGradient>
<linearGradient id="paint8_linear_442_705" x1="829.523" y1="494.618" x2="765.5" y2="302.123" gradientUnits="userSpaceOnUse">
<stop stop-color="#0D446C"/>
<stop offset="1" stop-color="#8B9798"/>
</linearGradient>
<linearGradient id="paint9_linear_442_705" x1="826.36" y1="495.67" x2="764.097" y2="302.623" gradientUnits="userSpaceOnUse">
<stop stop-color="#0D446C"/>
<stop offset="1" stop-color="#8B9798"/>
</linearGradient>
<linearGradient id="paint10_linear_442_705" x1="823.187" y1="496.693" x2="762.675" y2="303.066" gradientUnits="userSpaceOnUse">
<stop stop-color="#0D446C"/>
<stop offset="1" stop-color="#8B9798"/>
</linearGradient>
<linearGradient id="paint11_linear_442_705" x1="820.005" y1="497.686" x2="761.238" y2="303.453" gradientUnits="userSpaceOnUse">
<stop stop-color="#0D446C"/>
<stop offset="1" stop-color="#8B9798"/>
</linearGradient>
<linearGradient id="paint12_linear_442_705" x1="816.816" y1="498.651" x2="759.787" y2="303.782" gradientUnits="userSpaceOnUse">
<stop stop-color="#0D446C"/>
<stop offset="1" stop-color="#8B9798"/>
</linearGradient>
<linearGradient id="paint13_linear_442_705" x1="813.619" y1="499.586" x2="758.327" y2="304.053" gradientUnits="userSpaceOnUse">
<stop stop-color="#0D446C"/>
<stop offset="1" stop-color="#8B9798"/>
</linearGradient>
<linearGradient id="paint14_linear_442_705" x1="810.417" y1="500.491" x2="756.859" y2="304.266" gradientUnits="userSpaceOnUse">
<stop stop-color="#0D446C"/>
<stop offset="1" stop-color="#8B9798"/>
</linearGradient>
<linearGradient id="paint15_linear_442_705" x1="807.21" y1="501.366" x2="755.388" y2="304.419" gradientUnits="userSpaceOnUse">
<stop stop-color="#0D446C"/>
<stop offset="1" stop-color="#8B9798"/>
</linearGradient>
<linearGradient id="paint16_linear_442_705" x1="803.999" y1="502.211" x2="753.914" y2="304.51" gradientUnits="userSpaceOnUse">
<stop stop-color="#0D446C"/>
<stop offset="1" stop-color="#8B9798"/>
</linearGradient>
<linearGradient id="paint17_linear_442_705" x1="800.785" y1="503.025" x2="752.441" y2="304.541" gradientUnits="userSpaceOnUse">
<stop stop-color="#0D446C"/>
<stop offset="1" stop-color="#8B9798"/>
</linearGradient>
<linearGradient id="paint18_linear_442_705" x1="797.569" y1="503.808" x2="750.973" y2="304.51" gradientUnits="userSpaceOnUse">
<stop stop-color="#0D446C"/>
<stop offset="1" stop-color="#8B9798"/>
</linearGradient>
<linearGradient id="paint19_linear_442_705" x1="794.352" y1="504.559" x2="749.512" y2="304.416" gradientUnits="userSpaceOnUse">
<stop stop-color="#0D446C"/>
<stop offset="1" stop-color="#8B9798"/>
</linearGradient>
<linearGradient id="paint20_linear_442_705" x1="791.134" y1="505.28" x2="748.062" y2="304.258" gradientUnits="userSpaceOnUse">
<stop stop-color="#0D446C"/>
<stop offset="1" stop-color="#8B9798"/>
</linearGradient>
<linearGradient id="paint21_linear_442_705" x1="787.918" y1="505.968" x2="746.624" y2="304.036" gradientUnits="userSpaceOnUse">
<stop stop-color="#0D446C"/>
<stop offset="1" stop-color="#8B9798"/>
</linearGradient>
<linearGradient id="paint22_linear_442_705" x1="784.704" y1="506.626" x2="745.203" y2="303.75" gradientUnits="userSpaceOnUse">
<stop stop-color="#0D446C"/>
<stop offset="1" stop-color="#8B9798"/>
</linearGradient>
<linearGradient id="paint23_linear_442_705" x1="781.493" y1="507.25" x2="743.801" y2="303.398" gradientUnits="userSpaceOnUse">
<stop stop-color="#0D446C"/>
<stop offset="1" stop-color="#8B9798"/>
</linearGradient>
<linearGradient id="paint24_linear_442_705" x1="778.285" y1="507.843" x2="742.422" y2="302.98" gradientUnits="userSpaceOnUse">
<stop stop-color="#0D446C"/>
<stop offset="1" stop-color="#8B9798"/>
</linearGradient>
<linearGradient id="paint25_linear_442_705" x1="775.083" y1="508.404" x2="741.069" y2="302.496" gradientUnits="userSpaceOnUse">
<stop stop-color="#0D446C"/>
<stop offset="1" stop-color="#8B9798"/>
</linearGradient>
<linearGradient id="paint26_linear_442_705" x1="771.886" y1="508.932" x2="739.744" y2="301.945" gradientUnits="userSpaceOnUse">
<stop stop-color="#0D446C"/>
<stop offset="1" stop-color="#8B9798"/>
</linearGradient>
<linearGradient id="paint27_linear_442_705" x1="768.696" y1="509.426" x2="738.453" y2="301.325" gradientUnits="userSpaceOnUse">
<stop stop-color="#0D446C"/>
<stop offset="1" stop-color="#8B9798"/>
</linearGradient>
<linearGradient id="paint28_linear_442_705" x1="765.514" y1="509.888" x2="737.197" y2="300.638" gradientUnits="userSpaceOnUse">
<stop stop-color="#0D446C"/>
<stop offset="1" stop-color="#8B9798"/>
</linearGradient>
<linearGradient id="paint29_linear_442_705" x1="762.341" y1="510.318" x2="735.981" y2="299.884" gradientUnits="userSpaceOnUse">
<stop stop-color="#0D446C"/>
<stop offset="1" stop-color="#8B9798"/>
</linearGradient>
<linearGradient id="paint30_linear_442_705" x1="759.177" y1="510.713" x2="734.809" y2="299.059" gradientUnits="userSpaceOnUse">
<stop stop-color="#0D446C"/>
<stop offset="1" stop-color="#8B9798"/>
</linearGradient>
<linearGradient id="paint31_linear_442_705" x1="756.024" y1="511.076" x2="733.683" y2="298.166" gradientUnits="userSpaceOnUse">
<stop stop-color="#0D446C"/>
<stop offset="1" stop-color="#8B9798"/>
</linearGradient>
<linearGradient id="paint32_linear_442_705" x1="752.883" y1="511.405" x2="732.608" y2="297.204" gradientUnits="userSpaceOnUse">
<stop stop-color="#0D446C"/>
<stop offset="1" stop-color="#8B9798"/>
</linearGradient>
<linearGradient id="paint33_linear_442_705" x1="749.754" y1="511.701" x2="731.588" y2="296.171" gradientUnits="userSpaceOnUse">
<stop stop-color="#0D446C"/>
<stop offset="1" stop-color="#8B9798"/>
</linearGradient>
<linearGradient id="paint34_linear_442_705" x1="746.639" y1="511.963" x2="730.627" y2="295.069" gradientUnits="userSpaceOnUse">
<stop stop-color="#0D446C"/>
<stop offset="1" stop-color="#8B9798"/>
</linearGradient>
<linearGradient id="paint35_linear_442_705" x1="743.539" y1="512.192" x2="729.728" y2="293.899" gradientUnits="userSpaceOnUse">
<stop stop-color="#0D446C"/>
<stop offset="1" stop-color="#8B9798"/>
</linearGradient>
<linearGradient id="paint36_linear_442_705" x1="740.453" y1="512.387" x2="728.897" y2="292.658" gradientUnits="userSpaceOnUse">
<stop stop-color="#0D446C"/>
<stop offset="1" stop-color="#8B9798"/>
</linearGradient>
<linearGradient id="paint37_linear_442_705" x1="737.385" y1="512.548" x2="728.138" y2="291.347" gradientUnits="userSpaceOnUse">
<stop stop-color="#0D446C"/>
<stop offset="1" stop-color="#8B9798"/>
</linearGradient>
<linearGradient id="paint38_linear_442_705" x1="734.333" y1="512.675" x2="727.454" y2="289.967" gradientUnits="userSpaceOnUse">
<stop stop-color="#0D446C"/>
<stop offset="1" stop-color="#8B9798"/>
</linearGradient>
<linearGradient id="paint39_linear_442_705" x1="731.3" y1="512.768" x2="726.851" y2="288.519" gradientUnits="userSpaceOnUse">
<stop stop-color="#0D446C"/>
<stop offset="1" stop-color="#8B9798"/>
</linearGradient>
<linearGradient id="paint40_linear_442_705" x1="728.286" y1="512.828" x2="726.334" y2="287.002" gradientUnits="userSpaceOnUse">
<stop stop-color="#0D446C"/>
<stop offset="1" stop-color="#8B9798"/>
</linearGradient>
<linearGradient id="paint41_linear_442_705" x1="725.292" y1="512.853" x2="725.908" y2="285.416" gradientUnits="userSpaceOnUse">
<stop stop-color="#0D446C"/>
<stop offset="1" stop-color="#8B9798"/>
</linearGradient>
<linearGradient id="paint42_linear_442_705" x1="722.32" y1="512.844" x2="725.578" y2="283.765" gradientUnits="userSpaceOnUse">
<stop stop-color="#0D446C"/>
<stop offset="1" stop-color="#8B9798"/>
</linearGradient>
<linearGradient id="paint43_linear_442_705" x1="719.368" y1="512.802" x2="725.348" y2="282.046" gradientUnits="userSpaceOnUse">
<stop stop-color="#0D446C"/>
<stop offset="1" stop-color="#8B9798"/>
</linearGradient>
<linearGradient id="paint44_linear_442_705" x1="716.44" y1="512.726" x2="725.225" y2="280.263" gradientUnits="userSpaceOnUse">
<stop stop-color="#0D446C"/>
<stop offset="1" stop-color="#8B9798"/>
</linearGradient>
<linearGradient id="paint45_linear_442_705" x1="713.536" y1="512.616" x2="725.215" y2="278.417" gradientUnits="userSpaceOnUse">
<stop stop-color="#0D446C"/>
<stop offset="1" stop-color="#8B9798"/>
</linearGradient>
<linearGradient id="paint46_linear_442_705" x1="710.656" y1="512.472" x2="725.323" y2="276.509" gradientUnits="userSpaceOnUse">
<stop stop-color="#0D446C"/>
<stop offset="1" stop-color="#8B9798"/>
</linearGradient>
<linearGradient id="paint47_linear_442_705" x1="707.801" y1="512.294" x2="725.555" y2="274.54" gradientUnits="userSpaceOnUse">
<stop stop-color="#0D446C"/>
<stop offset="1" stop-color="#8B9798"/>
</linearGradient>
<linearGradient id="paint48_linear_442_705" x1="704.974" y1="512.082" x2="725.918" y2="272.513" gradientUnits="userSpaceOnUse">
<stop stop-color="#0D446C"/>
<stop offset="1" stop-color="#8B9798"/>
</linearGradient>
<linearGradient id="paint49_linear_442_705" x1="702.173" y1="511.838" x2="726.418" y2="270.431" gradientUnits="userSpaceOnUse">
<stop stop-color="#0D446C"/>
<stop offset="1" stop-color="#8B9798"/>
</linearGradient>
<linearGradient id="paint50_linear_442_705" x1="699.4" y1="511.559" x2="727.061" y2="268.295" gradientUnits="userSpaceOnUse">
<stop stop-color="#0D446C"/>
<stop offset="1" stop-color="#8B9798"/>
</linearGradient>
<linearGradient id="paint51_linear_442_705" x1="696.656" y1="511.246" x2="727.855" y2="266.11" gradientUnits="userSpaceOnUse">
<stop stop-color="#0D446C"/>
<stop offset="1" stop-color="#8B9798"/>
</linearGradient>
<linearGradient id="paint52_linear_442_705" x1="693.941" y1="510.9" x2="728.807" y2="263.879" gradientUnits="userSpaceOnUse">
<stop stop-color="#0D446C"/>
<stop offset="1" stop-color="#8B9798"/>
</linearGradient>
<linearGradient id="paint53_linear_442_705" x1="691.258" y1="510.521" x2="729.923" y2="261.605" gradientUnits="userSpaceOnUse">
<stop stop-color="#0D446C"/>
<stop offset="1" stop-color="#8B9798"/>
</linearGradient>
<linearGradient id="paint54_linear_442_705" x1="688.606" y1="510.109" x2="731.212" y2="259.294" gradientUnits="userSpaceOnUse">
<stop stop-color="#0D446C"/>
<stop offset="1" stop-color="#8B9798"/>
</linearGradient>
<linearGradient id="paint55_linear_442_705" x1="685.986" y1="509.663" x2="732.68" y2="256.951" gradientUnits="userSpaceOnUse">
<stop stop-color="#0D446C"/>
<stop offset="1" stop-color="#8B9798"/>
</linearGradient>
<linearGradient id="paint56_linear_442_705" x1="683.399" y1="509.185" x2="734.336" y2="254.58" gradientUnits="userSpaceOnUse">
<stop stop-color="#0D446C"/>
<stop offset="1" stop-color="#8B9798"/>
</linearGradient>
<linearGradient id="paint57_linear_442_705" x1="680.846" y1="508.673" x2="736.187" y2="252.188" gradientUnits="userSpaceOnUse">
<stop stop-color="#0D446C"/>
<stop offset="1" stop-color="#8B9798"/>
</linearGradient>
<linearGradient id="paint58_linear_442_705" x1="678.327" y1="508.13" x2="738.242" y2="249.783" gradientUnits="userSpaceOnUse">
<stop stop-color="#0D446C"/>
<stop offset="1" stop-color="#8B9798"/>
</linearGradient>
<linearGradient id="paint59_linear_442_705" x1="675.843" y1="507.553" x2="740.508" y2="247.371" gradientUnits="userSpaceOnUse">
<stop stop-color="#0D446C"/>
<stop offset="1" stop-color="#8B9798"/>
</linearGradient>
<linearGradient id="paint60_linear_442_705" x1="673.396" y1="506.945" x2="742.993" y2="244.963" gradientUnits="userSpaceOnUse">
<stop stop-color="#0D446C"/>
<stop offset="1" stop-color="#8B9798"/>
</linearGradient>
<linearGradient id="paint61_linear_442_705" x1="670.985" y1="506.304" x2="745.706" y2="242.566" gradientUnits="userSpaceOnUse">
<stop stop-color="#0D446C"/>
<stop offset="1" stop-color="#8B9798"/>
</linearGradient>
<linearGradient id="paint62_linear_442_705" x1="668.613" y1="505.631" x2="748.655" y2="240.191" gradientUnits="userSpaceOnUse">
<stop stop-color="#0D446C"/>
<stop offset="1" stop-color="#8B9798"/>
</linearGradient>
<linearGradient id="paint63_linear_442_705" x1="666.278" y1="504.927" x2="751.847" y2="237.849" gradientUnits="userSpaceOnUse">
<stop stop-color="#0D446C"/>
<stop offset="1" stop-color="#8B9798"/>
</linearGradient>
<linearGradient id="paint64_linear_442_705" x1="663.982" y1="504.19" x2="755.289" y2="235.554" gradientUnits="userSpaceOnUse">
<stop stop-color="#0D446C"/>
<stop offset="1" stop-color="#8B9798"/>
</linearGradient>
<linearGradient id="paint65_linear_442_705" x1="661.726" y1="503.423" x2="758.99" y2="233.318" gradientUnits="userSpaceOnUse">
<stop stop-color="#0D446C"/>
<stop offset="1" stop-color="#8B9798"/>
</linearGradient>
<linearGradient id="paint66_linear_442_705" x1="659.51" y1="502.625" x2="762.955" y2="231.157" gradientUnits="userSpaceOnUse">
<stop stop-color="#0D446C"/>
<stop offset="1" stop-color="#8B9798"/>
</linearGradient>
<linearGradient id="paint67_linear_442_705" x1="657.335" y1="501.796" x2="767.192" y2="229.086" gradientUnits="userSpaceOnUse">
<stop stop-color="#0D446C"/>
<stop offset="1" stop-color="#8B9798"/>
</linearGradient>
<linearGradient id="paint68_linear_442_705" x1="655.203" y1="500.936" x2="771.706" y2="227.122" gradientUnits="userSpaceOnUse">
<stop stop-color="#0D446C"/>
<stop offset="1" stop-color="#8B9798"/>
</linearGradient>
<linearGradient id="paint69_linear_442_705" x1="653.112" y1="500.046" x2="776.501" y2="225.285" gradientUnits="userSpaceOnUse">
<stop stop-color="#0D446C"/>
<stop offset="1" stop-color="#8B9798"/>
</linearGradient>
<linearGradient id="paint70_linear_442_705" x1="651.065" y1="499.125" x2="781.581" y2="223.594" gradientUnits="userSpaceOnUse">
<stop stop-color="#0D446C"/>
<stop offset="1" stop-color="#8B9798"/>
</linearGradient>
<linearGradient id="paint71_linear_442_705" x1="649.06" y1="498.176" x2="786.949" y2="222.07" gradientUnits="userSpaceOnUse">
<stop stop-color="#0D446C"/>
<stop offset="1" stop-color="#8B9798"/>
</linearGradient>
<linearGradient id="paint72_linear_442_705" x1="647.101" y1="497.197" x2="792.606" y2="220.738" gradientUnits="userSpaceOnUse">
<stop stop-color="#0D446C"/>
<stop offset="1" stop-color="#8B9798"/>
</linearGradient>
<linearGradient id="paint73_linear_442_705" x1="645.186" y1="496.188" x2="798.55" y2="219.621" gradientUnits="userSpaceOnUse">
<stop stop-color="#0D446C"/>
<stop offset="1" stop-color="#8B9798"/>
</linearGradient>
<linearGradient id="paint74_linear_442_705" x1="643.316" y1="495.151" x2="804.78" y2="218.743" gradientUnits="userSpaceOnUse">
<stop stop-color="#0D446C"/>
<stop offset="1" stop-color="#8B9798"/>
</linearGradient>
<linearGradient id="paint75_linear_442_705" x1="641.493" y1="494.085" x2="811.291" y2="218.133" gradientUnits="userSpaceOnUse">
<stop stop-color="#0D446C"/>
<stop offset="1" stop-color="#8B9798"/>
</linearGradient>
<linearGradient id="paint76_linear_442_705" x1="639.716" y1="492.991" x2="818.075" y2="217.817" gradientUnits="userSpaceOnUse">
<stop stop-color="#0D446C"/>
<stop offset="1" stop-color="#8B9798"/>
</linearGradient>
<linearGradient id="paint77_linear_442_705" x1="637.987" y1="491.87" x2="825.123" y2="217.825" gradientUnits="userSpaceOnUse">
<stop stop-color="#0D446C"/>
<stop offset="1" stop-color="#8B9798"/>
</linearGradient>
<linearGradient id="paint78_linear_442_705" x1="636.304" y1="490.72" x2="832.42" y2="218.184" gradientUnits="userSpaceOnUse">
<stop stop-color="#0D446C"/>
<stop offset="1" stop-color="#8B9798"/>
</linearGradient>
<linearGradient id="paint79_linear_442_705" x1="634.67" y1="489.544" x2="839.952" y2="218.926" gradientUnits="userSpaceOnUse">
<stop stop-color="#0D446C"/>
<stop offset="1" stop-color="#8B9798"/>
</linearGradient>
<linearGradient id="paint80_linear_442_705" x1="633.085" y1="488.34" x2="847.698" y2="220.078" gradientUnits="userSpaceOnUse">
<stop stop-color="#0D446C"/>
<stop offset="1" stop-color="#8B9798"/>
</linearGradient>
<linearGradient id="paint81_linear_442_705" x1="631.548" y1="487.11" x2="855.635" y2="221.672" gradientUnits="userSpaceOnUse">
<stop stop-color="#0D446C"/>
<stop offset="1" stop-color="#8B9798"/>
</linearGradient>
<linearGradient id="paint82_linear_442_705" x1="630.061" y1="485.854" x2="863.734" y2="223.734" gradientUnits="userSpaceOnUse">
<stop stop-color="#0D446C"/>
<stop offset="1" stop-color="#8B9798"/>
</linearGradient>
<linearGradient id="paint83_linear_442_705" x1="628.624" y1="484.573" x2="871.965" y2="226.291" gradientUnits="userSpaceOnUse">
<stop stop-color="#0D446C"/>
<stop offset="1" stop-color="#8B9798"/>
</linearGradient>
<linearGradient id="paint84_linear_442_705" x1="627.237" y1="483.265" x2="880.291" y2="229.368" gradientUnits="userSpaceOnUse">
<stop stop-color="#0D446C"/>
<stop offset="1" stop-color="#8B9798"/>
</linearGradient>
<linearGradient id="paint85_linear_442_705" x1="625.902" y1="481.934" x2="888.674" y2="232.988" gradientUnits="userSpaceOnUse">
<stop stop-color="#0D446C"/>
<stop offset="1" stop-color="#8B9798"/>
</linearGradient>
<linearGradient id="paint86_linear_442_705" x1="624.618" y1="480.577" x2="897.068" y2="237.169" gradientUnits="userSpaceOnUse">
<stop stop-color="#0D446C"/>
<stop offset="1" stop-color="#8B9798"/>
</linearGradient>
<linearGradient id="paint87_linear_442_705" x1="623.386" y1="479.196" x2="905.427" y2="241.925" gradientUnits="userSpaceOnUse">
<stop stop-color="#0D446C"/>
<stop offset="1" stop-color="#8B9798"/>
</linearGradient>
<linearGradient id="paint88_linear_442_705" x1="622.205" y1="477.792" x2="913.699" y2="247.268" gradientUnits="userSpaceOnUse">
<stop stop-color="#0D446C"/>
<stop offset="1" stop-color="#8B9798"/>
</linearGradient>
<linearGradient id="paint89_linear_442_705" x1="621.077" y1="476.365" x2="921.832" y2="253.201" gradientUnits="userSpaceOnUse">
<stop stop-color="#0D446C"/>
<stop offset="1" stop-color="#8B9798"/>
</linearGradient>
<linearGradient id="paint90_linear_442_705" x1="620.001" y1="474.914" x2="929.77" y2="259.723" gradientUnits="userSpaceOnUse">
<stop stop-color="#0D446C"/>
<stop offset="1" stop-color="#8B9798"/>
</linearGradient>
<linearGradient id="paint91_linear_442_705" x1="618.979" y1="473.442" x2="937.455" y2="266.827" gradientUnits="userSpaceOnUse">
<stop stop-color="#0D446C"/>
<stop offset="1" stop-color="#8B9798"/>
</linearGradient>
<linearGradient id="paint92_linear_442_705" x1="618.01" y1="471.947" x2="944.83" y2="274.498" gradientUnits="userSpaceOnUse">
<stop stop-color="#0D446C"/>
<stop offset="1" stop-color="#8B9798"/>
</linearGradient>
<linearGradient id="paint93_linear_442_705" x1="617.095" y1="470.431" x2="951.838" y2="282.715" gradientUnits="userSpaceOnUse">
<stop stop-color="#0D446C"/>
<stop offset="1" stop-color="#8B9798"/>
</linearGradient>
<linearGradient id="paint94_linear_442_705" x1="616.234" y1="468.895" x2="958.424" y2="291.449" gradientUnits="userSpaceOnUse">
<stop stop-color="#0D446C"/>
<stop offset="1" stop-color="#8B9798"/>
</linearGradient>
<linearGradient id="paint95_linear_442_705" x1="615.427" y1="467.338" x2="964.534" y2="300.663" gradientUnits="userSpaceOnUse">
<stop stop-color="#0D446C"/>
<stop offset="1" stop-color="#8B9798"/>
</linearGradient>
<linearGradient id="paint96_linear_442_705" x1="614.675" y1="465.759" x2="970.12" y2="310.316" gradientUnits="userSpaceOnUse">
<stop stop-color="#0D446C"/>
<stop offset="1" stop-color="#8B9798"/>
</linearGradient>
<linearGradient id="paint97_linear_442_705" x1="613.977" y1="464.162" x2="975.138" y2="320.358" gradientUnits="userSpaceOnUse">
<stop stop-color="#0D446C"/>
<stop offset="1" stop-color="#8B9798"/>
</linearGradient>
<linearGradient id="paint98_linear_442_705" x1="613.334" y1="462.545" x2="979.549" y2="330.736" gradientUnits="userSpaceOnUse">
<stop stop-color="#0D446C"/>
<stop offset="1" stop-color="#8B9798"/>
</linearGradient>
<linearGradient id="paint99_linear_442_705" x1="612.746" y1="460.911" x2="983.321" y2="341.39" gradientUnits="userSpaceOnUse">
<stop stop-color="#0D446C"/>
<stop offset="1" stop-color="#8B9798"/>
</linearGradient>
</defs>
</svg>
