<svg width="12" height="10" viewBox="0 0 12 10" fill="none" xmlns="http://www.w3.org/2000/svg">
<path d="M3.96 9.46991C4.80457 9.47522 5.64179 9.31279 6.4231 8.99204C7.20441 8.67128 7.91425 8.19859 8.51147 7.60138C9.10868 7.00417 9.58137 6.29432 9.90213 5.51301C10.2229 4.7317 10.3853 3.89448 10.38 3.04991V2.75491C10.8178 2.43416 11.1967 2.04 11.5 1.58991C11.0878 1.77021 10.6516 1.88979 10.205 1.94491C10.6785 1.6628 11.0337 1.21874 11.205 0.694911C10.7638 0.959631 10.2799 1.14573 9.775 1.24491C9.43496 0.882594 8.985 0.642439 8.49473 0.561604C8.00446 0.480769 7.50122 0.563761 7.06287 0.797738C6.62452 1.03172 6.27549 1.40363 6.0698 1.85595C5.86411 2.30826 5.81322 2.81576 5.925 3.29991C5.02801 3.25588 4.15036 3.02342 3.34918 2.61766C2.548 2.21191 1.84127 1.64195 1.275 0.944911C0.989461 1.4405 0.902913 2.02607 1.03288 2.58307C1.16285 3.14007 1.49962 3.62687 1.975 3.94491C1.62431 3.93139 1.28173 3.83546 0.975 3.66491V3.68991C0.971884 4.20783 1.14636 4.71117 1.46935 5.11605C1.79234 5.52092 2.24434 5.80287 2.75 5.91491C2.42382 6.00264 2.08215 6.01631 1.75 5.95491C1.89639 6.3966 2.17584 6.7822 2.55002 7.0588C2.9242 7.33541 3.3748 7.48949 3.84 7.49991C3.04461 8.14017 2.05605 8.4926 1.035 8.49991C0.855977 8.49473 0.677374 8.47971 0.5 8.45491C1.53348 9.11336 2.7346 9.46051 3.96 9.45491" fill="#0D446C"/>
</svg>
